<svg width="60" height="60" viewBox="0 0 60 60" fill="none" xmlns="http://www.w3.org/2000/svg">
<path d="M15 5.90999C15 9.23999 15.39 13.47 15.87 15.18C16.38 17.13 18.06 19.56 19.86 21C20.82 21.78 21.9 22.86 22.29 23.4C23.16 24.75 24.57 25.68 26.67 26.31C28.68 26.91 28.74 26.97 28.2 27.3C27.84 27.54 27.87 27.72 28.47 28.53C29.1 29.37 29.16 29.73 29.04 31.62C28.89 33.87 28.32 35.31 27.09 36.66C26.19 37.59 26.28 38.28 27.33 39.06C28.8 40.17 32.55 39.72 33.39 38.37C33.63 37.98 33.48 37.59 32.7 36.6C32.16 35.91 31.53 34.86 31.32 34.26C30.75 32.67 30.78 29.4 31.38 28.56C31.62 28.2 31.77 27.63 31.65 27.33C31.5 26.85 31.68 26.7 32.46 26.55C34.14 26.19 36.15 24.99 37.17 23.79C38.4 22.32 38.28 22.44 40.2 20.91C41.94 19.56 43.62 17.13 44.13 15.18C44.61 13.47 45 9.23999 45 5.90999V2.99999H41.55H38.1V5.27999C38.1 7.19999 38.04 7.52999 37.65 7.37999C36.27 6.83999 36.15 6.80999 36.75 7.28999C38.25 8.45999 35.46 9.29999 30 9.29999C26.1 9.29999 23.64 8.90999 23.07 8.18999C22.74 7.79999 22.77 7.64999 23.25 7.31999C23.73 6.95999 23.73 6.89999 23.34 6.89999C23.07 6.89999 22.74 7.01999 22.65 7.19999C22.17 7.97999 21.9 7.28999 21.9 5.24999V2.99999H18.45H15V5.90999ZM20.7 6.74999C20.7 8.57999 20.85 9.29999 21.45 10.5C22.11 11.82 22.2 12.33 22.2 15.42C22.2 18.78 22.23 18.9 22.95 19.38C24.27 20.25 26.49 20.76 29.7 20.91C33.21 21.09 35.55 20.64 36.99 19.47C37.77 18.87 37.8 18.78 37.8 15.36C37.8 12.21 37.89 11.7 38.55 10.38C39.15 9.20999 39.3 8.45999 39.3 6.68999V4.49999H41.55H43.8V8.15999C43.8 12.33 43.29 15.15 42.18 17.34C41.43 18.84 40.02 20.46 38.97 21C38.52 21.27 38.37 21.18 38.22 20.55C38.13 20.13 38.01 19.8 37.95 19.8C37.92 19.8 37.08 20.16 36.12 20.61C34.47 21.39 34.11 21.45 30.3 21.45C26.55 21.42 26.1 21.36 24.18 20.58C22.5 19.89 22.08 19.8 21.87 20.13C21.72 20.37 21.6 20.64 21.6 20.76C21.6 21.21 20.94 21 19.98 20.25C18.72 19.29 17.25 16.56 16.65 14.07C16.38 12.9 16.2 10.68 16.2 8.30999V4.49999H18.45H20.7V6.74999ZM31.74 10.98C32.34 11.16 32.4 11.34 32.4 13.38C32.4 15.24 32.31 15.63 31.83 15.9C31.02 16.32 28.41 16.29 27.96 15.84C27.75 15.63 27.6 14.61 27.6 13.32C27.6 11.49 27.69 11.13 28.14 11.01C28.92 10.8 30.96 10.8 31.74 10.98Z" fill="#87CEEB"/>
<path d="M22.59 36.9001C21.24 37.7101 20.82 38.5201 20.4 41.2501C19.98 44.0401 19.86 44.2801 17.94 46.5901C16.44 48.4201 16.2 49.2601 16.83 50.9101C17.64 53.1001 21.03 55.3801 24.81 56.3101C27.3 56.8801 32.19 56.9701 34.65 56.4301C38.76 55.5301 42.12 53.2801 43.08 50.8501C43.74 49.1101 43.5 48.3901 41.73 46.3501C40.23 44.6401 39.75 43.4401 39.33 40.4701C39.06 38.4901 38.55 37.5601 37.2 36.7801L36.24 36.2401L36.72 37.1701C37.17 38.0101 37.17 38.1901 36.78 38.9701C35.1 42.1801 24.87 42.1501 23.1 38.9101C22.68 38.1601 22.71 38.0101 23.16 37.2001C23.43 36.6901 23.64 36.3001 23.61 36.3001C23.58 36.3001 23.13 36.5701 22.59 36.9001Z" fill="#87CEEB"/>
</svg>
