<svg width="25" height="24" viewBox="0 0 25 24" fill="none" xmlns="http://www.w3.org/2000/svg">
<path fill-rule="evenodd" clip-rule="evenodd" d="M3.5 6C3.5 5.73478 3.60536 5.48043 3.79289 5.29289C3.98043 5.10536 4.23478 5 4.5 5H20.5C20.7652 5 21.0196 5.10536 21.2071 5.29289C21.3946 5.48043 21.5 5.73478 21.5 6C21.5 6.26522 21.3946 6.51957 21.2071 6.70711C21.0196 6.89464 20.7652 7 20.5 7H4.5C4.23478 7 3.98043 6.89464 3.79289 6.70711C3.60536 6.51957 3.5 6.26522 3.5 6ZM3.5 12C3.5 11.7348 3.60536 11.4804 3.79289 11.2929C3.98043 11.1054 4.23478 11 4.5 11H20.5C20.7652 11 21.0196 11.1054 21.2071 11.2929C21.3946 11.4804 21.5 11.7348 21.5 12C21.5 12.2652 21.3946 12.5196 21.2071 12.7071C21.0196 12.8946 20.7652 13 20.5 13H4.5C4.23478 13 3.98043 12.8946 3.79289 12.7071C3.60536 12.5196 3.5 12.2652 3.5 12ZM3.5 18C3.5 17.7348 3.60536 17.4804 3.79289 17.2929C3.98043 17.1054 4.23478 17 4.5 17H20.5C20.7652 17 21.0196 17.1054 21.2071 17.2929C21.3946 17.4804 21.5 17.7348 21.5 18C21.5 18.2652 21.3946 18.5196 21.2071 18.7071C21.0196 18.8946 20.7652 19 20.5 19H4.5C4.23478 19 3.98043 18.8946 3.79289 18.7071C3.60536 18.5196 3.5 18.2652 3.5 18Z" fill="#C2C1C8"/>
</svg>
