<svg width="24" height="24" viewBox="0 0 24 24" fill="none" xmlns="http://www.w3.org/2000/svg">
<path d="M9.34779 6.7769L6.98405 5.74017C6.7767 5.65723 6.69376 5.40842 6.7767 5.20107C6.85964 4.95226 7.10846 4.86932 7.3158 4.95226L9.67954 5.98898C9.88689 6.07192 9.96983 6.32074 9.88689 6.52808C9.80395 6.7769 9.55513 6.85984 9.34779 6.7769ZM9.72101 5.11813L7.93784 3.21055C7.77196 3.04468 7.77196 2.79586 7.97931 2.62998C8.14518 2.46411 8.394 2.46411 8.55988 2.67145L10.343 4.57903C10.5089 4.74491 10.5089 4.99373 10.3016 5.1596C10.1357 5.32548 9.88689 5.28401 9.72101 5.11813ZM11.3798 4.99373L10.426 2.58852C10.343 2.38117 10.4675 2.13235 10.6748 2.04942C10.8821 1.96648 11.131 2.09089 11.2139 2.29823L12.1677 4.70344C12.2506 4.91079 12.1262 5.1596 11.9189 5.24254C11.7115 5.32548 11.4627 5.20107 11.3798 4.99373ZM20.6689 5.24254L18.6783 2.25676C18.5539 2.04942 18.3051 2.00795 18.0978 2.13235L12.7068 5.74017C12.4994 5.86458 12.458 6.11339 12.5824 6.32074L13.1629 7.19159L11.9189 8.02097L10.5504 7.4404C10.426 7.39894 10.2601 7.39894 10.1357 7.48187L7.48168 9.26505C7.44021 9.26505 7.44021 9.30652 7.39874 9.30652C4.70325 11.3385 3.87386 14.9048 5.24234 17.8492C4.95206 17.8492 4.66178 17.8492 4.41296 17.9736C3.21036 18.5127 2.8786 20.047 3.83239 21.0008C4.37149 21.5399 5.15941 21.7058 5.86438 21.4155C6.40348 21.1667 6.81817 20.7105 6.94258 20.1714C9.22338 22.2449 12.7483 22.6596 15.4438 20.8764C17.9734 19.2591 19.4663 15.9416 18.2222 12.4582C17.8075 11.38 17.1855 9.72121 18.7198 8.02097L20.6689 5.78164C20.7518 5.61576 20.7933 5.40842 20.6689 5.24254ZM5.49116 20.6691C5.11794 20.8349 4.66178 20.7105 4.37149 20.4617C3.83239 19.9226 3.99827 19.0932 4.70325 18.8029C5.07647 18.6371 5.53263 18.72 5.82291 19.0103C6.36201 19.5079 6.15467 20.3788 5.49116 20.6691ZM15.2364 18.015C13.5362 20.0056 10.5504 20.2544 8.55988 18.5541C6.56936 16.8954 6.27907 13.8681 7.97931 11.8776C9.67954 9.88708 12.6653 9.63827 14.6558 11.297C16.6878 13.0387 16.9366 16.0245 15.2364 18.015ZM14.1582 11.9605C12.4994 10.5921 10.0528 10.7579 8.64281 12.4167C7.27433 14.0755 7.44021 16.5221 9.09897 17.9321C10.7577 19.342 13.2459 19.0932 14.6144 17.4759C16.0243 15.8172 15.7755 13.3705 14.1582 11.9605ZM13.4532 13.412C13.3288 13.5778 13.0385 13.6193 12.8727 13.4534C12.3336 12.9973 11.5457 12.8729 10.8821 13.1217C10.6748 13.2046 10.426 13.1217 10.343 12.8729C10.2601 12.6655 10.343 12.4167 10.5919 12.3338C11.5457 11.9605 12.6238 12.1264 13.4118 12.7899C13.5776 12.9973 13.6191 13.2461 13.4532 13.412Z" fill="#E7E7EA"/>
</svg>
