<svg width="24" height="24" viewBox="0 0 24 24" fill="none" xmlns="http://www.w3.org/2000/svg">
<path d="M16 2H4C3.46981 2.00079 2.96156 2.21176 2.58666 2.58666C2.21176 2.96156 2.00079 3.46981 2 4V19C2.00079 19.7954 2.31712 20.558 2.87956 21.1204C3.44199 21.6829 4.20459 21.9992 5 22H17C17.2652 22 17.5196 21.8946 17.7071 21.7071C17.8946 21.5196 18 21.2652 18 21V4C17.9992 3.46981 17.7882 2.96156 17.4133 2.58666C17.0384 2.21176 16.5302 2.00079 16 2ZM6.5 6H9.5C9.76522 6 10.0196 6.10536 10.2071 6.29289C10.3946 6.48043 10.5 6.73478 10.5 7C10.5 7.26522 10.3946 7.51957 10.2071 7.70711C10.0196 7.89464 9.76522 8 9.5 8H6.5C6.23478 8 5.98043 7.89464 5.79289 7.70711C5.60536 7.51957 5.5 7.26522 5.5 7C5.5 6.73478 5.60536 6.48043 5.79289 6.29289C5.98043 6.10536 6.23478 6 6.5 6ZM13.5 18.5H6.5C6.23478 18.5 5.98043 18.3946 5.79289 18.2071C5.60536 18.0196 5.5 17.7652 5.5 17.5C5.5 17.2348 5.60536 16.9804 5.79289 16.7929C5.98043 16.6054 6.23478 16.5 6.5 16.5H13.5C13.7652 16.5 14.0196 16.6054 14.2071 16.7929C14.3946 16.9804 14.5 17.2348 14.5 17.5C14.5 17.7652 14.3946 18.0196 14.2071 18.2071C14.0196 18.3946 13.7652 18.5 13.5 18.5ZM13.5 15H6.5C6.23478 15 5.98043 14.8946 5.79289 14.7071C5.60536 14.5196 5.5 14.2652 5.5 14C5.5 13.7348 5.60536 13.4804 5.79289 13.2929C5.98043 13.1054 6.23478 13 6.5 13H13.5C13.7652 13 14.0196 13.1054 14.2071 13.2929C14.3946 13.4804 14.5 13.7348 14.5 14C14.5 14.2652 14.3946 14.5196 14.2071 14.7071C14.0196 14.8946 13.7652 15 13.5 15ZM13.5 11.5H6.5C6.23478 11.5 5.98043 11.3946 5.79289 11.2071C5.60536 11.0196 5.5 10.7652 5.5 10.5C5.5 10.2348 5.60536 9.98043 5.79289 9.79289C5.98043 9.60536 6.23478 9.5 6.5 9.5H13.5C13.7652 9.5 14.0196 9.60536 14.2071 9.79289C14.3946 9.98043 14.5 10.2348 14.5 10.5C14.5 10.7652 14.3946 11.0196 14.2071 11.2071C14.0196 11.3946 13.7652 11.5 13.5 11.5Z" fill="#C2C1C8"/>
<path d="M19 22H17C16.7348 22 16.4804 21.8946 16.2929 21.7071C16.1054 21.5196 16 21.2652 16 21V9C16 8.73478 16.1054 8.48043 16.2929 8.29289C16.4804 8.10536 16.7348 8 17 8H21C21.2652 8 21.5196 8.10536 21.7071 8.29289C21.8946 8.48043 22 8.73478 22 9V19C21.9992 19.7954 21.6829 20.558 21.1204 21.1204C20.558 21.6829 19.7954 21.9992 19 22ZM18 20H19C19.2652 20 19.5196 19.8946 19.7071 19.7071C19.8946 19.5196 20 19.2652 20 19V10H18V20Z" fill="#C2C1C8"/>
</svg>
