<svg width="24" height="25" viewBox="0 0 24 25" fill="none" xmlns="http://www.w3.org/2000/svg">
<path d="M1.5 22.25C1.5 23.4922 2.50781 24.5 3.75 24.5H20.25C21.4922 24.5 22.5 23.4922 22.5 22.25V9.5H1.5V22.25ZM16.5 13.0625C16.5 12.7531 16.7531 12.5 17.0625 12.5H18.9375C19.2469 12.5 19.5 12.7531 19.5 13.0625V14.9375C19.5 15.2469 19.2469 15.5 18.9375 15.5H17.0625C16.7531 15.5 16.5 15.2469 16.5 14.9375V13.0625ZM16.5 19.0625C16.5 18.7531 16.7531 18.5 17.0625 18.5H18.9375C19.2469 18.5 19.5 18.7531 19.5 19.0625V20.9375C19.5 21.2469 19.2469 21.5 18.9375 21.5H17.0625C16.7531 21.5 16.5 21.2469 16.5 20.9375V19.0625ZM10.5 13.0625C10.5 12.7531 10.7531 12.5 11.0625 12.5H12.9375C13.2469 12.5 13.5 12.7531 13.5 13.0625V14.9375C13.5 15.2469 13.2469 15.5 12.9375 15.5H11.0625C10.7531 15.5 10.5 15.2469 10.5 14.9375V13.0625ZM10.5 19.0625C10.5 18.7531 10.7531 18.5 11.0625 18.5H12.9375C13.2469 18.5 13.5 18.7531 13.5 19.0625V20.9375C13.5 21.2469 13.2469 21.5 12.9375 21.5H11.0625C10.7531 21.5 10.5 21.2469 10.5 20.9375V19.0625ZM4.5 13.0625C4.5 12.7531 4.75312 12.5 5.0625 12.5H6.9375C7.24687 12.5 7.5 12.7531 7.5 13.0625V14.9375C7.5 15.2469 7.24687 15.5 6.9375 15.5H5.0625C4.75312 15.5 4.5 15.2469 4.5 14.9375V13.0625ZM4.5 19.0625C4.5 18.7531 4.75312 18.5 5.0625 18.5H6.9375C7.24687 18.5 7.5 18.7531 7.5 19.0625V20.9375C7.5 21.2469 7.24687 21.5 6.9375 21.5H5.0625C4.75312 21.5 4.5 21.2469 4.5 20.9375V19.0625ZM20.25 3.5H18V1.25C18 0.8375 17.6625 0.5 17.25 0.5H15.75C15.3375 0.5 15 0.8375 15 1.25V3.5H9V1.25C9 0.8375 8.6625 0.5 8.25 0.5H6.75C6.3375 0.5 6 0.8375 6 1.25V3.5H3.75C2.50781 3.5 1.5 4.50781 1.5 5.75V8H22.5V5.75C22.5 4.50781 21.4922 3.5 20.25 3.5Z" fill="#DCDBDF"/>
</svg>
