<svg width="350" height="651" viewBox="0 0 350 651" fill="none" xmlns="http://www.w3.org/2000/svg">
<g opacity="0.35">
<path d="M347.548 16.4543V634.638H1.89917V16.4543H347.548ZM349.448 14.1562H0V636.936H349.448V14.1562Z" fill="#555A5E"/>
<path d="M0.206774 43.7782L0.111816 41.4801C11.6398 40.8137 20.9647 29.3693 21.3446 15.4199L23.2437 15.4889C22.8259 30.6332 12.7033 43.0658 0.206774 43.7782Z" fill="#555A5E"/>
<path d="M348.002 43.663C335.506 42.9506 325.383 30.518 324.965 15.3736L326.865 15.3047C327.244 29.254 336.569 40.7214 348.078 41.3649L348.002 43.663Z" fill="#555A5E"/>
<path d="M325.801 635.947H323.901C323.901 619.792 334.765 606.647 348.116 606.647V608.945C335.809 608.945 325.801 621.056 325.801 635.947Z" fill="#555A5E"/>
<path d="M22.4661 635.947H20.5669C20.5669 621.906 11.8687 610.347 0.321777 609.06L0.492703 606.762C13.0272 608.164 22.4661 620.688 22.4661 635.947Z" fill="#555A5E"/>
<path d="M205.622 17.0051V49.9596H142.721V17.0051H205.622ZM207.521 14.707H140.822V52.2576H207.521V14.707Z" fill="#555A5E"/>
<path d="M204.938 565.764C199.734 557.629 187.636 552.366 174.133 552.366C160.706 552.366 148.646 557.583 143.405 565.649L141.373 564.5C147.032 555.79 159.908 550.16 174.133 550.16C188.453 550.16 201.348 555.836 206.97 564.638L204.938 565.764Z" fill="#555A5E"/>
<path d="M237.432 566.201V634.5H110.909V566.201H237.432ZM239.123 564.155H109.219V636.499H239.104V564.155H239.123Z" fill="#555A5E"/>
<path d="M204.938 85.0752C199.734 93.2104 187.636 98.473 174.133 98.473C160.706 98.473 148.646 93.2564 143.405 85.1901L141.373 86.3391C147.032 95.0489 159.908 100.679 174.133 100.679C188.453 100.679 201.348 95.0029 206.97 86.2012L204.938 85.0752Z" fill="#555A5E"/>
<path d="M237.432 84.6611V16.3622H110.909V84.6611H237.432ZM239.123 86.6834H109.219V14.3398H239.104V86.6834H239.123Z" fill="#555A5E"/>
<path d="M205.622 600.994V633.948H142.721V600.994H205.622ZM207.521 598.696H140.822V636.246H207.521V598.696Z" fill="#555A5E"/>
<path d="M193.903 636.476V648.702H155.122V636.476H193.903ZM195.803 634.178H153.223V651H195.803V634.178Z" fill="#555A5E"/>
<path d="M193.903 2.29808V14.5239H155.122V2.29808H193.903ZM195.803 0H153.223V16.8219H195.803V0Z" fill="#555A5E"/>
<path d="M349.447 324H0.447266V326H349.447V324Z" fill="#555A5E"/>
<path d="M174.171 363.623C152.653 363.623 135.162 346.407 135.162 325.229C135.162 304.05 152.653 286.834 174.171 286.834C195.689 286.834 213.18 304.05 213.18 325.229C213.18 346.407 195.689 363.623 174.171 363.623ZM174.171 288.703C153.698 288.703 137.061 305.097 137.061 325.229C137.061 345.361 153.717 361.754 174.171 361.754C194.644 361.754 211.281 345.361 211.281 325.229C211.281 305.097 194.644 288.703 174.171 288.703Z" fill="#555A5E"/>
</g>
</svg>
