<svg width="261" height="37" viewBox="0 0 261 37" fill="none" xmlns="http://www.w3.org/2000/svg">
<path d="M260.076 14.8626C260.076 15.5192 259.96 16.2304 259.729 16.9963C259.498 17.7501 259.121 18.4552 258.598 19.1117C258.088 19.7561 257.413 20.2971 256.574 20.7348C255.747 21.1725 254.738 21.3913 253.547 21.3913H244.994V16.8869H253.547C254.191 16.8869 254.69 16.6924 255.042 16.3033C255.395 15.9021 255.571 15.4097 255.571 14.8262C255.571 14.2061 255.371 13.7198 254.969 13.3672C254.58 13.0147 254.106 12.8384 253.547 12.8384H244.994C244.35 12.8384 243.851 13.039 243.499 13.4402C243.146 13.8292 242.97 14.3155 242.97 14.8991V21.5189C242.97 22.1511 243.164 22.6435 243.553 22.9961C243.955 23.3487 244.447 23.525 245.03 23.525H253.547V28.0476H244.994C244.337 28.0476 243.626 27.9321 242.86 27.7011C242.107 27.4701 241.401 27.0993 240.745 26.5887C240.101 26.0659 239.56 25.3912 239.122 24.5644C238.684 23.7256 238.465 22.7104 238.465 21.5189V14.8626C238.465 14.2061 238.581 13.501 238.812 12.7472C239.043 11.9813 239.414 11.2761 239.924 10.6318C240.447 9.97527 241.122 9.42817 241.948 8.9905C242.787 8.55282 243.803 8.33398 244.994 8.33398H253.547C254.203 8.33398 254.909 8.44948 255.662 8.68048C256.428 8.91147 257.133 9.28836 257.778 9.81114C258.434 10.3218 258.981 10.9965 259.419 11.8354C259.857 12.6621 260.076 13.6712 260.076 14.8626Z" fill="white"/>
<path d="M236.487 28.0477H229.648L220.092 18.82C219.557 18.3337 219.308 17.7258 219.345 16.9964C219.369 16.656 219.454 16.3399 219.6 16.0481C219.758 15.7441 219.971 15.4888 220.238 15.2822L228.9 8.29759H236.487L225.326 17.2882L236.487 28.0477ZM218.141 28.0477H213.399V0H218.141V28.0477Z" fill="white"/>
<path d="M208.394 4.28557H203.652V0H208.394V4.28557ZM208.394 28.0477H203.652V8.33406H208.394V28.0477Z" fill="white"/>
<path d="M200.07 13.0755H189.401C188.757 13.0755 188.271 13.2396 187.942 13.5678C187.614 13.8839 187.45 14.352 187.45 14.9721V28.0476H182.708V14.9721C182.708 14.1575 182.812 13.428 183.019 12.7837C183.225 12.1393 183.499 11.574 183.839 11.0877C184.192 10.5892 184.593 10.1698 185.043 9.82937C185.493 9.4768 185.961 9.1911 186.447 8.97226C186.945 8.75342 187.444 8.59537 187.942 8.49811C188.453 8.38869 188.927 8.33398 189.365 8.33398H200.07V13.0755Z" fill="white"/>
<path d="M179.435 13.0754H171.156V28.0476H166.36V13.0754H160.196V8.33396H166.36V1.89648H171.156V8.33396H179.435V13.0754Z" fill="white"/>
<path d="M158.126 21.3913C158.126 22.2059 158.023 22.9414 157.816 23.5979C157.61 24.2423 157.336 24.8137 156.996 25.3121C156.655 25.7984 156.26 26.2179 155.81 26.5704C155.361 26.9109 154.886 27.1905 154.388 27.4093C153.902 27.6282 153.403 27.7923 152.893 27.9017C152.394 27.999 151.92 28.0476 151.47 28.0476H138.632V23.3061H151.434C152.078 23.3061 152.564 23.142 152.893 22.8137C153.221 22.4855 153.385 22.0113 153.385 21.3913C153.324 20.1269 152.686 19.4947 151.47 19.4947H144.121C143.075 19.4947 142.188 19.3123 141.458 18.9476C140.729 18.5829 140.133 18.127 139.671 17.5799C139.221 17.0328 138.893 16.4431 138.686 15.8109C138.492 15.1787 138.395 14.5891 138.395 14.042C138.395 12.9843 138.583 12.0968 138.96 11.3795C139.337 10.65 139.811 10.0604 140.382 9.61054C140.954 9.1607 141.574 8.83853 142.242 8.644C142.911 8.43732 143.537 8.33398 144.121 8.33398H155.774V13.0755H144.157C143.914 13.0755 143.72 13.1059 143.574 13.1666C143.44 13.2153 143.337 13.2882 143.264 13.3855C143.203 13.4706 143.166 13.5678 143.154 13.6773C143.142 13.7745 143.136 13.8718 143.136 13.9691C143.148 14.1636 143.185 14.3155 143.245 14.425C143.306 14.5344 143.379 14.6134 143.464 14.662C143.562 14.7107 143.665 14.7411 143.774 14.7532C143.896 14.7532 144.011 14.7532 144.121 14.7532H151.47C152.686 14.7532 153.719 14.9721 154.57 15.4097C155.421 15.8474 156.108 16.4006 156.631 17.0693C157.154 17.7258 157.531 18.4431 157.762 19.2212C158.005 19.9992 158.126 20.7226 158.126 21.3913Z" fill="white"/>
<path d="M121.654 29.9442C121.654 30.7588 121.551 31.4882 121.344 32.1326C121.137 32.7891 120.864 33.3605 120.523 33.8468C120.183 34.3453 119.788 34.7647 119.338 35.1051C118.888 35.4577 118.414 35.7434 117.915 35.9622C117.429 36.1811 116.937 36.3391 116.438 36.4364C115.94 36.5458 115.466 36.6005 115.016 36.6005H106.463V31.859H115.016C115.648 31.859 116.122 31.6949 116.438 31.3666C116.754 31.0384 116.912 30.5642 116.912 29.9442V8.33398H121.654V29.9442ZM115.016 28.0476H106.463C105.782 28.0476 105.053 27.9321 104.275 27.7011C103.509 27.4701 102.791 27.0932 102.123 26.5704C101.454 26.0355 100.901 25.3486 100.463 24.5097C100.025 23.6587 99.8066 22.6192 99.8066 21.3913V8.33398H104.548V21.3913C104.548 22.0113 104.712 22.4855 105.041 22.8137C105.369 23.142 105.855 23.3061 106.499 23.3061H115.016V28.0476Z" fill="white"/>
<path d="M96.424 13.0754H88.1447V28.0476H83.3485V13.0754H77.1846V8.33396H83.3485V1.89648H88.1447V8.33396H96.424V13.0754Z" fill="white"/>
<path d="M74.1852 21.3913C74.1852 22.2059 74.0818 22.9414 73.8752 23.5979C73.6685 24.2423 73.3949 24.8137 73.0545 25.3121C72.7141 25.7984 72.319 26.2179 71.8691 26.5704C71.4193 26.9109 70.9452 27.1905 70.4467 27.4093C69.9604 27.6282 69.4619 27.7923 68.9513 27.9017C68.4528 27.999 67.9787 28.0476 67.5289 28.0476H58.976C58.3195 28.0476 57.6022 27.9321 56.8241 27.7011C56.046 27.4701 55.3226 27.0932 54.6539 26.5704C53.9974 26.0355 53.4442 25.3486 52.9944 24.5097C52.5567 23.6587 52.3379 22.6192 52.3379 21.3913V14.9721C52.3379 13.7563 52.5567 12.729 52.9944 11.8901C53.4442 11.0391 53.9974 10.3522 54.6539 9.82937C55.3226 9.29444 56.046 8.91147 56.8241 8.68048C57.6022 8.44948 58.3195 8.33398 58.976 8.33398H67.5289C68.7446 8.33398 69.778 8.55282 70.6291 8.9905C71.4801 9.42817 72.167 9.98135 72.6898 10.65C73.2126 11.3065 73.5895 12.0238 73.8204 12.8019C74.0636 13.58 74.1852 14.3034 74.1852 14.9721V21.3913ZM69.4437 15.0085C69.4437 14.352 69.2796 13.8657 68.9513 13.5496C68.6231 13.2335 68.1489 13.0755 67.5289 13.0755H59.0124C58.3802 13.0755 57.9 13.2396 57.5718 13.5678C57.2435 13.8839 57.0794 14.352 57.0794 14.9721V21.3913C57.0794 22.0113 57.2435 22.4855 57.5718 22.8137C57.9 23.142 58.3802 23.3061 59.0124 23.3061H67.5289C68.1732 23.3061 68.6535 23.142 68.9695 22.8137C69.2856 22.4855 69.4437 22.0113 69.4437 21.3913V15.0085Z" fill="white"/>
<path d="M48.317 21.3913C48.317 22.2059 48.2137 22.9414 48.007 23.5979C47.8003 24.2423 47.5268 24.8137 47.1864 25.3121C46.8459 25.7984 46.4508 26.2179 46.001 26.5704C45.5511 26.9109 45.077 27.1905 44.5785 27.4093C44.0922 27.6282 43.5938 27.7923 43.0831 27.9017C42.5847 27.999 42.1105 28.0476 41.6607 28.0476H33.1078C32.4513 28.0476 31.734 27.9321 30.9559 27.7011C30.1778 27.4701 29.4544 27.0932 28.7858 26.5704C28.1292 26.0355 27.5761 25.3486 27.1262 24.5097C26.6886 23.6587 26.4697 22.6192 26.4697 21.3913V14.9721C26.4697 13.7563 26.6886 12.729 27.1262 11.8901C27.5761 11.0391 28.1292 10.3522 28.7858 9.82937C29.4544 9.29444 30.1778 8.91147 30.9559 8.68048C31.734 8.44948 32.4513 8.33398 33.1078 8.33398H41.6607C42.8765 8.33398 43.9099 8.55282 44.7609 8.9905C45.6119 9.42817 46.2988 9.98135 46.8216 10.65C47.3444 11.3065 47.7213 12.0238 47.9523 12.8019C48.1954 13.58 48.317 14.3034 48.317 14.9721V21.3913ZM43.5755 15.0085C43.5755 14.352 43.4114 13.8657 43.0831 13.5496C42.7549 13.2335 42.2807 13.0755 41.6607 13.0755H33.1443C32.5121 13.0755 32.0318 13.2396 31.7036 13.5678C31.3753 13.8839 31.2112 14.352 31.2112 14.9721V21.3913C31.2112 22.0113 31.3753 22.4855 31.7036 22.8137C32.0318 23.142 32.5121 23.3061 33.1443 23.3061H41.6607C42.3051 23.3061 42.7853 23.142 43.1014 22.8137C43.4175 22.4855 43.5755 22.0113 43.5755 21.3913V15.0085Z" fill="white"/>
<path d="M21.6284 17.361H6.63807V12.5831H21.6284V17.361ZM23.7439 6.63797H4.74148V28.0476H0V4.28546C0 3.9572 0.0607882 3.64718 0.182365 3.3554C0.303941 3.06362 0.468069 2.80831 0.674749 2.58947C0.893587 2.37063 1.1489 2.20043 1.44068 2.07885C1.73246 1.95727 2.04856 1.89648 2.38898 1.89648H23.7439V6.63797Z" fill="white"/>
</svg>
