<svg width="201" height="142" viewBox="0 0 201 142" fill="none" xmlns="http://www.w3.org/2000/svg">
<g opacity="0.5">
<path d="M182.728 88.7167C177.456 92.0721 172.024 95.1589 166.556 98.182C161.088 101.205 155.529 104.069 149.92 106.832C144.311 109.596 138.647 112.232 132.947 114.8C127.247 117.368 121.451 119.731 115.646 122.057C109.842 124.384 103.95 126.496 98.0315 128.536L93.5788 130.02L89.108 131.436C86.1304 132.396 83.1165 133.257 80.107 134.104C74.0836 135.807 67.992 137.259 61.8957 138.57C55.7631 139.799 49.6031 140.847 43.3885 141.548C49.4801 140.182 55.54 138.739 61.5451 137.1L66.0433 135.848L68.2879 135.215L70.5188 134.541C72.0076 134.086 73.5054 133.671 74.9896 133.202L79.4378 131.805C85.3564 129.865 91.2751 127.944 97.0891 125.79C102.903 123.637 108.749 121.515 114.522 119.193C120.295 116.871 126.063 114.563 131.791 112.132C137.518 109.701 143.214 107.174 148.905 104.665C160.257 99.5478 171.531 94.2317 182.728 88.7167ZM98.0588 82.5339C94.3437 84.8877 90.5285 87.0867 86.6768 89.1901C82.8251 91.2936 78.937 93.3287 74.9714 95.2727C73.0137 96.2743 71.015 97.1895 69.0254 98.1273C67.0359 99.0652 65.0281 99.9485 63.0248 100.859C61.0216 101.77 58.9956 102.639 56.9604 103.468C54.9253 104.296 52.9039 105.175 50.8551 105.976C42.657 109.203 34.3177 112.03 25.8373 114.458L19.4633 116.125L17.8653 116.53C17.3281 116.657 16.7863 116.762 16.2491 116.88L13.0165 117.563C8.72321 118.533 4.36616 119.093 0 119.703C8.57753 117.745 17.0276 115.487 25.3729 112.842C26.4201 112.533 27.449 112.146 28.4871 111.804L31.5966 110.761L34.7062 109.723L37.7885 108.59C39.8373 107.829 41.9179 107.142 43.953 106.345L50.0538 103.987C52.098 103.204 54.1149 102.352 56.1455 101.537C57.1608 101.123 58.1806 100.727 59.1868 100.295L62.2053 99.006C66.2528 97.3352 70.241 95.5231 74.2521 93.7612C82.2438 90.1553 90.1794 86.4129 98.0588 82.5339ZM93.6426 57.3613C88.9304 59.7789 84.0816 61.9141 79.2056 63.9265C76.7698 64.96 74.2976 65.8888 71.8345 66.8449C69.3715 67.8009 66.8674 68.666 64.3725 69.5356C63.1204 69.9681 61.8638 70.3733 60.6027 70.7785C59.3416 71.1837 58.0941 71.6162 56.8239 71.985L53.0131 73.1004C51.7429 73.4692 50.459 73.797 49.1796 74.1339C44.0609 75.5114 38.8451 76.4991 33.5771 77.0887C38.6945 75.7229 43.7163 74.1704 48.7289 72.5769C49.9764 72.1626 51.233 71.7665 52.485 71.3613L56.2229 70.1093C58.7178 69.2761 61.231 68.452 63.6986 67.5733L67.4365 66.3031C68.6794 65.8478 69.9178 65.4198 71.1653 65.001L78.6365 62.4195C83.6173 60.694 88.6072 58.9821 93.6426 57.3613Z" fill="#39424B"/>
</g>
<path d="M139.763 59.9657L138.775 41.5449L155.989 34.916L167.613 49.2392L157.587 64.7188L139.763 59.9657Z" fill="#208FFE"/>
<path d="M155.907 35.2396L167.289 49.276L157.464 64.4278L139.995 59.7703L139.03 41.7183L155.907 35.2396ZM156.071 34.6341L138.511 41.3996L139.517 60.1891L157.701 65.0379L167.936 49.2214L156.098 34.6113L156.071 34.6341Z" fill="#39424B"/>
<path d="M149.602 88.5087L162.641 79.007L177.97 78.1602L176.281 89.8199C170.47 93.095 164.043 95.129 157.405 95.7933L149.602 88.5087Z" fill="#208FFE"/>
<path d="M177.674 78.4285L176.044 89.6558C170.326 92.8536 164.014 94.8462 157.496 95.5107L149.997 88.5085L162.745 79.2298L177.688 78.4103L177.674 78.4285ZM178.266 77.8867L162.554 78.7518L149.201 88.4766L157.314 96.0388C164.069 95.3928 170.612 93.3262 176.513 89.9745L178.266 77.8867Z" fill="#39424B"/>
<path d="M122.517 85.2303C117.124 80.8229 112.754 75.2955 109.709 69.0313L113.525 61.1094L126.532 67.7793L131.331 82.5896L122.517 85.2303Z" fill="#208FFE"/>
<path d="M113.639 61.4538L126.323 67.9552L131.012 82.4377L122.571 84.9463C117.287 80.5956 112.997 75.1617 109.992 69.0114L113.634 61.4355L113.639 61.4538ZM113.406 60.7617L109.427 69.0296C112.499 75.4189 116.949 81.0477 122.457 85.5109L131.654 82.7792L126.742 67.6046L113.406 60.7754V60.7617Z" fill="#39424B"/>
<path d="M107.538 32.4705C108.021 31.0774 108.562 29.707 109.159 28.4003C111.379 23.4704 114.423 18.9547 118.16 15.0469L128.686 16.7451L124.784 32.1746L113.102 41.3258L107.538 32.4705Z" fill="#208FFE"/>
<path d="M118.25 15.3198L128.371 16.9543L124.561 32.0514L113.179 40.975L107.838 32.4384C108.293 31.0726 108.84 29.7659 109.413 28.5048C111.601 23.6358 114.597 19.1718 118.273 15.3016L118.25 15.3198ZM118.068 14.7734C114.269 18.7238 111.177 23.2976 108.926 28.2953C108.293 29.6612 107.743 31.0862 107.255 32.5022L113.033 41.6989L125.011 32.3201L129 16.5399L118.073 14.7734H118.068Z" fill="#39424B"/>
<path d="M146.879 9.78108L154.701 0.292969C160.849 0.533787 166.892 1.96719 172.493 4.51345C173.281 4.87312 174.009 5.22369 174.71 5.58791L175.38 15.6998L158.416 17.4845L146.879 9.78108Z" fill="#208FFE"/>
<path d="M154.814 0.550279C160.888 0.80525 166.854 2.22897 172.388 4.74344C173.121 5.0758 173.804 5.40358 174.469 5.74505L175.111 15.4699L158.479 17.2182L147.252 9.74244L154.814 0.56848V0.550279ZM154.582 0.03125L146.501 9.8335L158.338 17.7463L175.639 15.9252L174.947 5.42181C174.173 5.02116 173.39 4.64327 172.589 4.27905C166.916 1.70662 160.797 0.263814 154.573 0.03125H154.582Z" fill="#39424B"/>
<path d="M184.535 47.7513L188.847 32.7907L197.01 29.8633C200.851 39.0833 201.683 49.2808 199.386 59.0014L189.602 61.4781L184.535 47.7513Z" fill="#208FFE"/>
<path d="M196.864 30.1849C200.59 39.2511 201.398 49.2527 199.177 58.7995L189.762 61.1897L184.804 47.7452L189.056 32.9895L196.864 30.1895V30.1849ZM197.151 29.543L188.637 32.5934L184.271 47.7588L189.443 61.7907L199.6 59.2137C201.953 49.3141 201.095 38.9228 197.151 29.543Z" fill="#39424B"/>
<path d="M125.303 32.2121L129.214 16.7324L146.473 10.1172L158.074 17.8706L155.916 34.4839L138.561 41.1129L125.303 32.2121Z" fill="#CCE6FF"/>
<path d="M146.442 10.405L157.824 17.9946L155.707 34.3028L138.616 40.8316L125.594 32.1038L129.428 16.9247L146.442 10.405ZM146.506 9.83594L129 16.5422L125.012 32.3269L138.529 41.4007L156.149 34.6716L158.348 17.7488L146.51 9.83594H146.506Z" fill="#39424B"/>
<path d="M154.582 0.0324918L146.501 9.83475L129 16.5411L118.073 14.7746C122.779 9.88752 128.464 6.04843 134.755 3.50814C141.046 0.967841 147.802 -0.216503 154.582 0.0324918Z" fill="#CCE6FF"/>
<path d="M113.657 60.6041L113.292 41.8237L125.025 32.6406L138.26 41.5186L139.253 60.0259L126.732 67.3104L113.657 60.6041Z" fill="#CCE6FF"/>
<path d="M125.034 32.9616L138.014 41.6621L138.993 59.8734L126.723 67.0168L113.907 60.4471L113.547 41.9443L125.034 32.9616ZM125.034 32.3333L113.056 41.7076L113.429 60.7703L126.764 67.5996L139.539 60.1693L138.533 41.3798L125.011 32.3242L125.034 32.3333Z" fill="#39424B"/>
<path d="M113.407 60.7627L109.427 69.0306C103.912 57.62 103.132 44.4916 107.256 32.5078L113.033 41.7045L113.407 60.7627Z" fill="#CCE6FF"/>
<path d="M156.417 34.594L158.575 17.9807L175.534 16.1914L188.36 32.6499L184.075 47.524L168.008 49.0128L156.417 34.594Z" fill="#CCE6FF"/>
<path d="M175.421 16.4598L188.082 32.7042L183.88 47.2733L168.122 48.7302L156.681 34.5072L158.798 18.1989L175.421 16.4461V16.4598ZM175.648 15.9225L158.347 17.7437L156.148 34.6665L167.895 49.272L184.285 47.7559L188.656 32.5904L175.662 15.918L175.648 15.9225Z" fill="#39424B"/>
<path d="M197.151 29.5428L188.637 32.5932L175.648 15.9253L174.956 5.42188C184.96 10.6025 192.819 19.1429 197.151 29.5428Z" fill="#CCE6FF"/>
<path d="M157.979 65.0471L167.972 49.5265L184.098 48.0332L189.156 61.7509L178.129 77.6403L162.732 78.4825L157.979 65.0471Z" fill="#CCE6FF"/>
<path d="M183.93 48.3016L188.878 61.7142L178.002 77.3941L162.927 78.2182L158.283 65.0787L168.14 49.763L183.952 48.3016H183.93ZM184.271 47.7598L167.826 49.2804L157.701 65.015L162.554 78.7463L178.266 77.8858L189.438 61.787L184.271 47.7598Z" fill="#39424B"/>
<path d="M196.619 67.9563C192.434 77.247 185.394 84.9601 176.522 89.9738L178.275 77.886L189.453 61.7918L199.61 59.2148C198.895 62.2178 197.894 65.1451 196.619 67.9563Z" fill="#CCE6FF"/>
<path d="M131.855 82.5753L127.047 67.7149L139.553 60.4395L157.505 65.2245L162.249 78.6553L149.155 88.1935L131.855 82.5753Z" fill="#CCE6FF"/>
<path d="M139.59 60.7351L157.309 65.461L161.949 78.5822L149.114 87.9337L132.059 82.3702L127.352 67.833L139.59 60.7351ZM139.517 60.1888L126.742 67.619L131.654 82.7981L149.201 88.4983L162.554 78.7689L157.701 65.0148L139.517 60.166V60.1888Z" fill="#39424B"/>
<path d="M157.314 96.0391C144.766 97.2201 132.254 93.4418 122.458 85.5129L131.654 82.7812L149.201 88.4814L157.314 96.0391Z" fill="#CCE6FF"/>
</svg>
