<svg width="24" height="24" viewBox="0 0 24 24" fill="none" xmlns="http://www.w3.org/2000/svg">
<path fill-rule="evenodd" clip-rule="evenodd" d="M12.375 16.0148L12.375 19.6523L19.4044 19.6523C19.4886 18.9602 19.8023 18.3163 20.2955 17.8234C20.7887 17.3306 21.4328 17.0173 22.125 16.9336L22.125 15.4861L19.4749 15.4861C19.2679 15.4861 19.0999 15.3173 19.0999 15.1111L19.0999 8.93109C19.0999 8.72484 19.2679 8.55609 19.4749 8.55609L22.125 8.55609L22.125 7.10859C20.7038 6.93984 19.575 5.81109 19.4044 4.38984L12.375 4.38984L12.375 8.02734C14.4139 8.21484 16.0125 9.93234 16.0125 12.0211C16.0125 14.1098 14.4139 15.8273 12.375 16.0148ZM20.1619 19.6523C20.3224 18.6473 21.1181 17.8523 22.125 17.6911L22.125 19.6523L20.1619 19.6523ZM20.1619 4.38984L22.125 4.38984L22.125 6.35109C21.6333 6.2717 21.1791 6.03954 20.8267 5.68751C20.4743 5.33549 20.2417 4.88147 20.1619 4.38984ZM19.8499 9.30609L22.125 9.30609L22.125 14.7361L19.8499 14.7361L19.8499 9.30609ZM12.375 8.78109C13.9991 8.96484 15.2625 10.3486 15.2625 12.0211C15.2625 13.6936 13.9991 15.0773 12.375 15.2611L12.375 8.78109ZM11.625 8.78109L11.625 15.2611C10.0009 15.0773 8.73787 13.6936 8.73787 12.0211C8.73787 10.3486 10.0009 8.96484 11.625 8.78109ZM1.875 7.10859L1.875 8.55609L4.52512 8.55609C4.7325 8.55609 4.90012 8.72484 4.90012 8.93109L4.90012 15.1111C4.90012 15.3173 4.7325 15.4861 4.52512 15.4861L1.875 15.4861L1.875 16.9336C2.56718 17.0173 3.21133 17.3306 3.70451 17.8234C4.19769 18.3163 4.51144 18.9602 4.59562 19.6523L11.625 19.6523L11.625 16.0148C9.58612 15.8273 7.98787 14.1098 7.98787 12.0211C7.98787 9.93234 9.58612 8.21484 11.625 8.02734L11.625 4.38984L4.59562 4.38984C4.5115 5.08199 4.19777 5.72595 3.70458 6.21881C3.21139 6.71166 2.5672 7.02495 1.875 7.10859ZM1.875 9.30609L4.15012 9.30609L4.15012 14.7361L1.875 14.7361L1.875 9.30609ZM1.875 17.6911C2.36675 17.7705 2.82104 18.0026 3.17347 18.3546C3.52589 18.7067 3.75856 19.1607 3.8385 19.6523L1.875 19.6523L1.875 17.6911ZM3.8385 4.38984C3.75856 4.88151 3.52589 5.33553 3.17347 5.68755C2.82104 6.03957 2.36675 6.27172 1.875 6.35109L1.875 4.38984L3.8385 4.38984Z" fill="#C2C1C8"/>
</svg>
