<svg width="16" height="16" viewBox="0 0 16 16" fill="none" xmlns="http://www.w3.org/2000/svg">
<path d="M1.99996 4.66712H3.99996V9.00046C3.99996 9.17727 4.0702 9.34684 4.19522 9.47186C4.32025 9.59688 4.48982 9.66712 4.66663 9.66712C4.84344 9.66712 5.01301 9.59688 5.13803 9.47186C5.26306 9.34684 5.3333 9.17727 5.3333 9.00046V4.66712H7.3333C7.39611 4.66715 7.45764 4.64942 7.51082 4.61599C7.564 4.58257 7.60665 4.53479 7.63386 4.47818C7.66106 4.42157 7.67172 4.35842 7.66461 4.29602C7.65749 4.23361 7.63289 4.17449 7.59363 4.12546L4.92696 0.792122C4.86672 0.72314 4.78156 0.680884 4.69019 0.674635C4.59882 0.668385 4.5087 0.698652 4.43963 0.758789C4.42778 0.769137 4.41664 0.780274 4.4063 0.792122L1.73963 4.12546C1.70037 4.17449 1.67577 4.23361 1.66865 4.29602C1.66153 4.35842 1.67219 4.42157 1.6994 4.47818C1.72661 4.53479 1.76926 4.58257 1.82244 4.61599C1.87561 4.64942 1.93715 4.66715 1.99996 4.66712Z" fill="#22C55E"/>
<path d="M11.0728 15.209C11.104 15.248 11.1436 15.2796 11.1887 15.3012C11.2338 15.3229 11.2831 15.3341 11.3331 15.3341C11.3831 15.3341 11.4325 15.3229 11.4776 15.3012C11.5226 15.2796 11.5622 15.248 11.5935 15.209L14.2601 11.8757C14.2994 11.8266 14.324 11.7675 14.3311 11.7051C14.3382 11.6427 14.3276 11.5795 14.3004 11.5229C14.2732 11.4663 14.2305 11.4185 14.1773 11.3851C14.1241 11.3517 14.0626 11.334 13.9998 11.334H11.9998V7.00065C11.9998 6.82384 11.9296 6.65427 11.8045 6.52925C11.6795 6.40422 11.5099 6.33398 11.3331 6.33398C11.1563 6.33398 10.9868 6.40422 10.8617 6.52925C10.7367 6.65427 10.6665 6.82384 10.6665 7.00065V11.334H8.66647C8.60366 11.334 8.54212 11.3517 8.48894 11.3851C8.43576 11.4185 8.39311 11.4663 8.36591 11.5229C8.3387 11.5795 8.32804 11.6427 8.33515 11.7051C8.34227 11.7675 8.36688 11.8266 8.40613 11.8757L11.0728 15.209Z" fill="#EF4444"/>
</svg>
