<svg width="24" height="24" viewBox="0 0 24 24" fill="none" xmlns="http://www.w3.org/2000/svg">
<path d="M19 6.184V6C19 4.343 17.657 3 16 3C14.343 3 13 4.343 13 6H11C11 4.343 9.657 3 8 3C6.343 3 5 4.343 5 6V6.184C3.839 6.599 3 7.698 3 9V18C3 19.654 4.346 21 6 21H18C19.654 21 21 19.654 21 18V9C21 7.698 20.161 6.599 19 6.184ZM15 6C15 5.448 15.447 5 16 5C16.553 5 17 5.448 17 6V8C17 8.552 16.553 9 16 9C15.447 9 15 8.552 15 8V6ZM7 6C7 5.448 7.447 5 8 5C8.553 5 9 5.448 9 6V8C9 8.552 8.553 9 8 9C7.447 9 7 8.552 7 8V6ZM19 18C19 18.551 18.552 19 18 19H6C5.448 19 5 18.551 5 18V12H19V18Z" fill="#E7E7EA"/>
</svg>
