<svg width="24" height="24" viewBox="0 0 24 24" fill="none" xmlns="http://www.w3.org/2000/svg">
<path d="M20.4377 7.32573L20.4378 7.29468L20.2703 7.29415L20.2662 8.61369C19.8681 8.28409 19.4151 8.01228 18.9794 7.79561C17.8588 7.23833 16.6347 6.89739 15.3975 6.68885L15.3995 6.06162C16.0061 5.53833 16.5503 6.303 16.9524 5.54761C16.0077 5.56002 16.215 4.98173 15.4028 5.03158L15.4029 5.00053L15.2354 5L15.2302 6.66087C14.9289 6.61318 14.6266 6.57245 14.3234 6.53871C12.6378 6.35007 10.9168 6.36473 9.23622 6.59698C9.08099 6.61842 8.92542 6.64217 8.76966 6.66731L8.76442 5L8.59693 5.00053L8.59702 5.03158C7.78471 4.98173 7.99215 5.56006 7.0474 5.54761C7.44944 6.303 7.99369 5.53833 8.60024 6.06162L8.60231 6.69466C7.20628 6.9322 5.80612 7.33083 4.58408 8.043C4.30203 8.20736 4.00796 8.40533 3.73374 8.63359L3.72951 7.2941L3.56202 7.29463L3.56212 7.32568C2.74957 7.27578 2.95706 7.85416 2.01221 7.84176C2.41444 8.5971 2.95855 7.83253 3.56515 8.35582L3.56654 8.77892C2.97408 9.31831 2.5155 10.0081 2.55343 10.8174C2.59727 11.7543 3.14411 12.4829 3.8459 13.0407V14.3785C3.58414 14.155 3.3829 13.9244 3.25012 13.707C3.18413 13.6001 3.12713 13.4879 3.07969 13.3716C3.03989 13.2689 3.01181 13.178 2.99547 13.1028C2.97883 13.0276 2.96768 12.9688 2.96316 12.9289L2.95509 12.8682L2.95047 12.9293C2.94571 12.9891 2.94476 13.0492 2.94763 13.1092C2.95513 13.266 2.9822 13.5044 3.10133 13.783C3.15955 13.9222 3.23747 14.0715 3.33804 14.2241C3.43794 14.3772 3.56313 14.5308 3.70697 14.6848C3.75215 14.7325 3.79846 14.7792 3.84585 14.8247V16.0419C3.58409 15.8184 3.38285 15.5879 3.25007 15.3705C3.18409 15.2636 3.12708 15.1514 3.07965 15.0351C3.03984 14.9324 3.01177 14.8415 2.99542 14.7662C2.97879 14.6911 2.96763 14.6322 2.96311 14.5923L2.95504 14.5316L2.95042 14.5927C2.94566 14.6526 2.94472 14.7127 2.94759 14.7726C2.95509 14.9294 2.98215 15.1678 3.10138 15.4464C3.15959 15.5856 3.23752 15.7349 3.33809 15.8875C3.43799 16.0406 3.56318 16.1943 3.70701 16.3482C3.75218 16.3959 3.79846 16.4425 3.8458 16.488L3.88138 16.5217C4.14098 16.7673 4.45293 17.0044 4.80729 17.2243C5.02598 17.3601 5.26101 17.4887 5.50888 17.6114C5.75694 17.7336 6.01919 17.8467 6.29177 17.9545C6.83804 18.1668 7.42872 18.3492 8.04912 18.4938C8.35896 18.5677 8.67663 18.6301 8.99926 18.6851C9.01522 18.6878 9.03128 18.6902 9.04724 18.6929L9.13944 19.0001L9.33429 18.9417L9.52904 18.8832L8.83787 16.5812C10.9632 16.0414 13.0364 16.0414 15.1616 16.5812L14.4704 18.8831L14.6653 18.9417L14.86 19.0002L14.9522 18.693C14.9682 18.6903 14.9843 18.6879 15.0002 18.6851C15.3229 18.6301 15.6406 18.5677 15.9504 18.4938C16.5707 18.3493 17.1615 18.1668 17.7078 17.9545C17.9803 17.8467 18.2426 17.7337 18.4907 17.6114C18.7385 17.4887 18.9736 17.3601 19.1922 17.2243C19.5465 17.0045 19.8584 16.7673 20.1182 16.5218L20.1538 16.4881C20.2011 16.4426 20.2474 16.396 20.2925 16.3483C20.5824 16.0421 20.7849 15.7268 20.8989 15.4469C21.0162 15.1674 21.0464 14.93 21.0522 14.7727C21.0552 14.6935 21.0528 14.6327 21.0491 14.5928L21.0445 14.5317C21.0445 14.5317 21.0417 14.5523 21.0364 14.5924C21.0317 14.6328 21.0209 14.6913 21.0039 14.7662C20.9871 14.8414 20.9587 14.9321 20.9193 15.035C20.8787 15.1374 20.8226 15.2509 20.7486 15.3701C20.6663 15.501 20.5726 15.6243 20.4687 15.7387C20.3699 15.8461 20.2647 15.9474 20.1537 16.042V14.8247C20.2011 14.7792 20.2474 14.7326 20.2925 14.6848C20.5823 14.3786 20.785 14.0633 20.8989 13.7833C21.0161 13.5039 21.0464 13.2665 21.0521 13.1092C21.0552 13.03 21.0527 12.9692 21.0491 12.9293L21.0445 12.8682C21.0445 12.8682 21.0416 12.8888 21.0363 12.9289C21.0317 12.9693 21.0208 13.0278 21.0038 13.1027C20.9871 13.1779 20.9587 13.2686 20.9194 13.3714C20.8787 13.4739 20.8227 13.5874 20.7487 13.7066C20.6663 13.8374 20.5727 13.9608 20.4687 14.0752C20.3699 14.1826 20.2647 14.2839 20.1537 14.3785V13.0586C20.8631 12.4972 21.4096 11.7625 21.4646 10.813C21.4616 9.9789 21.0265 9.29817 20.4331 8.75882L20.4343 8.35577C21.041 7.83248 21.5851 8.59705 21.9873 7.84171C21.0425 7.85416 21.25 7.27578 20.4377 7.32573ZM15.4743 7.51937C16.2725 7.67047 17.058 7.88402 17.8126 8.17804C18.4857 8.44028 19.3131 8.82007 19.8963 9.37437L16.6917 11.3645C16.0569 10.8755 15.0388 10.4954 13.8175 10.3033L15.4743 7.51937ZM13.0659 7.23598C13.7011 7.27093 14.3396 7.33415 14.9724 7.43327L13.3049 10.2351C12.8715 10.1881 12.4358 10.1648 11.9998 10.165C11.5497 10.165 11.1126 10.1894 10.6946 10.2351L9.02676 7.43255C10.3602 7.22146 11.7184 7.16185 13.0659 7.23598ZM4.68691 8.92237C5.82641 8.16948 7.19023 7.76825 8.52525 7.51928L10.182 10.3032C8.96075 10.4954 7.94264 10.8755 7.30791 11.3645L4.10161 9.37321C4.28371 9.20567 4.4838 9.0565 4.68691 8.92237ZM6.10548 17.2301C5.72397 17.0998 5.36754 16.9556 5.04261 16.7983C4.82459 16.6948 4.62283 16.5825 4.43606 16.4679C4.39745 16.4442 4.35916 16.42 4.32121 16.3952V15.2285C4.47814 15.3466 4.64034 15.4575 4.80729 15.5609C5.02598 15.6967 5.26106 15.8253 5.50888 15.9481C5.69988 16.0422 5.89939 16.1308 6.10548 16.2158V17.2301ZM6.10548 15.5668C5.72397 15.4364 5.36745 15.2922 5.04251 15.1349C4.8245 15.0313 4.62283 14.919 4.43606 14.8045C4.39743 14.7808 4.35914 14.7566 4.32121 14.7318V13.3803C4.48759 13.4875 4.65773 13.5869 4.82815 13.6786C5.23856 13.8995 5.66652 14.0875 6.10548 14.2494V15.5668ZM5.68613 13.192C5.02256 12.8883 4.35246 12.5111 3.86503 11.9562C3.62971 11.6884 3.28834 11.1853 3.35838 10.7917C3.39246 10.6004 3.44645 10.2772 3.56774 10.0348C3.62716 9.92678 3.696 9.82477 3.77167 9.72785L6.94822 11.7006C6.72343 11.9621 6.59997 12.2454 6.59997 12.5414C6.59997 13.0068 6.90419 13.4407 7.42935 13.8072C6.83097 13.6486 6.24538 13.4479 5.68613 13.192ZM8.20156 17.7643C7.63386 17.6607 7.08946 17.5322 6.58074 17.3812V16.3987C7.04461 16.5654 7.53651 16.711 8.04907 16.8305C8.20382 16.8674 8.36055 16.9014 8.51881 16.9331L8.79778 17.8623C8.59678 17.832 8.3978 17.7991 8.20156 17.7643ZM17.4189 17.3812C16.9102 17.5323 16.3658 17.6607 15.798 17.7643C15.5996 17.7996 15.4009 17.8322 15.2017 17.8623L15.4807 16.9332C15.6379 16.9018 15.7945 16.8676 15.9505 16.8305C16.4632 16.7111 16.9551 16.5654 17.4189 16.3988V17.3812H17.4189ZM17.4189 15.7178C16.9102 15.8688 16.3658 15.9973 15.7981 16.101C15.6218 16.1322 15.4452 16.1615 15.2682 16.1888C13.0712 15.6296 10.9284 15.6296 8.73134 16.1888C8.55442 16.1615 8.37782 16.1322 8.20156 16.101C7.63376 15.9974 7.08946 15.8688 6.58074 15.7178V14.4135C7.54588 14.723 8.55433 14.9146 9.54803 15.0364C11.1962 15.2384 12.8758 15.2358 14.5235 15.0314C15.4966 14.9106 16.4775 14.721 17.4189 14.4202V15.7178ZM19.6784 16.3953C19.6404 16.4201 19.6021 16.4443 19.5635 16.468C19.3767 16.5825 19.175 16.6948 18.957 16.7984C18.632 16.9556 18.2755 17.0998 17.8941 17.2302V16.2158C18.1001 16.1308 18.2998 16.0423 18.4907 15.9481C18.7385 15.8254 18.9736 15.6968 19.1922 15.561C19.3592 15.4576 19.5214 15.3467 19.6784 15.2286V16.3953ZM19.6784 14.7318C19.6405 14.7566 19.6022 14.7808 19.5636 14.8045C19.3768 14.919 19.1751 15.0313 18.9571 15.1349C18.6321 15.2922 18.2756 15.4364 17.8941 15.5668V14.2566C18.2963 14.1091 18.69 13.9401 19.0705 13.7445C19.2785 13.6379 19.4814 13.5217 19.6784 13.3961V14.7318ZM20.6237 10.7889C20.6167 11.5122 19.968 12.1953 19.3333 12.6204C18.5083 13.1729 17.5604 13.5401 16.5876 13.7949C17.1021 13.431 17.3995 13.0015 17.3995 12.5414C17.3995 12.2454 17.2762 11.962 17.0514 11.7006L20.2177 9.7342C20.4452 10.0396 20.5961 10.3888 20.6237 10.7889Z" fill="#E7E7EA"/>
</svg>
