<svg width="25" height="24" viewBox="0 0 25 24" fill="none" xmlns="http://www.w3.org/2000/svg">
<path d="M9 7H16L17 9.5L15 17L14 19.5L15 21.5H10L11 19.5L10.5 18L8 10L9 7Z" fill="#C2C1C8"/>
<path fill-rule="evenodd" clip-rule="evenodd" d="M8.35969 14.3901L8.38333 14.3741C9.07103 16.3877 9.93464 17.8627 10.4678 18.7654C10.6423 19.0617 10.6905 19.3026 10.6296 19.479C10.4496 20.0035 9.94328 20.4126 9.39602 20.7035C9.08368 20.8681 8.7557 21.0012 8.41696 21.1007L8.40378 21.1044H8.40151L8.40196 21.1062L8.51559 21.9993H16.4844L16.5981 21.1062V21.1048L16.5962 21.1044L16.5831 21.1007C16.4899 21.0739 16.3976 21.0442 16.3063 21.0117C16.0651 20.926 15.8304 20.823 15.604 20.7035C15.0563 20.4126 14.5504 20.0035 14.3704 19.4794C14.3095 19.3022 14.3577 19.0617 14.5322 18.7658C15.0649 17.8627 15.929 16.3873 16.6167 14.3741L16.6403 14.3901C18.3516 11.8442 19.5234 8.8516 19.737 6.46122C19.8439 5.27035 19.718 4.16902 19.2393 3.34768C18.7407 2.49135 17.8917 2 16.7244 2C15.9172 2 15.3163 2.24272 14.9617 2.73043C14.6222 3.19769 14.5872 3.78494 14.6536 4.3022C14.7345 4.93536 14.9836 5.59079 15.2263 6.09078H9.77374C10.016 5.59079 10.2651 4.93536 10.3464 4.3022C10.4124 3.78494 10.3774 3.19769 10.0378 2.73043C9.68374 2.24272 9.08285 2 8.2756 2C7.10837 2 6.25976 2.49089 5.76068 3.34768C5.28206 4.16902 5.15616 5.27035 5.26297 6.46122C5.4766 8.8516 6.64838 11.8442 8.35969 14.3901ZM7.34154 8.83796C7.37745 9.65702 7.46108 10.4325 7.57972 11.1638C6.79701 9.48657 6.29521 7.79845 6.1684 6.37986C6.06931 5.27535 6.2034 4.39356 6.54566 3.8054C6.86838 3.25314 7.40245 2.90906 8.27606 2.90906C8.90876 2.90906 9.1783 3.09269 9.3033 3.26496C9.4442 3.45859 9.4992 3.76585 9.44557 4.18675C9.33739 5.02854 8.83649 5.98214 8.62423 6.2835L8.5415 6.40168V7.68163C8.5415 7.8539 8.45378 7.99753 8.27697 8.12798C8.10717 8.24738 7.9145 8.33033 7.71108 8.37161C7.60371 8.39194 7.50726 8.45027 7.4394 8.53592C7.37153 8.62156 7.33679 8.72879 7.34154 8.83796ZM9.45011 6.99984V7.68163C9.45011 8.23662 9.13739 8.62297 8.81468 8.86023C8.6465 8.98184 8.46274 9.0803 8.26833 9.15295C8.5515 13.6923 10.3533 16.7827 11.2505 18.3036C11.4705 18.6763 11.6809 19.2172 11.4896 19.7744C11.296 20.3389 10.8987 20.7698 10.4783 21.0903H14.5222C14.1009 20.7698 13.7041 20.3389 13.5104 19.7744C13.3191 19.2167 13.5295 18.6763 13.7495 18.3036C14.6468 16.7827 16.4485 13.6923 16.7317 9.1534C16.5373 9.08061 16.3535 8.982 16.1853 8.86023C15.8626 8.62297 15.5499 8.23662 15.5499 7.68163V6.99984H9.45011ZM17.6589 8.83796C17.6249 9.61723 17.5452 10.3938 17.4203 11.1638C18.203 9.48657 18.7048 7.79845 18.8316 6.37986C18.9307 5.27535 18.7966 4.39356 18.4544 3.8054C18.1316 3.25314 17.5976 2.90906 16.724 2.90906C16.0913 2.90906 15.8217 3.09269 15.6967 3.26496C15.5558 3.45859 15.5008 3.76585 15.5545 4.18675C15.6626 5.02854 16.1635 5.98214 16.3758 6.2835L16.4585 6.40168V7.68163C16.4585 7.8539 16.5462 7.99753 16.7231 8.12798C16.9067 8.26252 17.1394 8.34298 17.2889 8.37161C17.3963 8.39194 17.4928 8.45027 17.5606 8.53592C17.6285 8.62156 17.6637 8.72879 17.6589 8.83796Z" fill="#C2C1C8"/>
</svg>
