<svg width="36" height="36" viewBox="0 0 36 36" fill="none" xmlns="http://www.w3.org/2000/svg">
<path d="M27.828 16.5L13.192 16.5C9.65379 16.5 6.61906 19.246 6.50356 22.7823C6.38012 26.5615 9.48389 29.6474 13.2693 29.4946C15.7168 29.3957 17.8711 27.8294 18.9054 25.609C19.5924 24.1342 19.6162 22.7554 19.3191 21.5H26.628C26.8488 21.5 27.0434 21.3552 27.1069 21.1437L28.3069 17.1437C28.4031 16.8229 28.1629 16.5 27.828 16.5Z" fill="#E55A53" fill-opacity="0.48"/>
<path d="M18 10.5C17.7239 10.5 17.5 10.2761 17.5 10V7C17.5 6.72387 17.7239 6.5 18 6.5C18.2761 6.5 18.5 6.72387 18.5 7V10C18.5 10.2761 18.2761 10.5 18 10.5Z" fill="#EF4444"/>
<path d="M22.9497 12.5505C22.8218 12.5505 22.6938 12.5017 22.5962 12.4041C22.4009 12.2087 22.4009 11.8923 22.5962 11.697L24.7175 9.57568C24.9128 9.38037 25.2293 9.38037 25.4246 9.57568C25.6199 9.77099 25.6199 10.0874 25.4246 10.2827L23.3032 12.4041C23.2056 12.5017 23.0776 12.5505 22.9497 12.5505Z" fill="#EF4444"/>
<path d="M13.05 12.5505C12.9221 12.5505 12.7942 12.5017 12.6965 12.4041L10.5752 10.2827C10.3799 10.0874 10.3799 9.77099 10.5752 9.57568C10.7705 9.38037 11.0869 9.38037 11.2822 9.57568L13.4036 11.697C13.5989 11.8923 13.5989 12.2087 13.4036 12.4041C13.3059 12.5017 13.178 12.5505 13.05 12.5505Z" fill="#EF4444"/>
<path d="M13 26C11.3457 26 10 24.6543 10 23C10 21.3457 11.3457 20 13 20C14.6543 20 16 21.3457 16 23C16 24.6543 14.6543 26 13 26Z" fill="#EF4444"/>
</svg>
