<svg width="293" height="212" viewBox="0 0 293 212" fill="none" xmlns="http://www.w3.org/2000/svg">
<path d="M292.486 132.335V132.341C292.314 134.15 292.065 135.95 291.739 137.742C291.685 138.031 291.632 138.314 291.579 138.603H291.573C291.259 140.223 290.873 141.824 290.429 143.407C290.322 143.784 290.215 144.154 290.102 144.525C290.02 144.801 289.936 145.077 289.848 145.347C289.367 146.867 288.834 148.362 288.235 149.825C288.182 149.963 288.122 150.095 288.069 150.233C287.945 150.529 287.826 150.824 287.696 151.112C287.583 151.37 287.47 151.628 287.358 151.885H287.352C286.496 153.806 285.534 155.679 284.471 157.493C284.334 157.732 284.198 157.964 284.056 158.196C283.504 159.113 282.929 160.005 282.325 160.884C281.767 161.701 281.18 162.505 280.576 163.283V163.29C280.493 163.39 280.416 163.491 280.333 163.597C280.167 163.811 280.001 164.018 279.829 164.225C278.356 166.049 276.757 167.768 275.045 169.369H275.039C274.873 169.526 274.701 169.683 274.529 169.84C272.933 171.284 271.239 172.616 269.46 173.828C260.437 179.951 249.742 182.739 240.388 188.272C234.08 192.008 228.472 196.938 222.294 200.913C200.739 214.786 172.235 215.716 149.909 203.269C146.204 201.202 135.112 195.305 119.77 201.837C108.215 206.754 95.5526 207.74 83.109 208.468C66.6282 209.429 49.7088 210.095 34.0224 204.669C18.3302 199.256 3.90057 186.444 0.68742 169.344C-0.510087 162.969 -0.0772686 156.501 1.47595 150.233C1.4878 150.177 1.50556 150.12 1.51747 150.064C1.51972 150.061 1.52141 150.058 1.52243 150.055C1.52344 150.052 1.52376 150.048 1.52336 150.045L1.52924 150.039C2.41541 146.527 3.61172 143.102 5.10407 139.802C6.42409 136.844 7.9371 133.977 9.63331 131.217C10.1669 130.344 10.7142 129.484 11.2754 128.636C19.1305 116.786 29.3924 106.964 38.2435 95.9296C41.3439 92.0548 44.3911 87.7781 45.0729 82.7477C45.7665 77.7174 43.9939 72.7184 42.9861 67.7508C40.4724 55.354 42.8675 41.9335 49.4776 31.3578C57.718 18.1634 71.7859 10.0118 86.3162 6.25643C100.858 2.5072 116.017 2.70185 130.974 3.0975C138.954 3.30477 147.046 3.58737 154.67 6.09312C175.632 12.9823 188.698 34.8433 207.432 46.9387C223.48 57.2945 243.026 60.0578 259.406 69.8233C263.567 72.3116 267.451 75.238 270.99 78.5526C271.067 78.6217 271.144 78.6908 271.221 78.7661C271.381 78.9168 271.541 79.0676 271.701 79.2245C271.932 79.4444 272.163 79.6704 272.395 79.909H272.401C274.598 82.0684 276.646 84.3743 278.53 86.8109H278.536C278.744 87.0683 278.945 87.3321 279.141 87.5959C280.149 88.9272 281.109 90.2963 282.022 91.7031C282.176 91.9354 282.325 92.1678 282.479 92.4064V92.4127C282.882 93.0533 283.279 93.7001 283.664 94.3532C283.83 94.6296 283.99 94.9121 284.15 95.1948C285.372 97.3396 286.477 99.5492 287.458 101.814C287.589 102.109 287.713 102.404 287.838 102.7C288.724 104.83 289.498 107.006 290.156 109.218C290.251 109.52 290.334 109.821 290.417 110.123C291.017 112.23 291.504 114.368 291.875 116.528C291.928 116.836 291.982 117.144 292.029 117.451C292.13 118.111 292.225 118.77 292.308 119.436C292.474 120.799 292.598 122.168 292.664 123.543V123.581C292.705 124.202 292.729 124.818 292.741 125.44C292.786 127.741 292.701 130.043 292.486 132.335Z" fill="#E5E0F3" fill-opacity="0.2"/>
<path d="M283.438 115.704C282.456 125.961 278.441 135.693 271.904 143.657C261.904 155.699 247.404 158.438 234.33 165.738C228.355 169.079 223.044 173.486 217.193 177.041C196.778 189.444 169.782 190.274 148.637 179.146C145.128 177.299 134.623 172.027 120.092 177.866C109.149 182.262 97.1556 183.144 85.3702 183.795C69.7612 184.654 53.7367 185.249 38.8801 180.398C24.0178 175.558 10.3515 164.104 7.3083 148.815C6.17412 143.116 6.58403 137.333 8.0551 131.73C8.06633 131.679 8.08316 131.628 8.09439 131.578C8.10002 131.572 8.10002 131.567 8.10562 131.555C8.94843 128.406 10.0819 125.343 11.4913 122.403C12.746 119.751 14.1792 117.187 15.781 114.728C16.2863 113.948 16.8047 113.178 17.3362 112.42C24.7758 101.825 34.4949 93.0439 42.8778 83.1788C45.8143 79.7145 48.7003 75.8908 49.346 71.3934C50.0029 66.896 48.3241 62.4266 47.3696 57.9853C46.205 52.424 46.1486 46.6875 47.2035 41.1044C48.2585 35.5212 50.4042 30.2009 53.5177 25.4479C61.3222 13.6513 74.646 6.36328 88.4078 3.00567C102.181 -0.34637 116.538 -0.172242 130.704 0.181478C138.261 0.366802 145.925 0.619478 153.146 2.85974C173 9.01902 185.375 28.564 203.117 39.3781C218.316 48.6368 236.828 51.1073 252.342 59.8382C269.275 69.3679 282.064 87.5323 283.536 107.099C283.749 109.965 283.716 112.844 283.438 115.704Z" fill="#ECE4FF" fill-opacity="0.2"/>
<path d="M279.977 131.364C279.977 131.802 279.971 132.24 279.966 132.672C279.96 132.931 279.949 133.189 279.943 133.442C279.882 135.289 279.741 137.116 279.522 138.922C279.494 139.169 279.466 139.416 279.432 139.663C279.191 141.476 278.871 143.273 278.478 145.036C278.427 145.278 278.371 145.519 278.315 145.755C278.197 146.249 278.079 146.743 277.95 147.231C277.624 148.506 277.254 149.758 276.838 150.999C276.839 151.021 276.833 151.042 276.822 151.061C276.586 151.802 276.327 152.532 276.058 153.256C267.237 177.147 244.453 194.553 217.743 194.553H217.097C215.621 195.569 214.133 196.563 212.6 197.495C193.246 209.286 167.66 210.077 147.609 199.499C144.285 197.742 134.33 192.728 120.557 198.281C110.181 202.458 98.8115 203.3 87.6382 203.918C72.8433 204.732 57.6553 205.299 43.5679 200.689C32.7596 197.158 22.6137 189.92 17.1786 180.185C6.01655 168.292 1.28329 150.651 7.31913 133.593C7.39211 133.385 7.46516 133.183 7.54371 132.976C7.63916 132.717 7.7346 132.465 7.83568 132.206C7.92556 131.982 8.00977 131.785 8.09399 131.578C8.09612 131.575 8.09774 131.573 8.09871 131.57C8.09969 131.567 8.1 131.564 8.09962 131.561L8.10522 131.555C8.12768 131.493 8.15574 131.432 8.18377 131.364C13.2146 131.381 202.078 131.359 261.965 131.364H279.977Z" fill="url(#paint0_linear_24_6028)"/>
<g opacity="0.5">
<path opacity="0.7" d="M74.444 164.693C74.444 164.693 73.3046 160.436 69.4905 161.804L69.4886 161.802L69.4552 161.816C69.3043 161.871 69.1487 161.933 68.9883 162.008C68.9883 162.008 69.0188 162.096 69.0831 162.245L69.0928 162.269C69.4665 163.111 70.908 165.642 74.444 164.693Z" fill="#2E745C"/>
<path opacity="0.7" d="M73.8488 164.878C73.8488 164.878 74.6855 160.551 78.5864 161.647L78.5882 161.644L78.6225 161.656C78.7768 161.7 78.9364 161.751 79.1018 161.815C79.1018 161.815 79.0776 161.905 79.0238 162.057L79.0159 162.082C78.7023 162.948 77.4428 165.575 73.8488 164.878ZM23.8009 158.65C23.8009 158.65 22.6615 154.393 18.8475 155.761L18.8456 155.759L18.8121 155.773C18.6613 155.828 18.5058 155.89 18.3452 155.965C18.3452 155.965 18.3757 156.053 18.4401 156.202L18.4498 156.226C18.8235 157.068 20.265 159.599 23.8009 158.65Z" fill="#2E745C"/>
<path opacity="0.7" d="M23.2056 158.835C23.2056 158.835 24.0423 154.507 27.9431 155.604L27.945 155.601L27.9793 155.613C28.1336 155.657 28.2931 155.708 28.4586 155.772C28.4586 155.772 28.4343 155.862 28.3806 156.014L28.3727 156.039C28.0591 156.905 26.7996 159.532 23.2056 158.835ZM124.251 162.192C124.251 162.192 123.112 157.934 119.298 159.303L119.296 159.3L119.263 159.314C119.112 159.369 118.956 159.431 118.796 159.506C118.796 159.506 118.826 159.595 118.891 159.743L118.9 159.767C119.274 160.609 120.715 163.141 124.251 162.192Z" fill="#2E745C"/>
<path opacity="0.7" d="M123.657 162.378C123.657 162.378 124.494 158.05 128.394 159.147L128.396 159.144L128.43 159.156C128.585 159.2 128.744 159.251 128.91 159.314C128.91 159.314 128.886 159.405 128.832 159.557L128.824 159.582C128.51 160.448 127.251 163.075 123.657 162.378ZM103.837 174.78C103.837 174.78 103.062 171.885 100.469 172.816L100.468 172.814L100.445 172.823C100.342 172.861 100.237 172.903 100.127 172.954C100.127 172.954 100.148 173.014 100.192 173.115L100.199 173.131C100.453 173.704 101.433 175.425 103.837 174.78Z" fill="#2E745C"/>
<path opacity="0.7" d="M103.432 174.905C103.432 174.905 104.001 171.963 106.653 172.708L106.654 172.707L106.677 172.714C106.782 172.745 106.891 172.779 107.003 172.822C107.003 172.822 106.987 172.884 106.95 172.987L106.945 173.004C106.732 173.593 105.875 175.379 103.432 174.905ZM98.4954 154.869C98.4954 154.869 97.7207 151.975 95.1276 152.905L95.1263 152.903L95.1036 152.913C95.001 152.95 94.8953 152.993 94.7861 153.043C94.7861 153.043 94.8068 153.104 94.8506 153.204L94.8572 153.221C95.1114 153.793 96.0914 155.515 98.4954 154.869Z" fill="#2E745C"/>
<path opacity="0.7" d="M98.0904 154.994C98.0904 154.994 98.6593 152.052 101.311 152.798L101.313 152.796L101.336 152.804C101.441 152.834 101.549 152.869 101.662 152.912C101.662 152.912 101.645 152.973 101.609 153.077L101.603 153.094C101.39 153.682 100.534 155.469 98.0904 154.994ZM54.0238 153.67C54.0238 153.67 53.2491 150.775 50.6559 151.706L50.6547 151.704L50.6319 151.714C50.5293 151.751 50.4236 151.793 50.3145 151.844C50.3145 151.844 50.3352 151.904 50.379 152.005L50.3855 152.022C50.6397 152.594 51.6198 154.315 54.0238 153.67Z" fill="#2E745C"/>
<path opacity="0.7" d="M53.6196 153.796C53.6196 153.796 54.1885 150.854 56.8407 151.6L56.842 151.598L56.8653 151.606C56.9702 151.636 57.0786 151.671 57.1911 151.714C57.1911 151.714 57.1747 151.775 57.1381 151.879L57.1327 151.896C56.9195 152.484 56.0632 154.27 53.6196 153.796ZM172.427 166.076C172.427 166.076 171.584 162.924 168.76 163.937L168.759 163.935L168.734 163.945C168.622 163.986 168.507 164.032 168.388 164.088C168.388 164.088 168.411 164.153 168.459 164.263L168.466 164.281C168.742 164.904 169.81 166.778 172.427 166.076Z" fill="#2E745C"/>
<path opacity="0.7" d="M171.986 166.213C171.986 166.213 172.606 163.009 175.494 163.821L175.495 163.819L175.52 163.828C175.634 163.861 175.753 163.898 175.875 163.945C175.875 163.945 175.857 164.012 175.817 164.125L175.812 164.144C175.579 164.785 174.647 166.729 171.986 166.213ZM138.634 175.378C138.634 175.378 137.494 171.121 133.68 172.489L133.679 172.487L133.645 172.501C133.494 172.556 133.339 172.618 133.178 172.693C133.178 172.693 133.209 172.782 133.273 172.93L133.283 172.954C133.657 173.796 135.098 176.328 138.634 175.378Z" fill="#2E745C"/>
<path opacity="0.7" d="M138.039 175.563C138.039 175.563 138.875 171.235 142.776 172.332L142.778 172.329L142.812 172.341C142.967 172.385 143.126 172.436 143.292 172.5C143.292 172.5 143.267 172.59 143.214 172.742L143.206 172.767C142.892 173.633 141.633 176.26 138.039 175.563ZM252.403 154.262C252.403 154.262 251.264 150.004 247.45 151.373L247.448 151.37L247.415 151.384C247.264 151.439 247.108 151.501 246.948 151.576C246.948 151.576 246.978 151.665 247.043 151.813L247.052 151.837C247.426 152.679 248.867 155.211 252.403 154.262Z" fill="#2E745C"/>
<path opacity="0.7" d="M251.808 154.448C251.808 154.448 252.645 150.121 256.546 151.217L256.548 151.215L256.582 151.226C256.736 151.271 256.896 151.321 257.061 151.385C257.061 151.385 257.037 151.475 256.983 151.627L256.975 151.653C256.662 152.518 255.402 155.145 251.808 154.448ZM208.105 177.738C208.105 177.738 207.331 174.843 204.738 175.774L204.736 175.772L204.713 175.781C204.611 175.819 204.505 175.861 204.396 175.912C204.396 175.912 204.417 175.972 204.46 176.073L204.467 176.09C204.721 176.662 205.701 178.383 208.105 177.738Z" fill="#2E745C"/>
<path opacity="0.7" d="M207.7 177.863C207.7 177.863 208.269 174.921 210.922 175.666L210.923 175.665L210.946 175.673C211.051 175.703 211.16 175.737 211.272 175.78C211.272 175.78 211.256 175.842 211.219 175.946L211.214 175.963C211 176.551 210.144 178.337 207.7 177.863ZM190.3 152.768C190.3 152.768 189.525 149.873 186.932 150.803L186.93 150.802L186.908 150.811C186.805 150.849 186.699 150.891 186.59 150.942C186.59 150.942 186.611 151.002 186.655 151.103L186.661 151.119C186.916 151.692 187.896 153.413 190.3 152.768Z" fill="#2E745C"/>
<path opacity="0.7" d="M189.895 152.894C189.895 152.894 190.464 149.952 193.116 150.698L193.118 150.696L193.141 150.704C193.246 150.734 193.354 150.769 193.467 150.812C193.467 150.812 193.45 150.873 193.414 150.977L193.408 150.994C193.195 151.583 192.339 153.369 189.895 152.894ZM152.701 151.744C152.701 151.744 151.926 148.85 149.333 149.78L149.331 149.778L149.309 149.788C149.206 149.825 149.1 149.868 148.991 149.918C148.991 149.918 149.012 149.979 149.056 150.079L149.062 150.096C149.316 150.668 150.296 152.39 152.701 151.744Z" fill="#2E745C"/>
<path opacity="0.7" d="M152.296 151.868C152.296 151.868 152.865 148.926 155.517 149.672L155.518 149.67L155.542 149.678C155.647 149.708 155.755 149.743 155.867 149.786C155.867 149.786 155.851 149.847 155.814 149.951L155.809 149.968C155.596 150.557 154.74 152.343 152.296 151.868Z" fill="#2E745C"/>
</g>
<path d="M203.809 33.4825C204.02 32.8005 204.153 32.0964 204.203 31.384C204.362 29.17 203.694 26.9757 202.329 25.2255C201.273 23.8683 199.768 22.9319 198.084 22.5844C196.4 22.2368 194.647 22.5008 193.141 23.329C191.898 20.6263 189.507 18.5339 186.676 18.5339C185.789 18.5347 184.907 18.6676 184.059 18.9283C183.131 16.7996 181.275 15.1314 179.067 15.1314C177.467 15.1035 175.915 15.6755 174.717 16.7348C173.518 17.7941 172.759 19.2638 172.59 20.8546L171.197 20.9382C170.022 21.1896 168.943 21.7699 168.085 22.6115C166.79 23.9062 166.012 25.6293 165.898 27.457C165.895 27.5075 165.897 27.558 165.895 27.6077C165.192 27.2521 164.429 27.0328 163.646 26.9612C163.068 26.9956 162.49 27.0303 161.911 27.0652C160.704 27.3236 159.595 27.9197 158.714 28.7842C157.453 30.0462 156.67 31.707 156.499 33.4825H203.809ZM93.0059 20.6704C93.1337 20.2587 93.2136 19.8336 93.2441 19.4036C93.3399 18.067 92.9368 16.7424 92.1126 15.6859C91.4753 14.8666 90.5668 14.3013 89.5502 14.0915C88.5336 13.8817 87.4755 14.0411 86.5659 14.5411C85.816 12.9095 84.3727 11.6463 82.6633 11.6463C82.1278 11.6468 81.5953 11.7271 81.0834 11.8845C80.5234 10.5994 79.403 9.59239 78.07 9.59239C77.1045 9.57554 76.1676 9.92084 75.444 10.5603C74.7204 11.1997 74.2624 12.0869 74.1603 13.0472L73.3194 13.0978C72.61 13.2496 71.9584 13.5999 71.4405 14.1078C70.6588 14.8895 70.1894 15.9296 70.1205 17.033C70.1183 17.0634 70.1199 17.0939 70.1183 17.1239C69.6944 16.9093 69.2337 16.7769 68.7606 16.7337C68.4117 16.7544 68.0628 16.7753 67.7137 16.7964C66.9849 16.9524 66.3155 17.3123 65.7834 17.8342C65.0224 18.596 64.5498 19.5986 64.4463 20.6704H93.0059ZM142.051 51.1218C142.191 50.6682 142.28 50.1999 142.313 49.7261C142.419 48.2535 141.975 46.794 141.067 45.6299C140.364 44.7272 139.363 44.1044 138.243 43.8732C137.123 43.642 135.957 43.8176 134.955 44.3685C134.129 42.5708 132.539 41.179 130.655 41.179C130.065 41.1796 129.478 41.268 128.914 41.4415C128.297 40.0256 127.063 38.916 125.594 38.916C124.53 38.8974 123.498 39.2779 122.701 39.9825C121.904 40.687 121.399 41.6646 121.286 42.7226L120.36 42.7783C119.578 42.9455 118.86 43.3315 118.29 43.8912C117.429 44.7523 116.911 45.8984 116.835 47.1141C116.833 47.1476 116.835 47.1812 116.833 47.2143C116.366 46.9778 115.858 46.8319 115.337 46.7843C114.953 46.8072 114.568 46.8302 114.184 46.8534C113.381 47.0254 112.643 47.4219 112.057 47.9969C111.218 48.8363 110.698 49.9409 110.584 51.1218H142.051Z" fill="white"/>
<path opacity="0.69" d="M152.128 92.914C149.539 94.5244 146.702 95.6943 143.73 96.376C140.786 97.1031 137.709 97.1024 134.766 96.3738C133.316 95.9784 131.928 95.3841 130.641 94.6079C130.327 94.4025 130.005 94.2098 129.698 93.9948L128.795 93.3214C128.193 92.8182 127.54 92.3794 126.846 92.0121C126.658 91.9184 126.46 91.844 126.257 91.7898C126.145 91.7615 126.032 91.7431 125.917 91.7348C125.784 91.7311 125.652 91.7512 125.527 91.7943C125.399 91.8436 125.282 91.9203 125.187 92.0192C125.091 92.118 125.018 92.2366 124.973 92.3665C124.903 92.5774 124.865 92.7977 124.862 93.0199C124.877 93.8102 124.989 94.5957 125.197 95.3585C125.56 96.8584 126.024 98.3131 126.445 99.7756C126.911 101.209 127.255 102.678 127.474 104.169C127.516 104.524 127.518 104.883 127.478 105.239C127.473 105.386 127.437 105.531 127.371 105.663C127.305 105.795 127.212 105.911 127.097 106.003C126.818 106.132 126.5 106.148 126.21 106.047C125.862 105.952 125.525 105.822 125.204 105.659C123.871 104.997 122.688 104.045 121.445 103.15L119.594 101.798C118.97 101.356 118.33 100.937 117.699 100.505C115.177 98.7715 112.543 97.2072 109.814 95.8227L108.771 95.3417L108.25 95.1013C108.075 95.0241 107.895 94.9575 107.717 94.8851L106.651 94.4602L105.56 94.0974C105.198 93.9739 104.821 93.8964 104.452 93.794C104.082 93.6952 103.7 93.6475 103.325 93.5735C102.944 93.5268 102.561 93.5044 102.178 93.5066C101.795 93.4972 101.413 93.5621 101.055 93.6975C101.417 93.5778 101.798 93.5291 102.178 93.5542C102.558 93.568 102.936 93.606 103.31 93.6679C103.68 93.7549 104.056 93.8121 104.42 93.922C104.783 94.0353 105.153 94.1229 105.509 94.2567L106.578 94.6498L107.623 95.1045C107.797 95.1817 107.973 95.2532 108.144 95.3351L108.654 95.59L109.674 96.0994C112.36 97.5299 114.949 99.1357 117.424 100.906C118.044 101.348 118.672 101.777 119.285 102.229L121.119 103.589C122.344 104.48 123.545 105.466 124.949 106.174C125.307 106.359 125.683 106.506 126.071 106.613C126.175 106.634 126.277 106.657 126.382 106.675C126.492 106.682 126.6 106.696 126.713 106.695C126.957 106.695 127.196 106.629 127.406 106.506C127.617 106.375 127.784 106.184 127.885 105.957C127.979 105.757 128.041 105.543 128.069 105.324C128.118 104.921 128.12 104.514 128.075 104.111C127.863 102.58 127.521 101.07 127.051 99.5977C126.619 98.1319 126.147 96.6804 125.783 95.2166C125.585 94.5075 125.473 93.7771 125.45 93.0412C125.451 92.8815 125.475 92.7228 125.521 92.57C125.536 92.519 125.562 92.4719 125.597 92.4323C125.632 92.3926 125.676 92.3614 125.725 92.3409C125.78 92.3227 125.838 92.3136 125.896 92.314C125.972 92.3203 126.046 92.3327 126.12 92.351C126.285 92.3949 126.445 92.4549 126.599 92.5303C127.255 92.8753 127.875 93.2873 128.447 93.7597L129.382 94.4485C129.701 94.6687 130.035 94.8663 130.361 95.076C131.694 95.8732 133.138 96.4685 134.645 96.8426C137.665 97.534 140.809 97.4767 143.802 96.6756C145.287 96.2925 146.736 95.7812 148.132 95.1475C149.529 94.5259 150.866 93.7783 152.128 92.914Z" fill="white"/>
<path fill-rule="evenodd" clip-rule="evenodd" d="M281.724 125.626C281.106 127.705 280.36 129.744 279.489 131.73H8.05518C8.90373 128.519 10.0543 125.397 11.4914 122.403C12.7461 119.751 14.1793 117.187 15.7811 114.728C50.9799 116.356 219.299 123.251 283.913 109.562C284.021 114.998 283.282 120.418 281.724 125.626Z" fill="url(#paint1_linear_24_6028)"/>
<path fill-rule="evenodd" clip-rule="evenodd" d="M283.913 109.562C258.981 114.844 218.609 117.061 176.403 117.699C176.868 122.361 177.069 127.045 177.005 131.729H279.489C282.545 124.746 284.054 117.184 283.913 109.562Z" fill="url(#paint2_linear_24_6028)"/>
<path d="M283.913 109.562C283.902 109.006 283.879 108.456 283.84 107.9V108.035L274.121 106.519L274.143 100.972L283.239 102.42C283.194 102.145 283.144 101.87 283.093 101.595L274.143 100.281L274.155 94.745L281.712 95.8679C281.633 95.5984 281.555 95.3288 281.465 95.0594L274.155 94.0656L274.166 88.5182L279.27 89.2313C279.152 88.9674 279.034 88.7035 278.91 88.4396L274.177 87.8388L274.188 82.3139L275.777 82.5217C275.626 82.269 275.474 82.0163 275.317 81.7693L274.188 81.6345L274.194 80.0343V80.0287C274.048 79.8154 273.908 79.6075 273.762 79.3998L273.717 81.5727L263.503 80.3881L263.515 74.8181L271.033 75.7278C270.848 75.4919 270.657 75.2561 270.46 75.026H270.454L263.526 74.2848L263.537 68.7318L264.643 68.8553C264.424 68.642 264.205 68.4399 263.986 68.2433L263.531 68.1984V67.8335C263.458 67.7661 263.386 67.7043 263.313 67.6426L263.301 68.1704L259.416 67.7886C259.399 67.9457 259.377 68.1085 259.365 68.2658L263.296 68.7037L263.183 74.2455L259.068 73.802C259.068 73.9648 259.062 74.1276 259.062 74.2848L263.172 74.7789L263.049 80.3263L259.101 79.8603C259.107 80.0231 259.113 80.1859 259.118 80.3488L263.037 80.8597L262.925 86.4127L259.326 85.9579C259.337 86.1208 259.343 86.2836 259.348 86.452L262.914 86.946L262.785 92.5102L259.579 92.0724C259.584 92.2352 259.59 92.4036 259.596 92.5664L262.779 93.0437L262.667 98.6079L259.685 98.1756C259.685 98.3384 259.68 98.5068 259.68 98.6697L262.656 99.1413L262.526 104.706L259.624 104.256C259.624 104.419 259.618 104.588 259.618 104.75L262.521 105.239L262.403 110.826L259.506 110.343C259.506 110.506 259.5 110.668 259.495 110.837L262.397 111.348L262.268 116.934L259.365 116.424C259.36 116.592 259.354 116.755 259.348 116.918L262.257 117.468L262.145 123.055L259.236 122.516C259.231 122.684 259.225 122.847 259.225 123.015L262.133 123.588L262.01 129.186L259.163 128.63V129.13L261.999 129.719L261.965 131.364L261.886 135.312L259.174 134.761V135.255L261.875 135.845L261.746 141.454L259 140.865C258.989 141.027 258.972 141.19 258.961 141.353L261.74 141.988L261.622 147.591L258.096 146.805C258.063 146.957 258.023 147.114 257.979 147.265L261.617 148.124L261.611 148.237C262.19 148.366 262.768 148.478 263.346 148.602V148.534L265.25 148.989C265.721 149.079 266.193 149.174 266.664 149.259C269.781 149.854 272.902 150.398 276.03 150.926C276.294 150.971 276.558 151.016 276.822 151.061C276.833 151.042 276.839 151.021 276.838 150.999L276.215 150.859L274.014 150.37L274.025 144.784L278.315 145.755C278.371 145.519 278.427 145.278 278.478 145.036L274.042 144.082L274.048 141.252L274.054 138.495L275.687 138.849L279.432 139.663C279.466 139.416 279.494 139.169 279.522 138.922L276.08 138.22L274.054 137.804L274.065 132.218L278.809 133.206H278.815L279.943 133.442C279.949 133.189 279.96 132.931 279.966 132.673L279.135 132.515L274.065 131.527V131.364L274.076 125.957L281.173 127.361C281.257 127.12 281.336 126.873 281.414 126.625L274.087 125.267L274.098 119.691L282.807 121.331H282.813C282.863 121.073 282.914 120.82 282.964 120.562L274.098 119.012L274.11 113.442L283.683 115.155L283.672 115.727C283.875 113.679 283.956 111.62 283.913 109.562ZM263.509 80.9215L273.689 82.2465L273.576 87.7658L263.498 86.4856L263.509 80.9215ZM263.487 87.0302L273.565 88.434L273.453 93.9701L263.475 92.6057L263.487 87.0302ZM263.481 93.1504L273.43 94.6383L273.312 100.163L263.464 98.7258L263.481 93.1504ZM263.458 99.2704L273.301 100.831L273.178 106.373L263.447 104.852L263.458 99.2704ZM263.447 105.402L273.166 107.047L273.054 112.589L263.436 110.994L263.447 105.402ZM263.425 111.533L273.037 113.257L272.914 118.804L263.414 117.131L263.425 111.533ZM263.419 117.687L272.902 119.472L272.79 125.025L263.408 123.285L263.419 117.687ZM263.397 123.841L272.779 125.693L272.65 131.258L263.386 129.45L263.397 123.841ZM272.262 149.983L267.153 148.837H267.147L263.341 147.978L263.357 142.352L271.684 144.239L272.375 144.396L272.262 149.983ZM272.392 143.402L272.386 143.728L272.161 143.677L263.363 141.797L263.374 136.176L272.515 138.164L272.392 143.397V143.402ZM272.639 131.926L272.526 137.496L263.374 135.62L263.386 131.364V130.006L269.932 131.364L272.639 131.926ZM274.11 112.763L274.121 107.21L283.812 108.838L283.7 114.352L274.11 112.763Z" fill="#F7F5F0"/>
<path fill-rule="evenodd" clip-rule="evenodd" d="M277.95 147.232C277.424 149.272 276.792 151.282 276.058 153.257L181.567 138.462L6.76807 135.215C6.84105 135.007 6.914 134.805 6.99265 134.598L181.567 135.503L277.95 147.232Z" fill="white"/>
<path d="M259.688 146.936L262.314 62.0586C262.314 62.0586 259.627 60.0027 257.061 61.7751L253.161 146.936C253.161 146.936 255.141 150.78 259.688 146.936Z" fill="#EDE7DF"/>
<path d="M228.968 154.596C227.773 155.101 226.62 155.697 225.517 156.38C227.848 159.015 229.813 161.052 229.813 161.052L231.922 159.419C231.922 159.419 230.565 157.222 228.968 154.596Z" fill="#FFBB7A"/>
<path d="M231.83 158.465C231.83 158.465 231.357 159.993 229.94 160.103C228.522 160.213 228.853 160.954 228.853 160.954C228.853 160.954 227.436 164.465 226.333 164.922C225.231 165.379 227.247 166.135 228.412 165.552C229.577 164.969 230.223 163.095 231.168 162.371C232.113 161.646 234.554 161.048 233.735 160.339C232.916 159.631 232.617 158.15 231.83 158.465Z" fill="#07223D"/>
<path d="M262.869 154.095C261.574 154.061 261.261 154.783 259.986 154.949C261.109 156.979 262.473 158.865 264.048 160.568L266.65 159.908C266.65 159.908 264.799 156.923 262.869 154.095Z" fill="#FFBB7A"/>
<path d="M266.388 159.137C266.388 159.137 265.345 160.349 264.001 159.884C262.657 159.42 262.665 160.23 262.665 160.23C262.665 160.23 259.964 162.885 258.771 162.864C257.578 162.842 259.125 164.34 260.426 164.271C261.727 164.202 263.067 162.741 264.222 162.454C265.378 162.167 267.855 162.592 267.387 161.616C266.919 160.639 267.235 159.162 266.388 159.137Z" fill="#07223D"/>
<path d="M197.529 92.498L193.396 96.2418L180.682 93.1999L179.902 95.3061L193.63 101.935L201.273 96.0858L197.529 92.498Z" fill="#FAA18E"/>
<path d="M215.16 114.352L246.589 141.87L261.06 158.059C261.06 158.059 266.01 158.483 265.542 156.143C265.074 153.803 254.544 138.069 254.544 138.069L241.184 115.429C241.184 115.429 245.419 105.133 237.229 103.145L215.16 114.352Z" fill="#643091"/>
<path d="M202.989 83.1055L195.735 92.71C195.735 92.71 200.415 98.5033 201.975 97.4114C203.535 96.3194 208.371 91.4836 208.371 91.4836L202.989 83.1055Z" fill="#9D6DC9"/>
<path d="M222.488 101.936C221.552 103.105 199.206 129 200.61 132.042C202.014 135.084 227.636 158.951 227.636 158.951C227.636 158.951 230.795 159.419 230.795 157.781C230.795 156.143 215.675 132.861 215.675 132.861L232.199 120.811C232.199 120.811 246.238 110.632 239.218 103.145L222.488 101.936Z" fill="#713999"/>
<path d="M205.095 81.3439C205.095 81.3439 215.585 77.912 220.87 79.1599C226.154 80.4079 241.519 98.113 239.218 103.144C236.918 108.174 223.161 106.116 223.161 106.116C223.161 106.116 194.332 85.7116 205.095 81.3439Z" fill="#8B5DBA"/>
<path d="M212.445 97.5488L208.761 103.447L186.766 104.431V106.533C186.766 106.533 207.357 109.891 210.165 109.267C212.973 108.643 216.249 101.936 216.249 101.936L212.445 97.5488Z" fill="#FAA18E"/>
<path d="M204.194 73.1395C204.194 73.1395 196.956 70.5488 199.958 66.346C202.455 62.8495 207.989 65.3993 207.989 65.3993C207.989 65.3993 219.514 66.3193 210.896 77.2146C208.371 80.4072 204.194 73.1395 204.194 73.1395Z" fill="#201C50"/>
<path d="M215.235 83.2164C212.066 86.1306 209.463 99.4396 209.463 99.4396L216.951 103.144C216.951 103.144 223.212 92.0237 223.97 87.8962C224.418 85.4594 221.528 77.4276 215.235 83.2164Z" fill="#9D6DC9"/>
<path d="M206.187 78.1463L208.371 81.7341C208.371 81.7341 209.775 84.932 212.115 83.5281C214.455 82.1241 212.739 80.3302 212.739 80.3302L210.321 77.2104C209.736 75.991 209.442 74.6522 209.463 73.2999C209.463 71.8489 210.901 70.0828 209.463 70.0478C208.536 70.0251 208.371 70.4256 208.371 70.4256C208.371 70.4256 207.043 66.5818 203.109 67.6219C200.164 68.4003 202.342 74.7978 203.561 76.6661C205.144 79.0918 206.187 78.1463 206.187 78.1463Z" fill="#FAA18E"/>
<path d="M206.187 78.1461C206.187 78.1461 207.969 77.378 208.371 77.7849C208.773 78.192 207.562 80.4053 207.491 80.2879C207.419 80.1705 206.187 78.1461 206.187 78.1461Z" fill="#EA9081"/>
<path d="M179.902 95.3046C179.902 95.3046 176.271 96.959 176.271 96.145C176.271 95.331 177.618 94.7697 177.945 94.2232C178.798 92.797 177.685 90.5376 176.418 87.3721C175.152 84.2068 181.631 89.3557 181.076 93.293L179.902 95.3046ZM187.509 104.397H185.677C185.677 104.397 183.846 102.9 183.507 103.445C183.168 103.991 184.049 104.669 184.049 104.669C184.049 104.669 177.877 105.958 179.166 106.84C180.454 107.722 185.82 107.446 186.766 106.532C187.044 106.256 187.255 105.92 187.383 105.55C187.512 105.18 187.555 104.786 187.509 104.397Z" fill="#FAA18E"/>
<path d="M208.371 72.9492C208.371 72.9492 207.262 74.7754 206.662 75.6635C206.662 75.6635 204.249 75.0422 203.02 75.6635C201.792 76.2847 204.701 79.2866 205.696 78.6196C206.691 77.9525 209.48 74.3501 208.371 72.9492ZM181.663 93.3941L180.576 95.6306C180.576 95.6306 175.326 97.5776 175.659 96.3706C175.993 95.1636 177.861 93.6794 177.861 93.6794C177.861 93.6794 175.326 86.6248 176.093 85.6908C176.86 84.7569 181.33 88.8228 181.663 93.3941Z" fill="#201C50"/>
<path d="M181.663 93.3945L182.505 93.6357C182.505 93.6357 181.905 96.4707 181.11 96.098C180.315 95.7252 180.362 95.5643 180.362 95.5643C180.362 95.5643 180.595 93.8932 181.663 93.3945Z" fill="#713999"/>
<path d="M186.083 104.12C186.083 104.12 183.552 102.519 183.258 103.152C182.964 103.786 183.715 104.653 183.715 104.653C183.715 104.653 178.028 105.504 178.561 106.938C179.095 108.372 186.199 108.156 186.867 106.454C187.534 104.753 186.083 104.12 186.083 104.12Z" fill="#201C50"/>
<path d="M186.083 104.135C186.083 104.135 185.999 106.434 186.766 106.876C187.534 107.317 187.784 104.419 187.184 104.135C187.012 104.051 186.824 104.008 186.633 104.008C186.442 104.008 186.254 104.051 186.083 104.135Z" fill="#713999"/>
<path d="M221.326 113.244L217.773 117.687L216.516 116.682L219.293 113.21L218.467 112.55L219.244 111.579L221.326 113.244ZM227.914 107.896C226.921 110.326 225.505 112.555 223.989 114.69C222.439 116.807 220.739 118.81 218.903 120.683C217.971 121.605 217.033 122.522 216.035 123.371C215.539 123.798 215.064 124.249 214.55 124.655L213.023 125.89C212.025 126.736 210.942 127.474 209.917 128.286C208.866 129.064 207.779 129.792 206.723 130.565L206.757 130.418C208.31 132.95 209.986 135.409 211.69 137.842C213.387 140.282 215.186 142.647 216.995 145.002C218.814 147.35 220.71 149.638 222.656 151.881C224.595 154.134 226.651 156.279 228.737 158.402L228.702 158.44C226.498 156.439 224.344 154.372 222.345 152.159C221.833 151.618 221.343 151.056 220.852 150.496C220.363 149.934 219.859 149.383 219.382 148.81C218.432 147.662 217.483 146.512 216.57 145.333C214.722 142.994 212.99 140.565 211.306 138.107C209.635 135.639 208.055 133.113 206.566 130.529L206.515 130.44L206.601 130.382C207.681 129.65 208.76 128.915 209.821 128.156L211.372 126.961C211.889 126.564 212.405 126.164 212.895 125.733C213.887 124.886 214.875 124.034 215.808 123.123C216.773 122.246 217.662 121.292 218.587 120.376C220.393 118.501 222.092 116.525 223.675 114.459C224.462 113.422 225.229 112.368 225.923 111.266C226.64 110.178 227.289 109.046 227.866 107.877L227.914 107.896Z" fill="white"/>
<path d="M228.97 36.5428C230.195 36.4891 231.423 36.5472 232.637 36.7162C233.828 36.8722 235.01 37.0947 236.176 37.3827C237.337 37.6704 238.485 38.0054 239.611 38.4019C240.749 38.7751 241.85 39.2563 242.896 39.8387C245.005 41.0117 246.911 42.6096 249.008 43.7019C250.057 44.2501 251.138 44.7365 252.244 45.1587C253.351 45.5863 254.502 45.9338 255.663 46.2817C256.244 46.4534 256.824 46.6343 257.401 46.8242L258.267 47.1104C258.55 47.219 258.836 47.3204 259.116 47.4356C260.237 47.889 261.332 48.4046 262.396 48.9799C264.55 50.1064 266.6 51.4192 268.525 52.9033C270.448 54.4191 272.242 56.0928 273.887 57.9069C275.53 59.7432 276.946 61.7708 278.104 63.946C278.248 64.2272 278.29 64.5498 278.223 64.8586C278.156 65.1674 277.984 65.4433 277.736 65.6393C277.488 65.8353 277.179 65.9392 276.863 65.9332C276.547 65.9273 276.243 65.8119 276.003 65.6067L275.972 65.5798C274.207 64.0707 272.522 62.5758 270.765 61.1552C269.003 59.741 267.214 58.3729 265.394 57.0348C263.561 55.7107 261.741 54.3573 259.9 52.9938C258.967 52.3285 258.035 51.6587 257.118 50.945C256.209 50.2187 255.304 49.4671 254.389 48.716C252.591 47.203 250.55 46.0037 248.354 45.1686C246.164 44.339 243.723 44.1474 241.442 43.6474C240.309 43.3978 239.196 43.0662 238.112 42.6552C237.023 42.2685 235.943 41.8551 234.872 41.4148C233.798 40.9816 232.732 40.5125 231.675 40.0073C230.602 39.5047 229.557 38.9438 228.544 38.3273L228.517 38.3103C228.345 38.2025 228.212 38.0428 228.136 37.8543C228.061 37.6657 228.047 37.458 228.098 37.2613C228.148 37.0645 228.26 36.8889 228.416 36.7597C228.573 36.6306 228.767 36.5546 228.97 36.5428Z" fill="#E5E0F3"/>
<path d="M179.902 136.112H180.88V112.15L179.902 136.112Z" fill="#EDE5DA"/>
<path d="M180.88 112.15C182.758 113.066 184.824 113.526 186.912 113.495L190.172 113.373C190.172 113.373 183.937 119.241 180.88 117.326V112.15Z" fill="url(#paint3_linear_24_6028)"/>
<path fill-rule="evenodd" clip-rule="evenodd" d="M87.4473 95.5879L110.286 103.671L125.327 113L123.427 116.039L84.0063 109.832L87.4473 95.5879Z" fill="#FF97A6"/>
<path fill-rule="evenodd" clip-rule="evenodd" d="M142.937 113.655C142.958 113.54 142.951 113.421 142.918 113.309C142.884 113.196 142.824 113.093 142.743 113.009C142.662 112.924 142.562 112.86 142.451 112.821C142.341 112.782 142.222 112.77 142.106 112.786C142.097 112.787 142.087 112.788 142.077 112.789C141.767 112.847 141.474 112.978 141.223 113.171C140.768 113.504 140.386 113.944 139.913 114.247C138.97 114.889 137.84 115.196 136.702 115.119C136.555 115.098 136.421 115.019 136.331 114.901C136.29 114.842 136.245 114.786 136.196 114.735C136.173 114.701 136.144 114.673 136.11 114.651C136.076 114.629 136.038 114.615 135.998 114.608C135.958 114.601 135.917 114.602 135.878 114.611C135.839 114.621 135.802 114.638 135.769 114.661C135.676 114.731 135.596 114.817 135.533 114.915C135.468 115.012 135.37 115.082 135.257 115.112C135.106 115.13 134.967 115.201 134.863 115.312C134.76 115.424 134.7 115.568 134.694 115.72C134.689 115.756 134.681 115.788 134.675 115.819C134.698 115.847 134.714 115.88 134.721 115.916C134.728 115.951 134.727 115.988 134.716 116.023C134.423 117.16 133.923 118.609 132.928 119.332C132.96 119.372 132.991 119.413 133.019 119.455C133.347 120.054 133.707 120.635 134.097 121.195C134.263 121.389 134.46 121.554 134.679 121.685C134.872 121.808 135.08 121.916 135.279 122.018C135.469 122.121 135.686 122.159 135.9 122.129C136.113 122.099 136.311 122.001 136.465 121.85C136.475 121.841 136.484 121.831 136.494 121.822L136.67 121.992C136.69 122.012 136.714 122.027 136.74 122.038C136.767 122.048 136.795 122.053 136.824 122.053C136.852 122.052 136.88 122.046 136.906 122.035C136.932 122.024 136.956 122.008 136.976 121.987C136.995 121.967 137.011 121.943 137.021 121.916C137.032 121.89 137.037 121.862 137.037 121.833C137.036 121.805 137.03 121.777 137.019 121.751C137.008 121.725 136.991 121.701 136.971 121.681L136.806 121.52C136.902 121.427 137 121.335 137.094 121.24L137.263 121.404C137.304 121.444 137.359 121.466 137.417 121.465C137.474 121.464 137.529 121.441 137.569 121.399C137.609 121.358 137.631 121.303 137.63 121.245C137.629 121.188 137.606 121.133 137.565 121.093L137.397 120.93C137.483 120.841 137.57 120.752 137.655 120.663L137.824 120.826C137.865 120.866 137.92 120.888 137.977 120.888C138.035 120.887 138.09 120.863 138.13 120.822C138.17 120.781 138.192 120.726 138.191 120.668C138.19 120.611 138.167 120.556 138.125 120.516L137.918 120.314C137.943 120.253 137.972 120.192 138.005 120.135C138.096 119.953 138.211 119.784 138.347 119.633C138.573 119.422 138.8 119.214 139.029 119.008C139.034 119.015 139.039 119.023 139.045 119.03L139.284 119.262C139.304 119.282 139.328 119.297 139.355 119.308C139.381 119.318 139.409 119.323 139.438 119.323C139.466 119.323 139.494 119.317 139.52 119.305C139.547 119.294 139.57 119.278 139.59 119.257C139.61 119.237 139.625 119.213 139.636 119.186C139.646 119.16 139.652 119.132 139.651 119.103C139.651 119.075 139.645 119.047 139.633 119.021C139.622 118.994 139.606 118.971 139.585 118.951L139.347 118.721C139.451 118.627 139.555 118.533 139.659 118.44L139.877 118.651C139.897 118.671 139.921 118.686 139.947 118.697C139.974 118.707 140.002 118.713 140.03 118.712C140.059 118.712 140.087 118.706 140.113 118.695C140.139 118.683 140.163 118.667 140.182 118.647C140.202 118.626 140.218 118.602 140.228 118.576C140.239 118.55 140.244 118.521 140.244 118.493C140.243 118.465 140.237 118.437 140.226 118.41C140.215 118.384 140.199 118.361 140.178 118.341L139.979 118.147C140.071 118.064 140.163 117.98 140.254 117.895L140.438 118.074C140.458 118.094 140.482 118.11 140.508 118.12C140.535 118.131 140.563 118.136 140.592 118.136C140.62 118.135 140.648 118.129 140.674 118.118C140.7 118.107 140.724 118.09 140.744 118.07C140.764 118.049 140.779 118.025 140.79 117.999C140.8 117.972 140.805 117.944 140.805 117.916C140.804 117.887 140.798 117.859 140.787 117.833C140.776 117.807 140.759 117.783 140.739 117.764L140.57 117.6C140.768 117.413 140.964 117.226 141.156 117.033C141.288 116.899 141.412 116.758 141.528 116.61L141.698 116.776C141.739 116.816 141.794 116.838 141.852 116.837C141.909 116.836 141.963 116.812 142.003 116.771C142.043 116.73 142.065 116.675 142.065 116.618C142.064 116.56 142.04 116.506 142 116.466L141.788 116.259C141.863 116.148 141.935 116.035 142.004 115.92C142.009 115.928 142.014 115.936 142.019 115.943L142.259 116.176C142.279 116.196 142.303 116.211 142.33 116.222C142.356 116.232 142.384 116.237 142.413 116.237C142.441 116.236 142.469 116.23 142.495 116.219C142.521 116.207 142.545 116.191 142.565 116.17C142.584 116.152 142.6 116.13 142.611 116.106C142.621 116.081 142.626 116.055 142.626 116.028C142.626 116.001 142.62 115.975 142.608 115.951C142.597 115.927 142.581 115.905 142.561 115.888L142.321 115.655C142.29 115.616 142.245 115.59 142.195 115.582C142.437 115.115 142.653 114.635 142.84 114.144C142.897 113.987 142.93 113.822 142.937 113.655Z" fill="#939598"/>
<path fill-rule="evenodd" clip-rule="evenodd" d="M135.315 116.329L124.268 112.008C124.268 112.008 122.063 116.411 122.6 116.844C123.137 117.275 133.648 119.561 133.648 119.561L135.315 116.329Z" fill="#FBBA4B"/>
<path fill-rule="evenodd" clip-rule="evenodd" d="M132.928 119.334C132.96 119.373 132.991 119.414 133.019 119.456C133.347 120.055 133.707 120.636 134.097 121.196C134.263 121.39 134.46 121.555 134.679 121.686C134.857 121.748 135.048 121.759 135.231 121.718C135.414 121.677 135.582 121.586 135.717 121.455C136.181 121.028 136.618 120.572 137.054 120.116C137.134 119.997 137.202 119.87 137.257 119.738C137.349 119.556 137.464 119.388 137.6 119.236C138.531 118.366 139.509 117.539 140.409 116.637C141.211 115.831 141.68 114.797 142.092 113.748C142.15 113.591 142.182 113.427 142.188 113.26C142.202 113.098 142.173 112.935 142.106 112.787C142.097 112.788 142.087 112.789 142.077 112.79C141.767 112.848 141.474 112.979 141.223 113.172C140.768 113.505 140.386 113.945 139.913 114.248C138.97 114.89 137.84 115.197 136.702 115.12C136.555 115.099 136.421 115.02 136.331 114.902C136.29 114.843 136.245 114.787 136.196 114.736C136.115 114.734 136.035 114.731 135.954 114.724C135.889 114.716 135.826 114.695 135.769 114.662C135.676 114.732 135.596 114.818 135.533 114.916C135.468 115.013 135.37 115.083 135.257 115.113C135.106 115.131 134.967 115.202 134.863 115.313C134.76 115.425 134.7 115.569 134.694 115.721C134.689 115.757 134.681 115.789 134.675 115.82C134.698 115.848 134.714 115.881 134.721 115.917C134.728 115.952 134.727 115.989 134.716 116.024C134.423 117.161 133.923 118.61 132.928 119.334Z" fill="#07223D"/>
<g style="mix-blend-mode:multiply" opacity="0.18">
<path d="M89.7349 105.814L106.216 108.288L122.632 115.915L105.376 113.198L89.7349 110.735V105.814Z" fill="#000107"/>
</g>
<path d="M67.3496 93.2254C67.3496 93.2254 68.5131 109.784 73.3763 110.376C78.2395 110.967 90.0672 113.28 91.4564 112.149C92.8455 111.017 94.9002 101.251 96.3762 97.3889C96.3762 97.3889 83.7717 95.8216 79.3735 90.3697C74.9753 84.9178 67.3496 93.2254 67.3496 93.2254Z" fill="#298269"/>
<path fill-rule="evenodd" clip-rule="evenodd" d="M82.0174 133.993C76.8052 141.084 56.2617 123.248 56.2617 123.248V119.594L57.83 119.816L70.7752 121.633L69.3621 118.543L63.9222 106.68L81.712 116.172C81.712 116.172 87.2296 126.902 82.0174 133.993Z" fill="#FF97A6"/>
<path d="M83.9946 118.729C80.418 120.251 73.2596 119.21 69.7037 118.548C68.4149 118.304 67.5971 118.113 67.5971 118.113C67.5971 118.113 68.0888 114.071 62.126 108.325C58.1561 104.5 59.067 99.0705 60.1178 95.8717C60.4068 94.9625 60.7686 94.078 61.1996 93.2268L69.3828 91.1409L72.6696 90.3075L77.4004 89.1016C77.4004 89.1016 77.8041 96.1099 82.3538 105.09C86.9036 114.071 83.9946 118.729 83.9946 118.729Z" fill="#35967D"/>
<g style="mix-blend-mode:multiply" opacity="0.18">
<path d="M77.2245 90.9701C77.2245 90.9701 76.1426 93.2837 71.4066 95.5871C66.6758 97.8955 61.8155 99.0654 63.596 103.858C65.33 108.512 72.2658 116.436 69.7037 118.548C68.4149 118.304 67.5971 118.113 67.5971 118.113C67.5971 118.113 68.0888 114.071 62.126 108.325C58.1561 104.5 59.067 99.0706 60.1178 95.8717C63.0028 93.9248 66.114 92.3362 69.3828 91.1409C70.4514 90.7658 71.5514 90.487 72.6696 90.3075C74.4397 90.0436 76.0495 90.173 77.2245 90.9701Z" fill="#000107"/>
</g>
<path d="M80.4152 110.657C80.6802 110.837 80.9069 111.068 81.0822 111.336C81.2575 111.604 81.378 111.904 81.4366 112.219C81.5725 112.695 81.5876 113.197 81.4804 113.68C81.3801 114.105 81.1534 114.49 80.8303 114.784C80.4794 115.095 80.0568 115.313 79.6004 115.421C79.3461 115.487 79.0845 115.522 78.8216 115.524C78.5916 115.53 78.3622 115.498 78.1421 115.432L78.3796 114.359C78.6781 114.462 79.0014 114.468 79.304 114.378C79.6035 114.315 79.8682 114.141 80.0451 113.892C80.2107 113.623 80.2671 113.301 80.2025 112.992C79.9666 113.306 79.6246 113.523 79.2403 113.603C78.9608 113.678 78.6674 113.686 78.3841 113.627C78.115 113.571 77.8663 113.443 77.6651 113.256C77.4594 113.063 77.3148 112.813 77.2494 112.539C77.1674 112.243 77.1774 111.928 77.2779 111.637C77.3797 111.35 77.5589 111.097 77.7956 110.906C78.1632 110.619 78.605 110.443 79.0691 110.399C79.5332 110.355 80.0002 110.444 80.4152 110.657ZM79.7367 112.289C79.7793 112.218 79.8074 112.14 79.8196 112.059C79.8317 111.978 79.8276 111.895 79.8075 111.815C79.7873 111.735 79.7516 111.66 79.7023 111.595C79.6529 111.529 79.5911 111.473 79.5202 111.432C79.3586 111.352 79.1723 111.337 79.0001 111.391C78.8307 111.427 78.6815 111.527 78.5832 111.669C78.538 111.74 78.5088 111.819 78.4974 111.902C78.4861 111.985 78.493 112.069 78.5176 112.149C78.5348 112.23 78.5694 112.306 78.619 112.372C78.6686 112.438 78.732 112.493 78.8048 112.532C78.9648 112.602 79.1439 112.616 79.313 112.572C79.4821 112.528 79.6314 112.428 79.7367 112.289ZM68.495 94.8413C68.2574 95.9075 68.2223 97.0088 68.3916 98.0879C68.5441 99.161 68.8035 100.216 69.1657 101.238C69.4977 102.275 69.9256 103.279 70.4439 104.237C70.9784 105.181 71.57 106.091 72.2156 106.963C72.8507 107.84 73.4915 108.717 74.0656 109.653C74.6724 110.585 75.1783 111.579 75.5746 112.618C75.9614 113.689 76.1592 114.819 76.1592 115.958C76.1165 117.082 75.8749 118.189 75.4458 119.229L75.3971 119.21C75.6627 118.15 75.783 117.058 75.7545 115.965C75.6823 114.892 75.4485 113.837 75.061 112.834C74.3089 110.82 73.0907 109.013 71.9837 107.137L70.3005 104.33C69.714 103.396 69.2005 102.418 68.7647 101.406C68.3418 100.361 68.0815 99.2579 67.9928 98.1345C67.8749 97.0086 68.031 95.8709 68.4479 94.8184L68.495 94.8413Z" fill="white"/>
<path fill-rule="evenodd" clip-rule="evenodd" d="M84.4516 65.8301L95.2579 71.7804V73.6343L80.7905 74.9502L84.4516 65.8301Z" fill="#FF97A6"/>
<path fill-rule="evenodd" clip-rule="evenodd" d="M63.9222 61.4141C63.1391 61.7497 53.7703 69.3791 51.8389 72.5277C49.1003 76.9925 48.5952 93.226 48.5952 93.226H49.7132L57.5931 78.6253L63.9222 72.304V61.4141Z" fill="#FF97A6"/>
<path d="M77.0743 89.9869C78.4941 90.5685 79.7644 91.4628 80.7907 92.6034C81.1357 93.0201 81.3738 93.5146 81.4844 94.0441C81.5233 94.2991 81.5353 94.5574 81.52 94.8148C81.5289 95.78 82.521 95.7827 83.1968 95.8005C83.2462 95.8018 83.2932 95.8223 83.3276 95.8577C83.3621 95.8931 83.3814 95.9405 83.3814 95.9899C83.3814 96.0393 83.3621 96.0868 83.3276 96.1222C83.2932 96.1576 83.2462 96.1781 83.1968 96.1794C82.4949 96.1615 81.3014 96.0929 81.187 95.1825C81.1618 94.7128 81.11 94.2449 81.0318 93.781C80.8615 93.074 80.2267 92.508 79.7099 92.0387C78.8656 91.3164 77.9113 90.7339 76.883 90.3132C76.6596 90.2152 76.8525 89.889 77.0743 89.9869Z" fill="white"/>
<path d="M77.492 90.6985C78.1318 91.3071 78.6134 92.0627 78.8947 92.8996C79.2976 93.9921 79.1101 95.5079 80.2598 96.1298C80.4753 96.2468 80.2833 96.5737 80.0677 96.4567C79.346 96.0663 79.1069 95.5651 78.955 94.7755C78.6783 93.3486 78.33 91.9892 77.2229 90.9668C77.0443 90.8003 77.3128 90.5331 77.492 90.6985Z" fill="white"/>
<path fill-rule="evenodd" clip-rule="evenodd" d="M52.3897 117.432C52.3986 117.208 52.37 116.983 52.3052 116.769C52.2272 116.527 52.0975 116.306 51.925 116.12C51.7524 115.934 51.5414 115.788 51.3065 115.692C50.9766 115.533 50.6116 115.462 50.2463 115.485C50.2602 115.436 50.2559 115.385 50.2341 115.339L50.0931 115.055C50.081 115.031 50.0644 115.01 50.044 114.992C50.0237 114.974 50 114.961 49.9744 114.952C49.9489 114.943 49.9218 114.94 49.8949 114.942C49.868 114.944 49.8417 114.951 49.8175 114.963C49.7933 114.975 49.7718 114.992 49.754 115.012C49.7363 115.032 49.7228 115.056 49.7142 115.082C49.7056 115.107 49.7021 115.134 49.704 115.161C49.7059 115.188 49.713 115.214 49.7251 115.239L49.8658 115.522C49.8703 115.529 49.875 115.535 49.8802 115.541C49.7616 115.567 49.6451 115.602 49.5313 115.644L49.4079 115.396C49.3959 115.372 49.3793 115.351 49.3589 115.333C49.3386 115.315 49.315 115.302 49.2894 115.293C49.2638 115.284 49.2368 115.281 49.2099 115.283C49.183 115.285 49.1567 115.292 49.1325 115.304C49.1084 115.316 49.0868 115.332 49.0691 115.353C49.0514 115.373 49.0378 115.397 49.0292 115.422C49.0206 115.448 49.0172 115.475 49.019 115.502C49.0209 115.529 49.028 115.555 49.04 115.579L49.1561 115.812C49.0954 115.84 49.0432 115.884 49.0051 115.939C48.8091 116.301 48.4791 116.337 48.1199 116.371C48.0728 116.375 48.0297 116.386 47.9836 116.393L47.8688 116.161C47.8445 116.113 47.802 116.075 47.7504 116.058C47.6988 116.041 47.6425 116.045 47.5937 116.069C47.545 116.093 47.5078 116.136 47.4904 116.187C47.473 116.239 47.4767 116.295 47.5008 116.344L47.5634 116.47C47.447 116.498 47.3321 116.532 47.2191 116.572L47.184 116.501C47.172 116.477 47.1553 116.456 47.1349 116.438C47.1146 116.42 47.0909 116.407 47.0653 116.398C47.0397 116.389 47.0126 116.386 46.9857 116.388C46.9587 116.39 46.9324 116.397 46.9082 116.409C46.884 116.421 46.8624 116.437 46.8447 116.458C46.8269 116.478 46.8134 116.502 46.8048 116.527C46.7962 116.553 46.7927 116.58 46.7945 116.607C46.7964 116.634 46.8035 116.66 46.8156 116.685L46.8413 116.736C46.3806 116.972 45.9681 117.292 45.6252 117.68L45.6112 117.652C45.5866 117.604 45.5439 117.567 45.4925 117.55C45.4411 117.533 45.3851 117.537 45.3366 117.561C45.2881 117.586 45.2511 117.628 45.2336 117.679C45.2161 117.73 45.2194 117.786 45.243 117.835L45.3363 118.024C45.2617 118.12 45.1873 118.216 45.1167 118.318C45.1101 118.328 45.106 118.339 45.0998 118.349L45.0583 118.266C45.0462 118.241 45.0295 118.22 45.0092 118.202C44.9888 118.185 44.9651 118.171 44.9395 118.163C44.8878 118.145 44.8314 118.149 44.7826 118.174C44.7339 118.198 44.6968 118.241 44.6795 118.292C44.6623 118.344 44.6663 118.401 44.6906 118.449L44.8315 118.732C44.8478 118.763 44.8718 118.789 44.9012 118.808C44.8662 118.916 44.8323 119.026 44.7918 119.13V119.7C44.9169 119.825 45.0607 119.93 45.218 120.012C45.4326 120.118 45.668 120.175 45.9074 120.18C46.1468 120.184 46.3842 120.136 46.6027 120.038C46.8118 119.938 47.0445 119.899 47.2749 119.923C47.5052 119.948 47.7242 120.036 47.9076 120.177C48.3449 120.492 48.7961 120.786 49.233 121.099C49.5671 121.338 49.7356 121.374 49.9908 121.054C50.0754 120.936 50.1906 120.844 50.3237 120.788C50.4158 120.625 50.5262 120.47 50.6104 120.299C50.7889 119.918 50.9944 119.551 51.2252 119.199C51.4984 118.726 51.9047 118.344 52.3935 118.1C52.3897 117.878 52.3832 117.654 52.3897 117.432Z" fill="#939598"/>
<path fill-rule="evenodd" clip-rule="evenodd" d="M88.0266 61.3944C88.0099 61.7204 87.9121 62.0371 87.742 62.3158C87.2658 63.1284 86.6964 63.8841 86.2565 64.7123C85.7337 65.7008 85.3092 66.7412 84.8331 67.7558C84.6105 68.2215 84.4863 68.6616 84.7658 69.174C85.066 69.7226 84.8175 70.116 84.3672 70.5249C83.9041 70.9854 83.4911 71.4937 83.1353 72.0414C82.9904 72.2381 82.9697 72.528 82.8248 72.7143C82.3763 73.2528 82.0569 73.8868 81.8909 74.5677C81.725 75.2485 81.7169 75.9584 81.8672 76.6429C81.9241 76.938 81.5773 77.3521 81.3341 77.647C80.5525 78.6253 80.0142 79.6761 80.361 80.9494C80.5375 81.6524 80.8091 82.3281 81.1684 82.9576C81.6705 83.8065 81.51 84.5363 80.9614 85.2351C80.185 86.2288 79.8175 87.2589 80.4076 88.4908C80.467 88.6768 80.4742 88.8755 80.4283 89.0653C80.4283 89.0601 80.4231 89.0601 80.4179 89.0549C80.4179 89.1119 80.744 90.292 80.5163 90.2972C75.9148 90.3903 72.8506 92.6316 68.9117 94.645C67.6522 95.3 66.3123 95.7872 64.9262 96.0943C64.098 96.2393 62.7885 96.643 61.9707 96.8241C61.7498 96.8755 61.5321 96.9394 61.3185 97.0157C60.2005 97.409 58.5856 98.2164 58.0887 98.7392C58.0473 97.6988 59.5277 94.3862 59.6001 93.3562C59.9935 87.4814 61.8206 79.7692 64.0153 75.8147C64.4035 75.1212 66.4013 72.8748 65.185 72.9421C65.1554 72.966 65.1293 72.9938 65.1073 73.0249C64.7502 73.3096 63.4303 73.6201 63.3061 73.8997C63.1508 74.2516 63.3009 75.7734 62.9179 75.7526C59.8899 75.6129 57.126 69.1273 57.6591 66.1357C57.9179 64.6967 67.5556 58.3354 67.9904 57.823C71.1219 54.1688 83.6737 52.735 84.5121 54.9089C84.9751 56.0371 85.5656 57.1085 86.272 58.1025C86.9759 59.029 87.7316 59.8882 87.9128 61.0683C87.9254 61.1611 87.963 61.2488 88.0215 61.3219C88.0215 61.3427 88.0266 61.3685 88.0266 61.3944Z" fill="#FBBA4B"/>
<path fill-rule="evenodd" clip-rule="evenodd" d="M80.4645 66.9129C80.9824 66.9193 81.4998 66.8778 82.0101 66.7888C82.0913 66.7663 82.1663 66.7255 82.2292 66.6695C82.2922 66.6134 82.3414 66.5437 82.3732 66.4656C82.405 66.3876 82.4184 66.3033 82.4125 66.2192C82.4065 66.1352 82.3814 66.0536 82.339 65.9808C81.8904 65.4329 81.3074 65.0107 80.6469 64.7554C80.863 64.5923 81.0453 64.3886 81.1836 64.1558C81.3569 64.1834 81.5333 64.187 81.7076 64.1666C82.2161 64.1064 82.5017 63.4388 81.986 63.1411C81.8045 63.0388 81.6112 62.959 81.4105 62.9034C81.5415 62.7893 81.6798 62.684 81.8245 62.5879L83.7861 64.238C83.7861 64.238 83.0607 65.9999 82.3651 66.7565C81.7368 67.4394 80.2789 68.039 79.9614 66.5461C79.9915 66.6551 80.0575 66.7507 80.1489 66.8173C80.2403 66.8839 80.3515 66.9176 80.4645 66.9129Z" fill="white"/>
<path fill-rule="evenodd" clip-rule="evenodd" d="M52.0889 117.885L57.3212 119.436C57.3212 119.436 56.8578 122.867 56.809 123.64C56.7597 124.414 50.2554 120.599 50.2554 120.599L52.0889 117.885Z" fill="#FBBA4B"/>
<path fill-rule="evenodd" clip-rule="evenodd" d="M45.2178 119.821V120.012C45.4323 120.118 45.6677 120.175 45.9071 120.18C46.1465 120.184 46.3839 120.136 46.6024 120.038C46.8115 119.938 47.0442 119.898 47.2746 119.923C47.505 119.948 47.724 120.036 47.9074 120.177C48.3447 120.492 48.7959 120.786 49.2328 121.099C49.5668 121.338 49.7354 121.374 49.9906 121.054C50.0752 120.936 50.1903 120.844 50.3235 120.788C50.4155 120.625 50.526 120.47 50.6102 120.298C50.7887 119.918 50.9941 119.55 51.225 119.199C51.4982 118.726 51.9044 118.344 52.3932 118.1C52.3895 117.878 52.383 117.654 52.3895 117.432C52.3983 117.207 52.3698 116.983 52.305 116.769C52.1369 116.609 51.9435 116.479 51.7327 116.382C51.4049 116.231 51.046 116.16 50.6853 116.174C50.3246 116.188 49.9723 116.287 49.6573 116.463C49.5683 116.498 49.4902 116.555 49.4312 116.63C49.2357 116.992 48.9046 117.027 48.5455 117.062C47.2112 117.189 46.2737 117.953 45.5432 119.009C45.404 119.266 45.2948 119.539 45.2178 119.821Z" fill="#07223D"/>
<path d="M87.6225 55.2394L85.0891 59.0764C85.0891 59.0764 82.7007 59.6555 81.6377 55.9304L85.472 53.2793L87.6225 55.2394Z" fill="#FF97A6"/>
<g style="mix-blend-mode:multiply" opacity="0.1">
<path d="M85.4828 54.8942C85.6442 55.4656 85.8181 56.0353 86.0117 56.5965C86.0918 56.8283 86.1804 57.055 86.2755 57.2787L87.622 55.2394L85.4715 53.2793L85.3118 53.3897C85.252 53.8977 85.3106 54.4126 85.4828 54.8942Z" fill="#000107"/>
</g>
<path d="M85.3312 52.297C85.3312 52.297 82.2448 46.2966 84.1926 44.0689C84.7318 43.4265 85.4105 42.9155 86.1769 42.5748C86.9434 42.2342 87.7774 42.0728 88.6156 42.1031C88.6156 42.1031 89.2478 38.5208 92.972 40.3934C96.6962 42.266 99.2527 48.6208 103.564 44.9847C102.879 46.3435 101.896 47.5302 100.689 48.4564C99.4816 49.3826 98.0809 50.0245 96.5911 50.3343C96.5911 50.3343 90.4761 56.5909 85.3312 52.297Z" fill="#261702"/>
<path d="M86.9849 46.6847C86.9849 46.6847 86.7514 47.0555 86.4279 47.6314C86.1369 47.4592 85.7897 47.4088 85.4619 47.4913C84.661 47.6612 84.8695 49.3795 85.3049 49.8783C84.4028 51.9434 84.6927 54.4624 86.045 55.423C88.5375 57.1936 91.9219 55.1363 94.4542 50.2439C94.4542 50.2439 94.1639 45.1633 86.9849 46.6847Z" fill="#FF97A6"/>
<g style="mix-blend-mode:multiply" opacity="0.18">
<path d="M86.4277 47.6309C86.4277 47.6309 89.6555 49.4092 90.803 48.7578C91.9504 48.1062 91.1062 48.1187 91.1062 48.1187C91.1062 48.1187 87.5445 46.3992 86.9847 46.6842C86.8181 46.7806 86.6793 46.9184 86.5817 47.0843C86.4841 47.2502 86.4311 47.4385 86.4277 47.6309Z" fill="#000107"/>
</g>
<g style="mix-blend-mode:multiply" opacity="0.18">
<path d="M90.0328 47.1219C90.0328 47.1219 91.286 47.4688 91.7589 48.0945C92.2318 48.7201 93.0638 50.9909 94.4543 50.2441C95.8447 49.4972 92.3325 46.6117 90.9634 46.1533C89.5943 45.6948 90.0328 47.1219 90.0328 47.1219ZM86.2015 47.9845C86.2015 47.9845 85.6354 47.7714 85.4348 47.9933C85.2341 48.2152 85.0061 48.9125 85.3728 49.3131C85.3728 49.3131 85.1374 48.3637 85.4416 48.3078C85.7458 48.2518 86.5019 48.3137 86.2015 47.9845Z" fill="#000107"/>
</g>
<path d="M94.7187 49.4424C93.7154 49.1986 92.8087 48.6583 92.1168 47.8919C90.998 46.6273 90.6903 48.2274 90.6903 48.2274C90.6903 48.2274 87.138 48.2217 86.131 47.1867C85.1241 46.1518 86.3268 45.0609 86.6625 45.0609C86.9982 45.0609 94.3558 44.2859 94.7187 49.4424Z" fill="#261702"/>
<path fill-rule="evenodd" clip-rule="evenodd" d="M49.7135 93.2262C49.7135 93.2262 50.6459 94.4197 50.3475 94.979C50.0491 95.5385 49.7135 94.979 49.7135 94.979C49.7135 94.979 47.8115 97.3659 46.0214 96.7692C44.2313 96.1725 48.5956 93.2262 48.5956 93.2262H49.7135ZM95.2581 71.782C95.2581 71.782 97.1144 71.2969 98.2705 71.782C99.4266 72.2669 99.7623 74.2799 99.2402 74.9517C98.718 75.6234 97.3688 73.5722 97.3688 73.5722C97.3688 73.5722 97.2521 74.8554 96.9361 74.6537C96.2939 74.244 96.2566 73.796 96.2566 73.796L94.9797 73.6611C94.9797 73.6611 94.1011 71.9709 95.2581 71.782Z" fill="#FF97A6"/>
<g style="mix-blend-mode:multiply" opacity="0.18">
<path d="M67.3482 79.2616C66.339 82.7502 64.6412 92.3258 61.3182 97.0153C60.2002 97.4087 58.5853 98.2161 58.0884 98.7389C58.047 97.6985 59.5274 94.3858 59.5998 93.3558C59.9932 87.4811 61.8203 79.7688 64.015 75.8144C64.4032 75.1208 66.401 72.8744 65.1847 72.9418C65.1847 72.9418 70.0294 68.8061 72.809 68.5576C75.5884 68.3144 68.7043 74.5877 67.3482 79.2616ZM70.9456 125.447C67.0636 126.317 59.8016 121.26 57.8296 119.816L70.7748 121.632L69.3617 118.542L70.2571 118.646C70.2571 118.646 75.4694 124.427 70.9456 125.447Z" fill="#000107"/>
</g>
<path d="M167.211 91.1594C167.21 92.1739 167.001 93.1775 166.599 94.1087C166.196 95.04 165.608 95.8794 164.87 96.5757L164.866 96.5805C163.934 97.4671 162.785 98.093 161.534 98.3954H161.53C160.953 98.5365 160.361 98.6081 159.767 98.6087C159.071 98.6084 158.378 98.5095 157.71 98.3149C157.705 98.3197 157.705 98.3149 157.701 98.3149C157.158 98.1619 156.636 97.9423 156.146 97.6609C155.521 97.3194 154.95 96.8848 154.455 96.372C154.451 96.3716 154.448 96.37 154.445 96.3673C154.219 96.1341 154.006 95.8873 153.81 95.628C153.255 94.8862 152.844 94.0473 152.597 93.1544C152.414 92.5053 152.321 91.8339 152.322 91.1594C152.327 89.2525 153.061 87.4198 154.374 86.0368C154.374 86.0321 154.374 86.0273 154.379 86.0273C155.262 85.0939 156.372 84.4064 157.601 84.0324H157.611C157.705 84.0039 157.8 83.9755 157.895 83.9518C158.506 83.7932 159.135 83.7136 159.767 83.7149C160.395 83.7199 161.02 83.7994 161.629 83.9518C161.633 83.9521 161.636 83.9538 161.639 83.9565C162.884 84.2737 164.023 84.9146 164.941 85.8141C164.946 85.8141 164.946 85.8141 164.946 85.8188C165.95 86.7841 166.658 88.0152 166.989 89.3681C167.138 89.9536 167.212 90.5553 167.211 91.1594Z" fill="#07223D"/>
<path d="M161.501 98.2709C160.264 98.5743 158.969 98.5476 157.745 98.1934L158.524 96.8457H160.677L161.501 98.2709Z" fill="#07223D"/>
<path d="M164.78 96.4849C163.864 97.3564 162.735 97.9719 161.506 98.2698L160.687 96.8446L161.761 94.9824H163.91L164.78 96.4849Z" fill="url(#paint4_linear_24_6028)"/>
<path d="M166.815 93.1211C166.462 94.4074 165.759 95.5705 164.785 96.4812L163.919 94.9832L164.994 93.1211H166.815Z" fill="url(#paint5_linear_24_6028)"/>
<path d="M158.515 96.8446L157.736 98.1923C156.524 97.8438 155.424 97.1846 154.544 96.28L155.291 94.9824H157.44L158.515 96.8446Z" fill="url(#paint6_linear_24_6028)"/>
<path d="M160.676 93.1211H158.526L157.451 94.983L158.526 96.8449H160.676L161.751 94.983L160.676 93.1211Z" fill="url(#paint7_linear_24_6028)"/>
<path d="M163.911 91.2578H161.761L160.686 93.1197L161.761 94.9817H163.911L164.986 93.1197L163.911 91.2578Z" fill="#07223D"/>
<path d="M167.084 91.1585C167.086 91.8219 166.995 92.4823 166.815 93.1208H164.994L163.919 91.2586L164.994 89.3965H166.865C167.012 89.9723 167.085 90.5643 167.084 91.1585Z" fill="url(#paint8_linear_24_6028)"/>
<path d="M155.282 94.9832L154.535 96.2763C153.673 95.3945 153.049 94.3092 152.719 93.1211H154.208L155.282 94.9832Z" fill="url(#paint9_linear_24_6028)"/>
<path d="M157.441 91.2578H155.291L154.216 93.1197L155.291 94.9817H157.441L158.516 93.1197L157.441 91.2578Z" fill="#07223D"/>
<path d="M160.676 89.3965H158.526L157.451 91.2581L158.526 93.12H160.676L161.751 91.2581L160.676 89.3965Z" fill="url(#paint10_linear_24_6028)"/>
<path d="M163.911 87.5352H161.761L160.686 89.3971L161.761 91.2587H163.911L164.986 89.3971L163.911 87.5352Z" fill="url(#paint11_linear_24_6028)"/>
<path d="M166.865 89.3959H164.994L163.919 87.5336L164.857 85.9082C165.843 86.8575 166.539 88.0669 166.865 89.3959Z" fill="#07223D"/>
<path d="M155.282 91.2586L154.207 93.1208H152.718C152.538 92.4823 152.448 91.8219 152.45 91.1585C152.448 90.5643 152.521 89.9723 152.668 89.3965H154.207L155.282 91.2586Z" fill="url(#paint12_linear_24_6028)"/>
<path d="M157.441 87.5352H155.291L154.216 89.3971L155.291 91.2587H157.441L158.516 89.3971L157.441 87.5352Z" fill="url(#paint13_linear_24_6028)"/>
<path d="M160.676 85.6719H158.526L157.451 87.5338L158.526 89.3957H160.676L161.751 87.5338L160.676 85.6719Z" fill="#07223D"/>
<path d="M164.852 85.9059L163.91 87.5358H161.761L160.687 85.6736L161.606 84.0801C162.83 84.3929 163.95 85.0227 164.852 85.9059Z" fill="url(#paint14_linear_24_6028)"/>
<path d="M155.282 87.5345L154.207 89.3967H152.668C152.969 88.1662 153.59 87.037 154.467 86.123L155.282 87.5345Z" fill="#07223D"/>
<path d="M158.515 85.6723L157.44 87.5345H155.291L154.472 86.114C155.339 85.1957 156.431 84.5207 157.641 84.1562L158.515 85.6723Z" fill="url(#paint15_linear_24_6028)"/>
<path d="M161.597 84.074L160.678 85.6721H158.524L157.65 84.156C158.336 83.9466 159.05 83.8407 159.767 83.8418C160.384 83.8421 160.999 83.9201 161.597 84.074Z" fill="url(#paint16_linear_24_6028)"/>
<path opacity="0.18" d="M164.78 90.1549C164.78 94.3012 160.975 97.6657 156.279 97.6657C156.235 97.6665 156.191 97.6649 156.146 97.6609C155.521 97.3194 154.95 96.8848 154.455 96.372C154.451 96.3717 154.448 96.37 154.445 96.3673C154.219 96.1342 154.006 95.8873 153.81 95.6281C153.255 94.8863 152.844 94.0473 152.597 93.1544C152.414 92.5053 152.321 91.8339 152.322 91.1594C152.327 89.2526 153.061 87.4198 154.374 86.0368C154.374 86.0321 154.374 86.0274 154.379 86.0274C155.262 85.0939 156.372 84.4064 157.601 84.0324H157.611C157.705 84.0039 157.8 83.9755 157.895 83.9518C158.506 83.7932 159.135 83.7136 159.767 83.7149C160.113 83.7137 160.458 83.739 160.8 83.7907C163.193 85.1222 164.78 87.4774 164.78 90.1549Z" fill="white"/>
<path opacity="0.56" d="M160.686 89.0785C160.686 92.5425 157.653 95.3763 153.81 95.6275C153.255 94.8856 152.844 94.0467 152.597 93.1538C152.414 92.5047 152.321 91.8333 152.322 91.1588C152.327 89.2519 153.061 87.4192 154.374 86.0362C154.374 86.0315 154.374 86.0267 154.379 86.0267C155.262 85.0933 156.372 84.4058 157.601 84.0318H157.611C157.705 84.0033 157.8 83.9749 157.895 83.9512C158.739 84.5178 159.433 85.2799 159.919 86.1726C160.405 87.0653 160.668 88.0622 160.686 89.0785Z" fill="white"/>
<defs>
<linearGradient id="paint0_linear_24_6028" x1="232.426" y1="103.6" x2="-107.036" y2="283.662" gradientUnits="userSpaceOnUse">
<stop stop-color="#99EC97"/>
<stop offset="1" stop-color="#6AA21A"/>
</linearGradient>
<linearGradient id="paint1_linear_24_6028" x1="8.05511" y1="120.646" x2="283.926" y2="120.646" gradientUnits="userSpaceOnUse">
<stop stop-color="#9463D3"/>
<stop offset="1" stop-color="#7282FB"/>
</linearGradient>
<linearGradient id="paint2_linear_24_6028" x1="351.786" y1="201.685" x2="158.439" y2="72.5411" gradientUnits="userSpaceOnUse">
<stop stop-color="#9463D3"/>
<stop offset="1" stop-color="#729AFB"/>
</linearGradient>
<linearGradient id="paint3_linear_24_6028" x1="178.428" y1="108.774" x2="193.208" y2="122.466" gradientUnits="userSpaceOnUse">
<stop stop-color="#E2F6F5"/>
<stop offset="0.432" stop-color="#FFFDE8"/>
<stop offset="1" stop-color="#D4F3FB"/>
</linearGradient>
<linearGradient id="paint4_linear_24_6028" x1="162.053" y1="94.4581" x2="163.264" y2="98.3869" gradientUnits="userSpaceOnUse">
<stop stop-color="white"/>
<stop offset="1" stop-color="#B5C6EE"/>
</linearGradient>
<linearGradient id="paint5_linear_24_6028" x1="164.948" y1="92.6913" x2="166.186" y2="96.7079" gradientUnits="userSpaceOnUse">
<stop stop-color="white"/>
<stop offset="1" stop-color="#B5C6EE"/>
</linearGradient>
<linearGradient id="paint6_linear_24_6028" x1="155.827" y1="94.283" x2="157.316" y2="99.1139" gradientUnits="userSpaceOnUse">
<stop stop-color="white"/>
<stop offset="1" stop-color="#B5C6EE"/>
</linearGradient>
<linearGradient id="paint7_linear_24_6028" x1="158.817" y1="92.4402" x2="160.465" y2="97.7865" gradientUnits="userSpaceOnUse">
<stop stop-color="white"/>
<stop offset="1" stop-color="#B5C6EE"/>
</linearGradient>
<linearGradient id="paint8_linear_24_6028" x1="164.933" y1="88.8375" x2="166.543" y2="94.0612" gradientUnits="userSpaceOnUse">
<stop stop-color="white"/>
<stop offset="1" stop-color="#B5C6EE"/>
</linearGradient>
<linearGradient id="paint9_linear_24_6028" x1="153.485" y1="92.3843" x2="154.88" y2="96.9123" gradientUnits="userSpaceOnUse">
<stop stop-color="white"/>
<stop offset="1" stop-color="#B5C6EE"/>
</linearGradient>
<linearGradient id="paint10_linear_24_6028" x1="158.817" y1="88.7152" x2="160.465" y2="94.0616" gradientUnits="userSpaceOnUse">
<stop stop-color="white"/>
<stop offset="1" stop-color="#B5C6EE"/>
</linearGradient>
<linearGradient id="paint11_linear_24_6028" x1="162.052" y1="86.8542" x2="163.7" y2="92.2003" gradientUnits="userSpaceOnUse">
<stop stop-color="white"/>
<stop offset="1" stop-color="#B5C6EE"/>
</linearGradient>
<linearGradient id="paint12_linear_24_6028" x1="152.939" y1="88.7471" x2="154.516" y2="93.8646" gradientUnits="userSpaceOnUse">
<stop stop-color="white"/>
<stop offset="1" stop-color="#B5C6EE"/>
</linearGradient>
<linearGradient id="paint13_linear_24_6028" x1="155.583" y1="86.8542" x2="157.23" y2="92.2003" gradientUnits="userSpaceOnUse">
<stop stop-color="white"/>
<stop offset="1" stop-color="#B5C6EE"/>
</linearGradient>
<linearGradient id="paint14_linear_24_6028" x1="162.029" y1="83.3881" x2="163.594" y2="88.4654" gradientUnits="userSpaceOnUse">
<stop stop-color="white"/>
<stop offset="1" stop-color="#B5C6EE"/>
</linearGradient>
<linearGradient id="paint15_linear_24_6028" x1="155.978" y1="84.2212" x2="157.224" y2="88.264" gradientUnits="userSpaceOnUse">
<stop stop-color="white"/>
<stop offset="1" stop-color="#B5C6EE"/>
</linearGradient>
<linearGradient id="paint16_linear_24_6028" x1="159.371" y1="83.2955" x2="160.291" y2="86.2805" gradientUnits="userSpaceOnUse">
<stop stop-color="white"/>
<stop offset="1" stop-color="#B5C6EE"/>
</linearGradient>
</defs>
</svg>
