<svg width="16" height="16" viewBox="0 0 16 16" fill="none" xmlns="http://www.w3.org/2000/svg">
<g clip-path="url(#clip0_85_31140)">
<path d="M8.00016 15.6668C3.77283 15.6668 0.333496 12.2278 0.333496 8.00016C0.333496 3.7725 3.77283 0.333496 8.00016 0.333496C12.2275 0.333496 15.6668 3.7725 15.6668 8.00016C15.6668 12.2278 12.2275 15.6668 8.00016 15.6668Z" fill="#E6E6E6"/>
<path d="M8.00049 0.833496C11.9515 0.833673 15.1665 4.04909 15.1665 8.00049C15.1663 11.9517 11.9514 15.1663 8.00049 15.1665C4.04939 15.1665 0.833673 11.9518 0.833496 8.00049C0.833496 4.04898 4.04928 0.833496 8.00049 0.833496Z" stroke="white" stroke-opacity="0.16"/>
<path d="M9.92406 11.0001H6.07606C5.93172 11.0001 5.80372 10.9071 5.75906 10.7698L4.57006 7.11011C4.52539 6.97311 4.57439 6.82244 4.69106 6.73778L7.80406 4.47611C7.92106 4.39078 8.07906 4.39078 8.19606 4.47611L11.3091 6.73778C11.4261 6.82244 11.4747 6.97311 11.4301 7.11011L10.2411 10.7698C10.1964 10.9071 10.0684 11.0001 9.92406 11.0001Z" fill="#22C55E"/>
<path fill-rule="evenodd" clip-rule="evenodd" d="M12.4716 3.52876C12.7319 3.78911 12.7319 4.21122 12.4716 4.47157L4.47157 12.4716C4.21122 12.7319 3.78911 12.7319 3.52876 12.4716C3.26841 12.2112 3.26841 11.7891 3.52876 11.5288L11.5288 3.52876C11.7891 3.26841 12.2112 3.26841 12.4716 3.52876Z" fill="#EF4444"/>
<path fill-rule="evenodd" clip-rule="evenodd" d="M3.52876 3.52876C3.78911 3.26841 4.21122 3.26841 4.47157 3.52876L12.4716 11.5288C12.7319 11.7891 12.7319 12.2112 12.4716 12.4716C12.2112 12.7319 11.7891 12.7319 11.5288 12.4716L3.52876 4.47157C3.26841 4.21122 3.26841 3.78911 3.52876 3.52876Z" fill="#EF4444"/>
<path d="M5.77727 0.878496L7.80527 2.34016C7.86327 2.38216 7.93161 2.40283 7.99994 2.40283C8.06827 2.40283 8.13661 2.38216 8.19461 2.34016L10.2226 0.878496C10.2836 0.834496 10.3239 0.771163 10.3446 0.701829C9.60527 0.463496 8.81761 0.333496 7.99994 0.333496C7.18227 0.333496 6.39461 0.463496 5.65527 0.701496C5.67561 0.771163 5.71594 0.834163 5.77727 0.878496Z" fill="#22C55E"/>
<path d="M0.539651 7.91355L2.55698 6.43622C2.67265 6.35155 2.72132 6.20222 2.67732 6.06555L1.91465 3.68822C1.89165 3.61689 1.84465 3.55955 1.78532 3.51855C0.877318 4.77422 0.338984 6.31355 0.333984 7.97689C0.336651 7.97689 0.339651 7.97789 0.342318 7.97789C0.411984 7.97822 0.481318 7.95622 0.539651 7.91355Z" fill="#22C55E"/>
<path d="M5.61221 15.0686L4.83054 12.6939C4.78587 12.5576 4.65854 12.4652 4.5152 12.4646L2.0202 12.4556H2.0192C1.9442 12.4556 1.87487 12.4829 1.81787 12.5269C2.7542 13.8022 4.07487 14.7776 5.60754 15.2822C5.63154 15.2142 5.63587 15.1399 5.61221 15.0686Z" fill="#22C55E"/>
<path d="M13.98 12.4556L11.485 12.4646C11.3413 12.4652 11.2143 12.5572 11.1696 12.6939L10.388 15.0686C10.3646 15.1399 10.369 15.2142 10.393 15.2826C11.926 14.7776 13.2463 13.8022 14.1826 12.5272C14.1253 12.4832 14.056 12.4559 13.9813 12.4559L13.98 12.4556Z" fill="#22C55E"/>
<path d="M14.0857 3.68822L13.323 6.06555C13.2794 6.20222 13.3277 6.35155 13.4434 6.43622L15.4607 7.91355C15.519 7.95622 15.588 7.97789 15.6577 7.97789C15.6604 7.97789 15.6634 7.97689 15.666 7.97689C15.661 6.31355 15.1227 4.77422 14.2147 3.51855C14.1557 3.55955 14.1087 3.61722 14.0857 3.68822Z" fill="#22C55E"/>
</g>
<defs>
<clipPath id="clip0_85_31140">
<rect width="16" height="16" fill="white"/>
</clipPath>
</defs>
</svg>
