<svg width="339" height="212" viewBox="0 0 339 212" fill="none" xmlns="http://www.w3.org/2000/svg">
<path opacity="0.14" d="M328.453 139.962C328.453 140.08 328.45 140.199 328.447 140.318C328.447 140.387 328.444 140.454 328.444 140.523C328.439 140.83 328.43 141.137 328.418 141.449C328.418 141.469 328.415 141.493 328.415 141.513C328.413 141.626 328.407 141.738 328.404 141.854C328.377 142.623 328.34 143.392 328.291 144.16C328.282 144.325 328.271 144.49 328.259 144.658C328.033 148.075 327.614 151.735 326.977 155.658C326.934 155.933 326.888 156.208 326.841 156.483C326.836 156.515 326.833 156.544 326.827 156.575C326.812 156.653 326.799 156.731 326.787 156.81C326.778 156.867 326.766 156.923 326.758 156.98C326.595 157.93 326.422 158.878 326.24 159.825C325.84 161.905 325.399 163.977 324.918 166.04C324.88 166.205 324.842 166.37 324.802 166.537C324.177 169.189 323.497 171.828 322.762 174.451C322.727 174.587 322.689 174.722 322.649 174.856C322.45 175.565 322.248 176.273 322.042 176.98C321.917 177.397 321.796 177.813 321.672 178.233C321.387 179.185 321.097 180.136 320.801 181.085C320.623 181.659 320.442 182.231 320.257 182.801C319.913 183.88 319.557 184.974 319.189 186.082C319.186 186.088 319.186 186.094 319.183 186.1C319.128 186.262 319.076 186.427 319.018 186.592L318.914 186.904C318.473 188.219 318.02 189.531 317.557 190.839C317.511 190.972 317.464 191.108 317.415 191.241C317.184 191.895 316.947 192.555 316.706 193.22C316.342 194.224 315.968 195.24 315.586 196.264C315.563 196.322 315.543 196.38 315.52 196.441C315.43 196.684 315.338 196.927 315.245 197.173C315.121 197.508 314.993 197.844 314.863 198.182C313.809 200.955 312.721 203.714 311.6 206.46C311.533 206.622 311.464 206.787 311.397 206.952C311.324 207.126 311.255 207.3 311.183 207.473C311.128 207.606 311.073 207.742 311.015 207.875C310.656 208.749 310.293 209.621 309.927 210.491C309.921 210.503 309.918 210.514 309.913 210.526H32.9998C32.9852 210.514 32.9739 210.503 32.9593 210.491C32.8147 210.372 32.6701 210.251 32.5252 210.129L32.0941 209.768C30.5281 208.449 28.9923 207.096 27.4877 205.708C27.4677 205.69 27.4484 205.672 27.4299 205.653C27.3574 205.589 27.288 205.523 27.2155 205.459C26.2643 204.577 25.3268 203.68 24.4033 202.768C24.1922 202.56 23.9808 202.352 23.7754 202.146C23.567 201.938 23.3586 201.729 23.1562 201.521C22.9508 201.313 22.7481 201.108 22.5486 200.899C22.3462 200.694 22.1464 200.485 21.9497 200.28C21.5579 199.87 21.1692 199.457 20.7837 199.042C17.1119 195.083 14.0537 191.209 11.5131 187.462C10.5751 186.084 9.68155 184.676 8.83376 183.241C2.93705 173.276 0.67156 164.361 0.20857 157.359C-0.0490078 153.574 0.225867 150.345 0.732373 147.813C2.04026 141.292 5.65688 136.552 10.5411 132.522C24.4471 121.061 48.6301 115.39 59.0667 90.9374C71.6502 61.4604 48.1439 42.4361 62.7123 20.935C77.2547 -0.528479 117.299 -6.1068 142.924 7.08127C160.49 16.1203 156.835 26.5453 172.821 34.7885C207.754 52.8057 248.267 14.9108 266.16 31.8719C274.699 39.9677 267.451 50.4794 275.639 69.0609C282.23 84.0199 293.382 89.6506 303.647 95.5792C305.846 96.8495 308.005 98.1342 310.071 99.5259C312.507 101.169 314.813 102.963 316.9 105.064C317.511 105.68 318.099 106.319 318.661 106.979C319.144 107.548 319.609 108.132 320.056 108.73C320.929 109.898 321.731 111.119 322.455 112.384C322.759 112.913 323.049 113.45 323.326 113.993C323.41 114.155 323.491 114.32 323.575 114.485C323.963 115.273 324.326 116.073 324.663 116.884C325.099 117.944 325.493 119.02 325.846 120.11C325.924 120.356 326.003 120.607 326.081 120.859C326.252 121.425 326.413 121.995 326.564 122.566C326.859 123.675 327.122 124.832 327.351 126.036C327.383 126.198 327.414 126.366 327.443 126.531C327.753 128.235 327.996 130.032 328.17 131.93L328.205 132.332L328.239 132.757H328.242C328.283 133.275 328.317 133.802 328.346 134.337C328.447 136.128 328.485 138 328.453 139.962Z" fill="#A8E5FF"/>
<path d="M131.198 33.7098C131.198 33.7098 127.812 29.6461 121.997 31.2005C117.304 32.4551 117.311 28.6247 114.191 29.2488C109.776 30.1318 108.412 26.6611 106.592 27.2971C104.2 28.1334 103.695 30.8713 100.529 30.3624C97.6481 29.8994 97.3764 26.253 94.9528 28.2728C91.0494 31.5256 88.5867 27.0182 85.752 30.3624C83.6262 32.8703 76.83 31.7581 75.1572 33.7098H131.198ZM208.782 86.1507C208.782 86.1507 205.396 82.087 199.581 83.6414C194.888 84.896 194.894 81.0656 191.774 81.6897C187.36 82.5727 185.995 79.102 184.176 79.738C181.783 80.5745 181.278 83.3122 178.112 82.8033C175.232 82.3403 174.96 78.6939 172.536 80.7137C168.633 83.9665 166.17 79.4591 163.335 82.8033C161.21 85.3112 154.413 84.199 152.741 86.1507H208.782ZM263.857 48.7955C263.857 48.7955 260.47 44.7318 254.656 46.2862C249.962 47.5408 249.969 43.7104 246.849 44.3345C242.435 45.2175 241.07 41.7468 239.251 42.3828C236.858 43.2193 236.353 45.957 233.187 45.4481C230.306 44.9851 230.035 41.3387 227.611 43.3585C223.708 46.6114 221.245 42.1039 218.41 45.4481C216.284 47.956 209.488 46.8438 207.816 48.7955H263.857Z" fill="white" fill-opacity="0.3"/>
<path opacity="0.14" d="M328.453 139.963C328.453 140.081 328.45 140.2 328.447 140.319C328.447 140.388 328.444 140.455 328.444 140.524C328.439 140.831 328.43 141.138 328.418 141.45C328.418 141.47 328.415 141.494 328.415 141.514C328.413 141.627 328.407 141.739 328.404 141.855C328.377 142.624 328.34 143.393 328.291 144.161C328.283 144.326 328.271 144.491 328.259 144.659C328.034 148.076 327.614 151.736 326.978 155.659C326.934 155.934 326.888 156.209 326.842 156.484C326.836 156.516 326.833 156.545 326.827 156.576C326.812 156.654 326.799 156.732 326.787 156.811C326.778 156.869 326.767 156.924 326.758 156.981C326.595 157.931 326.423 158.879 326.24 159.826C325.84 161.906 325.399 163.978 324.918 166.041C324.88 166.206 324.842 166.371 324.802 166.538C324.177 169.19 323.497 171.829 322.762 174.452C322.727 174.588 322.689 174.723 322.65 174.857C322.45 175.566 322.248 176.274 322.042 176.981C321.917 177.398 321.796 177.814 321.672 178.234C321.387 179.186 321.097 180.137 320.801 181.086L318.388 181.104L317.98 181.107L315.873 181.121L314.516 181.13L304.705 181.199L304.129 181.202L302.213 181.217L301.964 181.22L301.464 181.223L295.697 181.263L295.289 181.266L294.751 181.269L292.291 181.286L289.369 181.304L289.008 181.307L281.702 181.359L281.354 181.362H281.352L280.33 181.368L279.043 181.376L278.84 181.379L276.951 181.391L266.853 181.46L266.447 181.463L266.005 181.466L265.478 181.469L264.98 181.472L264.653 181.475L254.96 181.542L254.191 181.547L253.838 181.55H253.786L252.307 181.562L249.981 181.579L249.483 181.582L246.425 181.602L245.389 181.608L238.798 181.654L238.392 181.657L231.139 181.706L230.644 181.712L230.195 181.715H230.186L227.145 181.735L226.555 181.741L225.976 181.744L225.438 181.747H225.302L224.978 181.75H224.897L223.676 181.759H223.656L221.501 181.773L219.426 181.788L218.848 181.793H218.538L217.794 181.799L217.383 181.802L217.059 181.805L216.377 181.811H216.064L212.581 181.834L212.311 181.837H212.175L211.658 181.84L210.659 181.848L210.032 181.854H209.673L208.744 181.863L207.491 181.871L206.996 181.874L173.45 182.106L170.276 182.129L166.856 182.152L165.386 182.161L165.256 182.164L151.851 182.254L146.92 182.291H146.808L146.026 182.297L138.023 182.352L132.178 182.392H132.175L130.156 182.404H130.095L127.745 182.421L126.021 182.433L125.06 182.438L124.43 182.444L124.062 182.447L122.555 182.456L121.742 182.461L120.926 182.467L118.547 182.484H118.544L117.989 182.487L115.634 182.505L110.776 182.537L110.105 182.542L108.383 182.554L107.987 182.557H107.891L100.663 182.609L95.0934 182.647L93.4209 182.658L93.1663 182.661L91.0976 182.673L89.6856 182.681L89.5208 182.684L87.6575 182.699L86.5174 182.705L85.5076 182.713L85.143 182.716H85.0041L83.6527 182.725L82.3594 182.734L80.9302 182.742L80.7942 182.745L79.0812 182.757L76.2776 182.777L74.5559 182.786L72.2615 182.803L70.8406 182.815H70.6728L68.8035 182.829L67.7013 182.835L66.3123 182.843H66.1734L64.8106 182.855L63.5463 182.864L62.1227 182.872L61.9808 182.875L60.2853 182.887L41.1484 183.02L36.8112 183.049L33.6543 183.072L22.2282 183.15L17.891 183.179L8.83474 183.243C2.93803 173.278 0.672536 164.363 0.209546 157.361C-0.0480314 153.576 0.226845 150.347 0.733351 147.815C2.04124 141.294 5.65786 136.554 10.5421 132.524C11.7113 133.392 12.7998 134.365 13.7944 135.429C20.3249 129.986 31.0564 131.025 36.9763 136.896C37.0139 136.93 37.0488 136.962 37.0777 137C37.1501 137.066 37.2166 137.133 37.2801 137.202C38.0296 137.989 38.698 138.857 39.2564 139.806C40.3443 139.025 41.5335 138.362 42.7893 137.824C43.0909 137.694 43.3958 137.571 43.7036 137.457C47.277 136.12 51.3191 135.732 55.1646 136.323C57.9163 136.745 60.5637 137.665 62.8698 139.103C62.9854 139.176 63.1011 139.251 63.2141 139.326C66.9264 133.652 75.8959 132.15 81.2921 136.505C83.5722 132.393 87.7385 129.54 92.3392 128.42C94.0666 128.001 95.8518 127.824 97.6257 127.917C98.9855 127.986 100.337 128.215 101.644 128.614C101.847 128.675 102.05 128.739 102.249 128.811C102.501 128.898 102.753 128.993 103.002 129.094C103.074 129.123 103.146 129.152 103.219 129.187C103.525 129.314 103.826 129.453 104.125 129.601C104.323 129.703 104.52 129.809 104.715 129.919C104.805 129.968 104.897 130.02 104.987 130.073C105.251 129.589 105.536 129.117 105.84 128.658C105.861 128.626 105.881 128.594 105.904 128.562C105.918 128.536 105.936 128.513 105.956 128.487C105.956 128.484 105.956 128.484 105.959 128.484C108.219 125.154 111.364 122.799 114.906 121.381H114.911C116.335 120.808 117.825 120.391 119.344 120.122C121.586 119.729 123.872 119.653 126.135 119.897C129.483 120.25 132.758 121.286 135.625 122.981C135.851 123.114 136.071 123.25 136.291 123.392C139.85 125.672 142.714 129.002 144.216 133.334C145.524 131.93 147.196 130.941 149.022 130.356C153.747 128.846 159.511 130.064 162.685 133.933C164.788 129.78 168.743 126.893 173.188 125.617C177.924 124.257 183.214 124.729 187.412 127.443C187.792 127.689 188.16 127.953 188.517 128.232C189.569 126.967 190.788 125.85 192.14 124.911C197.432 121.213 204.474 120.336 210.762 122.011C212.521 122.48 214.222 123.145 215.811 124.008C218.522 125.481 220.903 127.517 222.677 130.09V130.093C223.118 130.731 223.517 131.397 223.872 132.086C224.112 131.929 224.359 131.783 224.613 131.647C225.328 131.266 226.083 130.963 226.864 130.744C228.094 130.399 229.368 130.237 230.645 130.264C230.81 130.264 230.975 130.269 231.14 130.281C233.796 130.417 236.421 131.326 238.394 132.972C238.426 132.995 238.458 133.024 238.489 133.05C238.591 132.856 238.692 132.662 238.799 132.471C239.713 130.834 240.865 129.358 242.196 128.068C242.664 127.609 243.155 127.174 243.669 126.766C244.441 126.144 245.256 125.578 246.108 125.07C246.413 124.888 246.723 124.713 247.036 124.546C247.829 124.122 248.647 123.744 249.484 123.415C249.649 123.349 249.814 123.285 249.982 123.224C251.916 122.51 253.936 122.053 255.989 121.864C256.325 121.832 256.661 121.809 256.998 121.795C258.732 121.714 260.471 121.827 262.172 122.151C262.337 122.18 262.502 122.214 262.667 122.249H262.669C263.33 122.391 263.982 122.565 264.626 122.77C264.987 122.886 265.346 123.01 265.699 123.149C267.192 123.719 268.608 124.475 269.912 125.4C270.994 123.45 272.325 121.682 273.856 120.111C275.01 118.921 276.272 117.841 277.626 116.885C277.96 116.645 278.299 116.412 278.644 116.188C278.661 116.176 278.682 116.164 278.699 116.153C278.826 116.072 278.954 115.991 279.081 115.913C279.285 115.785 279.49 115.66 279.697 115.539C280.335 115.163 280.986 114.812 281.65 114.486C281.995 114.315 282.343 114.15 282.695 113.994C289.075 111.135 296.508 110.409 303.273 112.163C303.661 112.264 304.043 112.371 304.425 112.49C305.749 112.889 307.04 113.392 308.285 113.994C308.612 114.15 308.935 114.314 309.254 114.486C310.552 115.177 311.788 115.979 312.946 116.885C313.263 117.13 313.573 117.384 313.875 117.646C313.935 117.577 313.999 117.507 314.063 117.441C314.236 117.251 314.414 117.066 314.598 116.885C315.515 115.974 316.545 115.173 317.662 114.487C317.941 114.313 318.226 114.149 318.516 113.995C319.766 113.315 321.088 112.776 322.456 112.386C322.76 112.915 323.051 113.451 323.327 113.995C323.412 114.157 323.492 114.322 323.576 114.487C323.965 115.274 324.328 116.074 324.665 116.885C325.1 117.945 325.495 119.021 325.848 120.111C325.926 120.357 326.004 120.609 326.082 120.861C326.253 121.427 326.415 121.996 326.565 122.568C326.861 123.676 327.124 124.834 327.352 126.037C327.384 126.199 327.416 126.367 327.445 126.532C327.754 128.236 327.998 130.033 328.171 131.931L328.206 132.334L328.241 132.759H328.244C328.284 133.277 328.319 133.804 328.348 134.339C328.447 136.129 328.485 138.001 328.453 139.963Z" fill="#C2EDFF"/>
<path opacity="0.14" d="M326.841 156.483C326.836 156.515 326.833 156.544 326.827 156.576C326.812 156.654 326.799 156.732 326.786 156.81C326.778 156.868 326.766 156.923 326.758 156.981C326.595 157.931 326.422 158.879 326.24 159.825C325.84 161.905 325.399 163.977 324.918 166.04C324.88 166.205 324.842 166.37 324.802 166.538C324.177 169.19 323.497 171.828 322.762 174.451C322.727 174.587 322.689 174.722 322.649 174.856C322.45 175.565 322.248 176.273 322.042 176.98C321.917 177.397 321.796 177.814 321.671 178.233C321.387 179.186 321.097 180.137 320.801 181.086C320.623 181.659 320.442 182.231 320.257 182.802C319.912 183.881 319.556 184.975 319.189 186.083C319.186 186.088 319.186 186.094 319.183 186.1C319.128 186.262 319.076 186.427 319.018 186.592L318.914 186.904C318.473 188.22 318.02 189.532 317.557 190.839C317.51 190.972 317.464 191.109 317.415 191.242C317.184 191.895 316.946 192.555 316.706 193.221C316.341 194.225 315.968 195.24 315.586 196.264C315.563 196.322 315.543 196.38 315.52 196.441C315.43 196.684 315.338 196.927 315.245 197.173C315.121 197.509 314.993 197.844 314.863 198.183C313.809 200.955 312.721 203.715 311.599 206.461C311.533 206.623 311.464 206.788 311.397 206.953C311.324 207.126 311.255 207.3 311.183 207.474C311.128 207.607 311.073 207.743 311.015 207.876C310.656 208.749 310.293 209.621 309.927 210.491C309.921 210.503 309.918 210.514 309.913 210.526H33C32.9854 210.514 32.974 210.503 32.9594 210.491C32.8148 210.373 32.6702 210.251 32.5253 210.13L32.0942 209.768C30.5283 208.45 28.9924 207.096 27.4879 205.708C27.4678 205.691 27.4485 205.673 27.43 205.654C27.3576 205.59 27.2881 205.523 27.2157 205.46C26.4825 204.78 25.7582 204.092 25.0429 203.394C24.9878 203.342 24.9329 203.29 24.881 203.237C24.7197 203.083 24.5605 202.927 24.4034 202.769C24.1923 202.56 23.981 202.352 23.7756 202.147L23.5066 201.877C23.3909 201.759 23.2723 201.64 23.1566 201.521C22.9512 201.313 22.7485 201.108 22.549 200.899C22.3466 200.694 22.1468 200.485 21.9501 200.28C21.5583 199.87 21.1696 199.457 20.7841 199.042C17.1123 195.083 14.0541 191.209 11.5135 187.462C10.5755 186.084 9.68197 184.676 8.83418 183.241C2.93747 173.276 0.671975 164.361 0.208984 157.359C4.5432 160.579 7.86792 165.157 9.23635 170.799C16.0272 166.502 25.7202 167.5 31.4231 172.723C36.4663 167.339 43.5322 164.578 50.7339 164.257H50.7368C50.8641 164.251 50.9944 164.245 51.1217 164.245C53.1269 164.176 55.1378 164.3 57.1168 164.61C64.5876 165.77 71.5955 169.561 75.9589 175.767C77.6427 174.282 79.5439 173.14 81.5691 172.326C83.8462 171.409 86.2795 170.906 88.7361 170.796C92.7609 170.616 96.8435 171.487 100.397 173.31C103.452 174.873 106.117 177.138 108.015 180.043C111.117 176.759 116.499 175.521 120.833 176.881C121.389 177.052 121.93 177.271 122.45 177.534C122.824 176.567 123.28 175.634 123.813 174.745C125.401 172.095 127.618 169.91 130.201 168.249C131.79 167.231 133.514 166.409 135.317 165.801C139.371 164.424 143.815 164.123 147.95 165.046C151.376 165.81 154.59 167.416 157.194 169.951C164.572 162.789 178.021 164.439 183.486 172.879C187.289 167.083 196.582 165.816 201.787 170.324C202.797 165.961 205.202 162.41 208.384 159.786C209.675 158.718 211.096 157.804 212.603 157.052C212.871 156.917 213.142 156.789 213.416 156.667C213.53 156.612 213.646 156.56 213.763 156.514C216.092 155.501 218.598 154.859 221.133 154.613C221.818 154.546 222.505 154.509 223.193 154.5C223.917 154.491 224.641 154.515 225.363 154.572C226.321 154.648 227.275 154.784 228.213 154.98C229.035 155.151 229.846 155.37 230.643 155.634C230.811 155.689 230.973 155.747 231.138 155.808C233.676 156.725 236.034 158.14 238.042 160.081C238.161 160.194 238.276 160.31 238.392 160.429C238.467 160.504 238.543 160.582 238.612 160.66C238.676 160.724 238.736 160.787 238.797 160.854C239.396 161.505 239.949 162.196 240.452 162.923C241.313 162.287 242.237 161.742 243.21 161.297C243.503 161.163 243.8 161.039 244.101 160.923C245.21 160.495 246.361 160.184 247.535 159.997C247.895 159.94 248.257 159.894 248.62 159.859C249.072 159.814 249.526 159.787 249.98 159.777C251.255 159.749 252.53 159.852 253.785 160.084C253.921 160.107 254.057 160.133 254.19 160.165C256.757 160.695 259.201 161.759 261.273 163.305C261.533 163.499 261.788 163.701 262.037 163.909C263.035 164.754 263.932 165.718 264.69 166.8C264.785 166.704 264.881 166.612 264.979 166.522C265.141 166.371 265.306 166.227 265.477 166.088C265.59 165.995 265.706 165.903 265.824 165.816C266.027 165.663 266.235 165.518 266.446 165.382C266.579 165.295 266.716 165.211 266.852 165.13C267.119 164.973 267.392 164.826 267.671 164.691C267.954 164.553 268.242 164.427 268.536 164.312C270.194 163.661 271.996 163.371 273.787 163.429C274.433 163.452 275.077 163.519 275.714 163.629C275.784 163.641 275.853 163.655 275.922 163.667C276.757 163.824 277.574 164.063 278.362 164.378C278.923 164.599 279.467 164.864 279.988 165.168C280.436 165.428 280.865 165.719 281.272 166.039L281.31 166.068C281.501 166.218 281.687 166.375 281.868 166.537C282.264 166.892 282.631 167.277 282.968 167.689C283.47 167.276 283.995 166.892 284.539 166.537C284.801 166.363 285.069 166.197 285.341 166.039C286.576 165.313 287.898 164.72 289.276 164.26C290.047 164.001 290.832 163.785 291.628 163.615C291.825 163.571 292.024 163.531 292.221 163.493C292.351 163.467 292.484 163.444 292.615 163.421C294.504 163.094 296.44 162.995 298.341 163.14C298.509 163.149 298.679 163.163 298.847 163.184C301.691 163.452 304.446 164.263 306.839 165.623C308.147 162.761 310.369 160.446 313.054 158.806C313.451 158.563 313.857 158.336 314.272 158.125V158.123C314.278 158.123 314.281 158.12 314.287 158.117V158.114C314.408 158.053 314.527 157.992 314.648 157.932C315.418 157.562 316.212 157.244 317.024 156.98C317.492 156.827 317.97 156.691 318.45 156.575C319.364 156.35 320.293 156.194 321.231 156.109H321.236C322.544 155.987 323.861 156.007 325.151 156.175C325.322 156.195 325.492 156.221 325.66 156.248C326.057 156.312 326.451 156.391 326.841 156.483Z" fill="white"/>
<path d="M185.489 203.756C185.489 204.601 185.396 205.408 185.229 206.157C184.748 208.304 183.637 209.956 182.26 210.526C182.091 210.599 181.914 210.653 181.733 210.688H181.73C181.556 210.725 181.379 210.744 181.201 210.743H175.88C175.551 210.703 175.228 210.63 174.913 210.526H32.9999C28.3211 206.646 24.2764 202.806 20.7838 199.042C17.112 195.084 14.0538 191.21 11.5132 187.463C12.2683 186.363 13.2638 185.695 14.3573 185.695C15.0025 185.695 15.6101 185.935 16.1598 186.352C16.5215 185.023 17.1291 183.915 17.8902 183.177C18.5297 182.558 19.2762 182.2 20.0749 182.2C20.8589 182.2 21.5968 182.544 22.2276 183.148C22.8642 183.753 23.3966 184.621 23.7699 185.657C24.282 185.307 24.8434 185.113 25.4337 185.113C27.5835 185.113 29.3571 187.694 29.6668 191.059C30.4336 189.901 31.455 189.19 32.5805 189.19C32.7078 189.19 32.8351 189.204 32.9624 189.224C33.6364 186.796 35.1295 185.113 36.8655 185.113C38.4134 185.113 39.7618 186.449 40.517 188.455C40.2913 186.802 40.4243 185.023 40.9827 183.443C41.0348 183.296 41.0897 183.154 41.1475 183.018C42.0068 180.943 43.4506 179.846 44.909 179.962C44.912 179.956 44.912 179.951 44.9147 179.948C46.0983 176.606 48.7195 175.46 50.7709 177.39C51.6879 178.252 52.3334 179.589 52.6631 181.099C53.9826 179.626 55.7532 179.412 57.229 180.807C57.4201 180.984 57.5936 181.189 57.7614 181.406C58.2793 178.498 59.9228 176.371 61.8729 176.371C62.5184 176.371 63.1286 176.611 63.6757 177.025C64.3441 174.583 65.8428 172.879 67.5904 172.879C69.1675 172.879 70.5419 174.271 71.2854 176.337C71.7976 175.984 72.359 175.79 72.9493 175.79C75.0991 175.79 76.8757 178.371 77.1854 181.736C77.9492 180.578 78.9706 179.866 80.0963 179.866C80.2266 179.866 80.3539 179.881 80.4812 179.898C81.1526 177.479 82.6456 175.79 84.3816 175.79C86.1987 175.79 87.7496 177.636 88.3745 180.24C88.8026 180.003 89.2626 179.867 89.7432 179.867C91.1408 179.867 92.3849 180.963 93.166 182.659C93.3059 182.962 93.4276 183.273 93.5306 183.591C94.7717 182.59 96.285 182.584 97.5727 183.796C98.4897 184.661 99.1351 186.001 99.4649 187.511C100.784 186.033 102.555 185.822 104.034 187.213C104.226 187.399 104.403 187.599 104.563 187.812C105.084 184.907 106.727 182.783 108.678 182.783C109.32 182.783 109.93 183.018 110.477 183.434C110.561 183.13 110.661 182.829 110.775 182.535C111.533 180.582 112.87 179.285 114.392 179.285C115.903 179.285 117.225 180.561 117.989 182.485C118.026 182.569 118.058 182.656 118.09 182.746C118.233 182.645 118.385 182.557 118.545 182.483C118.921 182.297 119.334 182.2 119.754 182.199C120.162 182.199 120.555 182.292 120.926 182.465C122.52 183.206 123.736 185.42 123.987 188.148C124.751 186.991 125.772 186.273 126.898 186.273C127.028 186.273 127.155 186.288 127.283 186.308C127.818 184.381 128.871 182.92 130.156 182.402C130.483 182.268 130.833 182.2 131.186 182.199C131.526 182.199 131.863 182.264 132.178 182.39C133.553 182.92 134.669 184.532 135.176 186.646C135.607 186.412 136.064 186.273 136.545 186.273C138.912 186.273 140.833 189.407 140.833 193.267C140.833 193.333 140.827 193.394 140.824 193.461C141.307 193.596 141.785 193.863 142.233 194.285C143.15 195.15 143.796 196.484 144.126 197.994C145.442 196.522 147.216 196.311 148.691 197.702C148.882 197.882 149.056 198.084 149.221 198.301C149.742 195.396 151.385 193.267 153.335 193.267C153.981 193.267 154.588 193.507 155.138 193.924C155.806 191.479 157.305 189.771 159.053 189.771C160.63 189.771 162.004 191.163 162.748 193.235C163.26 192.879 163.821 192.688 164.412 192.688C166.561 192.688 168.335 195.269 168.645 198.631C169.412 197.477 170.43 196.762 171.556 196.762C171.686 196.762 171.813 196.777 171.941 196.797C172.615 194.375 174.108 192.688 175.844 192.688C176.822 192.688 177.719 193.22 178.439 194.126C179.061 194.89 179.544 195.931 179.834 197.135C180.265 196.895 180.725 196.762 181.203 196.762C183.509 196.762 185.387 199.725 185.485 203.443C185.489 203.548 185.489 203.652 185.489 203.756Z" fill="#5B9B18"/>
<path d="M183.351 210.318C183.18 210.396 183.006 210.469 182.827 210.527C182.624 210.596 182.416 210.651 182.205 210.691H182.193C182.061 210.719 181.928 210.739 181.794 210.752C181.643 210.773 181.496 210.781 181.348 210.781C181.251 210.787 181.153 210.787 181.056 210.781C180.914 210.781 180.772 210.767 180.633 210.752C180.616 210.752 180.599 210.749 180.581 210.749L177.622 210.752L176.019 210.758H176.004L136.164 210.819C136.358 210.819 136.549 210.796 136.74 210.752C136.754 210.749 136.769 210.749 136.784 210.744H175.879C175.551 210.704 175.227 210.631 174.913 210.527H32.9993C28.3205 206.646 24.2758 202.807 20.7832 199.043C21.1749 199.188 21.544 199.387 21.8797 199.636C22.1892 197.978 23.9631 196.702 26.1129 196.702C26.7032 196.702 27.2645 196.797 27.7767 196.971C28.5203 195.953 29.8946 195.264 31.4717 195.264C33.2193 195.264 34.7181 196.109 35.3865 197.313C35.9632 197.099 36.5738 196.99 37.189 196.991C39.139 196.991 40.7826 198.039 41.3005 199.471C41.4714 199.361 41.6492 199.263 41.8329 199.176C43.3086 198.49 45.0795 198.594 46.3988 199.32C46.7288 198.577 47.3739 197.914 48.291 197.492C49.5816 196.89 51.0946 196.896 52.336 197.388C53.0566 196.297 54.4802 195.55 56.1235 195.55C56.6037 195.55 57.0608 195.617 57.4922 195.735C58.117 194.451 59.6652 193.542 61.4823 193.542C63.2183 193.542 64.7113 194.372 65.3854 195.565C65.5127 195.562 65.64 195.55 65.7703 195.55C66.896 195.55 67.9144 195.906 68.6812 196.476C68.991 194.815 70.7646 193.542 72.9144 193.542C73.5047 193.542 74.066 193.635 74.5779 193.812C75.3245 192.79 76.6988 192.102 78.2729 192.102C80.0206 192.102 81.5193 192.946 82.1877 194.15C82.7649 193.937 83.3751 193.829 83.9902 193.829C85.9403 193.829 87.5838 194.876 88.1047 196.311C88.2735 196.199 88.4504 196.099 88.6341 196.013C90.1129 195.331 91.8835 195.435 93.2 196.161C93.53 195.414 94.1752 194.755 95.0952 194.329C97.1437 193.378 99.7654 193.942 100.952 195.594L100.955 195.6C102.508 195.536 104.05 196.155 104.881 197.315C105.439 198.094 105.575 198.973 105.35 199.789C106.102 198.797 107.453 198.137 108.998 198.137C110.737 198.137 112.227 198.973 112.901 200.165C113.029 200.156 113.156 200.151 113.286 200.151C114.412 200.151 115.433 200.501 116.197 201.071C116.506 199.41 118.283 198.137 120.43 198.137C121.02 198.137 121.584 198.235 122.094 198.412C122.84 197.387 124.215 196.701 125.791 196.701C127.536 196.701 129.038 197.54 129.706 198.75C130.281 198.532 130.891 198.422 131.506 198.423C133.456 198.423 135.1 199.476 135.621 200.905C135.785 200.801 135.962 200.697 136.15 200.613C137.628 199.925 139.399 200.032 140.719 200.761C141.049 200.014 141.694 199.355 142.611 198.929C144.662 197.977 147.284 198.542 148.467 200.188C148.467 200.194 148.47 200.194 148.47 200.2C150.024 200.133 151.566 200.755 152.397 201.915H152.4C152.577 201.896 152.756 201.885 152.935 201.884C153.522 201.884 154.086 201.976 154.599 202.153C155.339 201.128 156.714 200.44 158.288 200.44C160.035 200.434 161.537 201.273 162.208 202.477C162.785 202.264 163.394 202.155 164.008 202.152C165.961 202.152 167.604 203.194 168.128 204.629C168.296 204.519 168.47 204.421 168.661 204.331C169.795 203.802 171.106 203.741 172.251 204.071C172.589 204.168 172.916 204.301 173.226 204.467C173.553 203.724 174.198 203.067 175.116 202.639C176.45 202.014 178.029 202.034 179.297 202.581C179.974 202.873 180.561 203.313 180.975 203.889C180.975 203.892 180.975 203.892 180.978 203.897C182.531 203.831 184.074 204.45 184.91 205.605C185.037 205.784 185.144 205.969 185.228 206.157C185.929 207.7 185.176 209.47 183.351 210.318Z" fill="#48820C"/>
<path d="M220.954 210.78C221.156 210.809 221.364 210.818 221.573 210.818L210.109 210.78H220.954ZM320.256 182.801C319.911 183.88 319.555 184.974 319.188 186.082C319.185 186.088 319.185 186.094 319.182 186.099C319.127 186.262 319.075 186.426 319.017 186.591L318.913 186.904C318.472 188.219 318.019 189.531 317.556 190.839C317.509 190.972 317.463 191.108 317.414 191.241C317.183 191.895 316.945 192.555 316.705 193.22C316.34 194.224 315.967 195.239 315.585 196.264C315.562 196.322 315.542 196.38 315.519 196.44C315.429 196.683 315.337 196.927 315.244 197.172C315.12 197.508 314.992 197.844 314.862 198.182C313.808 200.955 312.72 203.714 311.598 206.46C311.532 206.622 311.462 206.787 311.396 206.952C311.323 207.126 311.254 207.299 311.182 207.473C311.127 207.606 311.072 207.742 311.014 207.875C310.655 208.748 310.292 209.62 309.926 210.491C309.92 210.502 309.917 210.514 309.912 210.525H182.827C182.625 210.595 182.416 210.65 182.205 210.69H182.193L181.733 210.687H181.73L177.153 210.673C176.999 210.71 176.842 210.733 176.684 210.742C176.601 210.748 176.518 210.748 176.435 210.742C176.099 210.733 175.768 210.659 175.46 210.525L175.382 210.49C175.038 210.337 174.705 210.111 174.383 209.808C173.478 208.948 172.836 207.638 172.506 206.15C172.352 205.467 172.267 204.77 172.251 204.07C172.216 202.779 172.399 201.457 172.827 200.254C173.66 197.91 175.205 196.654 176.759 196.782C176.759 196.782 176.759 196.776 176.762 196.773C177.176 195.613 177.76 194.716 178.437 194.126C179.705 193.012 181.284 192.968 182.621 194.233C183.538 195.098 184.184 196.437 184.51 197.948C185.83 196.481 187.6 196.272 189.076 197.67C189.267 197.846 189.441 198.052 189.606 198.269C190.129 195.367 191.776 193.243 193.726 193.252C194.371 193.252 194.979 193.492 195.528 193.908C196.197 191.469 197.701 189.771 199.446 189.774C201.023 189.779 202.395 191.177 203.138 193.243C203.65 192.893 204.212 192.699 204.802 192.705C204.984 192.705 205.161 192.728 205.337 192.766C205.627 191.947 206.006 191.258 206.443 190.717C207.189 189.78 208.109 189.276 209.049 189.276C209.119 189.276 209.191 189.279 209.264 189.285C209.266 189.279 209.266 189.276 209.269 189.271C209.868 187.578 210.838 186.447 211.914 185.995C212.961 185.556 214.113 185.758 215.126 186.713C216.043 187.578 216.688 188.912 217.018 190.422C217.596 189.774 218.265 189.372 218.957 189.239C219.637 189.112 220.34 189.245 221.008 189.673V189.676C221.205 189.798 221.396 189.948 221.584 190.124C221.775 190.304 221.949 190.512 222.116 190.729C222.333 189.523 222.742 188.446 223.288 187.604C223.609 187.106 223.98 186.687 224.388 186.372C224.56 186.236 224.745 186.118 224.941 186.019C225.346 185.808 225.78 185.695 226.228 185.695C226.254 185.695 226.283 185.695 226.309 185.698C226.481 185.701 226.651 185.723 226.818 185.764H226.821C226.821 185.764 226.824 185.764 226.824 185.767C227.226 185.857 227.605 186.042 227.964 186.305H227.967C227.987 186.319 228.01 186.334 228.03 186.351C228.033 186.337 228.039 186.322 228.042 186.311C228.12 186.03 228.21 185.761 228.308 185.503C228.841 184.109 229.665 183.038 230.643 182.529C230.802 182.445 230.97 182.376 231.138 182.327C231.162 182.316 231.187 182.308 231.213 182.303C231.451 182.234 231.698 182.199 231.945 182.199C232.371 182.199 232.779 182.301 233.164 182.488C234.214 182.995 235.096 184.146 235.64 185.657C236.152 185.307 236.714 185.113 237.304 185.113C237.68 185.113 238.045 185.191 238.392 185.338C238.528 185.399 238.664 185.469 238.797 185.549C239.468 185.955 240.059 186.629 240.521 187.491C240.597 187.627 240.666 187.769 240.733 187.916C241.074 188.657 241.326 189.508 241.465 190.434C241.497 190.639 241.52 190.847 241.54 191.059C241.661 190.876 241.786 190.706 241.919 190.546C242.602 189.727 243.438 189.227 244.343 189.195C244.378 189.19 244.416 189.19 244.45 189.19C244.578 189.19 244.708 189.204 244.832 189.224C244.916 188.921 245.015 188.623 245.13 188.33C245.182 188.197 245.24 188.067 245.295 187.939C245.402 187.711 245.512 187.494 245.633 187.288C246.412 185.949 247.514 185.113 248.735 185.113C248.99 185.113 249.241 185.147 249.482 185.22C249.652 185.266 249.817 185.333 249.979 185.411C250.992 185.914 251.843 187.011 252.387 188.455C252.202 187.103 252.256 185.665 252.592 184.323C252.63 184.161 252.673 183.999 252.722 183.843C252.763 183.707 252.806 183.574 252.853 183.443C253.105 182.734 253.42 182.121 253.784 181.621C253.802 181.597 253.819 181.571 253.836 181.548C253.949 181.395 254.068 181.253 254.189 181.123C254.953 180.295 255.864 179.89 256.782 179.962C256.782 179.957 256.782 179.951 256.784 179.948C257.968 176.606 260.589 175.46 262.641 177.39C263.558 178.252 264.203 179.589 264.533 181.099C264.603 181.024 264.672 180.952 264.742 180.882C264.82 180.807 264.898 180.735 264.979 180.665C265.141 180.526 265.306 180.408 265.476 180.306C265.706 180.165 265.953 180.055 266.211 179.979C266.289 179.956 266.368 179.939 266.446 179.925C266.579 179.896 266.715 179.878 266.851 179.872C267.615 179.838 268.39 180.136 269.102 180.807C269.29 180.984 269.464 181.189 269.631 181.406C270.083 178.889 271.376 176.956 272.982 176.484C273.23 176.409 273.487 176.371 273.746 176.371C274.206 176.371 274.652 176.496 275.065 176.719C275.23 176.806 275.389 176.907 275.546 177.026C275.569 176.939 275.595 176.849 275.624 176.765C275.722 176.435 275.838 176.12 275.968 175.825V175.822C276.02 175.703 276.075 175.587 276.13 175.474C276.304 175.122 276.508 174.786 276.741 174.47C276.813 174.372 276.891 174.277 276.97 174.184C277.132 173.993 277.302 173.822 277.482 173.672C277.54 173.622 277.6 173.573 277.661 173.53C278.205 173.111 278.819 172.879 279.461 172.879C279.597 172.879 279.73 172.891 279.863 172.911C279.982 172.928 280.1 172.954 280.219 172.989C280.699 173.128 281.154 173.4 281.564 173.782C281.784 173.986 281.984 174.21 282.163 174.45C282.262 174.577 282.354 174.713 282.441 174.855C282.542 175.008 282.635 175.171 282.722 175.338C282.889 175.661 283.034 175.994 283.156 176.337C283.668 175.984 284.23 175.79 284.82 175.79C285.19 175.79 285.549 175.868 285.893 176.016H285.896C287.456 176.672 288.668 178.724 289.007 181.305C289.027 181.446 289.042 181.591 289.056 181.736C289.157 181.582 289.261 181.438 289.368 181.302C290.092 180.402 290.989 179.866 291.967 179.866C291.99 179.866 292.016 179.866 292.039 179.869C292.143 179.872 292.247 179.884 292.351 179.898C292.699 178.648 293.266 177.592 293.972 176.866C294.122 176.711 294.284 176.567 294.455 176.435C294.574 176.345 294.695 176.264 294.82 176.192V176.189C295.268 175.931 295.751 175.79 296.255 175.79C298.072 175.79 299.62 177.636 300.245 180.24C300.56 180.066 300.89 179.948 301.235 179.896C301.36 179.876 301.487 179.866 301.613 179.867C301.654 179.867 301.695 179.867 301.732 179.87C302.626 179.91 303.451 180.396 304.128 181.201C304.655 181.825 305.094 182.641 305.401 183.591C306.642 182.59 308.155 182.584 309.443 183.796C310.062 184.381 310.56 185.179 310.913 186.099C310.976 186.258 311.034 186.423 311.089 186.591C311.185 186.889 311.266 187.196 311.335 187.511C311.697 187.106 312.09 186.799 312.501 186.591C313.259 186.209 314.081 186.169 314.868 186.513C314.923 186.536 314.978 186.562 315.033 186.591C315.35 186.758 315.644 186.967 315.904 187.213C316.054 187.356 316.194 187.509 316.323 187.67C316.358 187.716 316.396 187.763 316.433 187.812C316.506 187.399 316.607 186.991 316.734 186.591C316.786 186.423 316.841 186.258 316.905 186.099C317.272 185.121 317.787 184.305 318.401 183.727C318.513 183.616 318.633 183.514 318.76 183.42C319.22 183.076 319.726 182.859 320.256 182.801Z" fill="#5B9B18"/>
<path d="M315.586 196.265C315.563 196.323 315.543 196.38 315.52 196.441C315.43 196.684 315.337 196.928 315.245 197.173C315.12 197.509 314.993 197.845 314.863 198.183C313.809 200.956 312.721 203.715 311.599 206.461C311.532 206.623 311.463 206.788 311.396 206.953C311.324 207.127 311.255 207.3 311.182 207.474C311.128 207.607 311.072 207.743 311.015 207.876C310.656 208.749 310.293 209.621 309.927 210.492C309.921 210.503 309.918 210.515 309.912 210.526H182.827C182.625 210.596 182.416 210.651 182.205 210.691L201.513 210.752L205.179 210.764L210.109 210.781H176.534C176.361 210.781 176.187 210.772 176.019 210.758C176.008 210.758 175.999 210.752 175.99 210.752C175.953 210.749 175.918 210.749 175.88 210.743C175.552 210.703 175.228 210.631 174.914 210.526C174.882 210.515 174.85 210.506 174.818 210.492C173.308 209.959 172.249 208.747 172.249 207.338C172.249 206.921 172.342 206.525 172.507 206.151C173.106 204.832 174.682 203.889 176.534 203.889C177.015 203.889 177.475 203.955 177.903 204.068C178.192 203.472 178.678 202.963 179.298 202.581C180.018 202.138 180.918 201.872 181.896 201.872C183.398 201.872 184.72 202.5 185.484 203.443C185.602 203.585 185.71 203.741 185.799 203.903C185.924 203.892 186.051 203.889 186.181 203.889C187.307 203.889 188.328 204.236 189.092 204.809C189.402 203.148 191.178 201.872 193.328 201.872C193.918 201.872 194.48 201.973 194.992 202.141C195.735 201.123 197.109 200.44 198.687 200.44C200.434 200.44 201.933 201.279 202.601 202.482C203.178 202.269 203.789 202.161 204.404 202.161C204.858 202.161 205.298 202.219 205.709 202.326C207.06 202.67 208.119 203.544 208.515 204.644C208.683 204.54 208.857 204.435 209.048 204.352C209.595 204.097 210.185 203.945 210.787 203.903C211.785 203.825 212.786 204.036 213.614 204.491C213.944 203.747 214.589 203.09 215.506 202.662C215.951 202.457 216.426 202.32 216.912 202.257C216.912 202.222 216.906 202.193 216.906 202.161C216.906 201.976 216.924 201.797 216.958 201.62C216.99 201.455 217.039 201.293 217.1 201.14C217.326 200.547 217.748 200.02 218.304 199.615H218.307V199.612C218.894 199.181 219.629 198.883 220.445 198.767C220.693 198.73 220.944 198.711 221.194 198.712C221.672 198.712 222.132 198.779 222.563 198.894C222.569 198.882 222.576 198.87 222.583 198.859V198.857C223.107 197.818 224.236 197.031 225.621 196.785C225.929 196.729 226.241 196.701 226.553 196.701C228.289 196.701 229.782 197.531 230.456 198.729C230.52 198.726 230.581 198.721 230.644 198.718C230.809 198.709 230.974 198.71 231.139 198.721C232.146 198.775 233.055 199.117 233.752 199.635C234.061 197.977 235.835 196.701 237.985 196.701C238.124 196.701 238.26 196.707 238.393 196.715C238.529 196.727 238.665 196.741 238.798 196.765C239.093 196.808 239.377 196.878 239.649 196.97C240.395 195.952 241.767 195.263 243.344 195.263C243.381 195.263 243.419 195.263 243.457 195.266C243.797 195.271 244.135 195.31 244.467 195.384C245.717 195.656 246.738 196.377 247.259 197.312C247.836 197.098 248.446 196.989 249.061 196.99C249.203 196.99 249.345 196.996 249.484 197.008C249.652 197.019 249.819 197.042 249.981 197.072C251.515 197.341 252.739 198.269 253.176 199.47C253.341 199.363 253.514 199.265 253.705 199.175C253.731 199.164 253.76 199.149 253.786 199.14C253.919 199.079 254.055 199.028 254.191 198.984C255.56 198.518 257.096 198.672 258.271 199.32C258.601 198.576 259.246 197.914 260.163 197.491C260.498 197.337 260.848 197.219 261.208 197.141H261.211C261.69 197.041 262.181 197.008 262.669 197.043C263.204 197.077 263.725 197.196 264.208 197.387C264.421 197.069 264.682 196.786 264.981 196.548C265.137 196.426 265.302 196.314 265.479 196.209C265.784 196.031 266.109 195.888 266.448 195.784C266.578 195.74 266.714 195.703 266.853 195.674C267.215 195.593 267.599 195.55 267.996 195.55C268.476 195.55 268.933 195.616 269.364 195.735C269.471 195.512 269.607 195.301 269.772 195.104C270.166 194.615 270.71 194.213 271.352 193.941H271.355C271.951 193.683 272.631 193.541 273.354 193.541C274.214 193.541 275.018 193.747 275.686 194.097C276.294 194.412 276.792 194.849 277.133 195.364C277.179 195.431 277.22 195.497 277.258 195.564C277.385 195.561 277.512 195.55 277.642 195.55C278.311 195.55 278.942 195.674 279.506 195.9C279.772 196.004 280.024 196.128 280.255 196.273C280.359 196.337 280.458 196.406 280.553 196.475C280.649 195.952 280.892 195.469 281.247 195.049C281.303 194.985 281.357 194.921 281.418 194.861C281.855 194.412 282.425 194.053 283.082 193.825H283.085C283.227 193.776 283.374 193.732 283.525 193.695C283.937 193.591 284.361 193.54 284.786 193.541C284.902 193.541 285.018 193.544 285.13 193.553H285.133C285.599 193.582 286.042 193.669 286.45 193.811C286.615 193.582 286.809 193.375 287.026 193.194C287.807 192.52 288.915 192.101 290.148 192.101C290.341 192.101 290.532 192.112 290.718 192.132C291.444 192.211 292.115 192.436 292.68 192.772C293.275 193.125 293.756 193.6 294.06 194.149C294.637 193.936 295.247 193.827 295.862 193.828C296.253 193.828 296.635 193.871 296.993 193.952C297.167 193.99 297.338 194.036 297.502 194.091V194.094C297.653 194.143 297.8 194.198 297.942 194.262C298.917 194.699 299.658 195.431 299.976 196.31C300.141 196.2 300.318 196.102 300.506 196.012C301.495 195.555 302.615 195.451 303.642 195.648C303.645 195.651 303.648 195.651 303.651 195.651C303.738 195.668 303.825 195.685 303.911 195.709C303.932 195.714 303.952 195.717 303.969 195.723C304.01 195.732 304.05 195.743 304.091 195.757C304.096 195.76 304.102 195.76 304.108 195.763C304.154 195.775 304.201 195.789 304.247 195.804C304.334 195.83 304.418 195.862 304.499 195.89C304.603 195.931 304.701 195.974 304.799 196.021C304.802 196.024 304.808 196.024 304.811 196.026C304.901 196.067 304.988 196.113 305.074 196.159C305.081 196.143 305.089 196.128 305.098 196.113C305.243 195.794 305.44 195.501 305.679 195.245C306.018 194.884 306.449 194.568 306.967 194.328C309.015 193.376 311.64 193.94 312.823 195.592L312.826 195.598C313.778 195.557 314.727 195.777 315.505 196.22C315.534 196.233 315.56 196.25 315.586 196.265Z" fill="#48820C"/>
<path d="M313.242 211.027V211.461C313.242 211.531 313.229 211.601 313.202 211.667C313.175 211.732 313.135 211.792 313.085 211.842C313.035 211.892 312.975 211.931 312.91 211.958C312.845 211.985 312.775 211.999 312.704 211.999H15.5904C15.4477 211.999 15.311 211.942 15.2101 211.841C15.1092 211.74 15.0525 211.603 15.0522 211.461V211.027C15.0522 210.731 15.2952 210.491 15.5904 210.491H312.704C312.842 210.49 312.975 210.543 313.075 210.638C313.174 210.733 313.233 210.863 313.239 211C313.242 211.009 313.242 211.018 313.242 211.027ZM333.739 211.027V211.461C333.739 211.591 333.693 211.707 333.618 211.799C333.522 211.921 333.372 211.999 333.204 211.999H319.848C319.777 211.999 319.707 211.985 319.642 211.958C319.576 211.931 319.517 211.892 319.467 211.842C319.417 211.792 319.377 211.732 319.35 211.667C319.323 211.602 319.31 211.532 319.31 211.461V211.027C319.31 210.732 319.55 210.491 319.848 210.491H333.204C333.346 210.492 333.482 210.548 333.582 210.648C333.683 210.749 333.739 210.885 333.739 211.027Z" fill="#232833"/>
<path d="M165.026 81.3796C165.243 80.9525 167.089 79.3198 167.195 79.2811C167.62 79.1273 169.049 78.893 169.822 78.7376C170.23 78.6557 170.528 77.8562 169.891 77.8981C169.629 77.9154 165.774 78.4551 165.768 78.4043L164.202 79.9419C164.202 79.9414 164.809 81.8066 165.026 81.3796Z" fill="#FCB79F"/>
<path d="M168.427 78.7051C168.427 78.7051 169.344 78.7799 169.419 78.8835C169.697 79.2716 168.869 79.4289 168.573 79.3813C168.133 79.3105 166.426 79.3327 166.426 79.3327L168.427 78.7051Z" fill="#FCB79F"/>
<path d="M170.756 76.8908C170.7 76.8676 170.59 76.8473 170.44 76.83C170.496 76.6019 170.411 76.3811 170.26 76.1581C170.246 76.1373 170.189 76.1338 170.105 76.1424C169.891 76.1624 169.436 76.27 168.912 76.4087L168.919 76.4314L168.881 76.4422C168.487 76.5584 168.056 76.6943 167.655 76.8241C166.726 76.8903 165.866 77.0268 165.526 77.2625C165.197 77.4906 164.57 77.9833 163.979 78.4566C163.397 78.7901 162.884 79.1236 162.724 79.3409C162.028 80.2891 160.936 82.8097 160.438 83.6576C159.969 84.456 144.261 85.0087 140.472 85.6366C140.472 85.6366 139.739 70.1257 136.915 64.5533C135.002 60.7778 128.562 60.9218 127.134 65.8164C125.293 72.1279 130.706 90.7681 134.739 92.212C138.064 93.4025 154 89.224 157.358 88.3202C157.358 88.3202 159.168 87.8442 160.586 87.4926C161.042 87.3796 161.458 87.2812 161.76 87.2196C163.001 86.9669 163.661 86.4017 164.227 85.0755C164.356 84.7733 164.551 84.4038 164.583 83.9797C164.625 83.9506 164.668 83.9219 164.71 83.8922C164.875 83.7781 165.042 83.6592 165.203 83.5443C165.311 83.4676 165.422 83.3878 165.533 83.3103L165.554 83.2951C165.776 83.1785 165.992 83.0518 166.203 82.9154C166.429 82.7698 166.641 82.6024 166.834 82.4156C166.931 82.3197 167.02 82.2154 167.097 82.0999C167.174 81.9851 167.234 81.8556 167.262 81.7167C167.287 81.5778 167.273 81.4296 167.212 81.3059C167.16 81.201 167.082 81.1112 166.985 81.045L166.989 81.0386C166.943 81.0002 166.889 80.9738 166.83 80.9618C166.772 80.9497 166.713 80.9453 166.654 80.9486C166.536 80.954 166.419 80.9815 166.309 81.0104C166.135 81.0596 165.963 81.1223 165.797 81.1832L165.65 81.2364C165.553 81.2705 165.439 81.3094 165.327 81.3405C165.266 81.3567 165.214 81.3686 165.166 81.3767C165.14 81.3812 165.114 81.3847 165.087 81.3869L165.005 81.3932C165.077 81.1796 165.151 80.9991 165.223 80.8502L165.284 80.8796L165.688 80.1623C166.163 79.6039 167.088 78.606 167.088 78.606C167.088 78.606 167.227 78.5614 167.443 78.4879C168.287 78.3479 169.491 78.1566 169.982 78.1211C171.205 78.0328 171.405 77.1565 170.756 76.8908Z" fill="#FDC5AE"/>
<path d="M141.445 85.0047C139.924 85.1168 138.936 85.5987 138.315 86.0198C135.275 88.078 134.412 93.1252 134.412 93.1252L134.327 92.9952C132.726 90.5159 129.662 85.7739 127.801 81.1102C125.357 74.9856 125.133 69.2024 126.201 65.5461C127.279 61.8565 130.656 60.611 133.339 61.0167C135.666 61.3686 137.033 63.1706 137.779 64.1149C142.505 70.1 141.602 82.9975 141.445 85.0047Z" fill="#D83535"/>
<path d="M139.211 202.16C137.475 204.059 123.987 199.37 123.978 196.507C123.97 193.641 126.247 185.054 126.543 182.73C127.433 175.716 127.842 170.309 127.246 163.698C127.092 162.01 126.887 160.326 126.63 158.65C123.427 137.467 105.968 133.583 115.528 106.053C118.656 106.519 123.58 107.611 126.297 108.067C129.014 108.527 129.539 108.626 131.838 108.889C134.198 124.597 140.049 140.334 139.905 156.422C139.881 158.829 139.641 161.432 139.24 164.125C138.184 171.239 136.037 178.944 134.007 185.082C133.378 186.989 133.153 187.593 132.721 189.153C132.211 191.012 132.583 191.817 133.166 193.753C133.746 195.692 140.947 200.261 139.211 202.16Z" fill="#FDC5AE"/>
<path d="M139.666 143.669L128.716 147.176L123.038 148.996C121.945 146.666 120.704 144.313 119.427 141.559L119.382 141.464C118.953 140.537 118.538 139.603 118.138 138.662C113.779 128.345 111.053 118.282 115.114 106.416C118.196 106.624 123.252 107.49 125.995 107.797C128.735 108.103 129.303 108.157 131.607 108.338C134.301 120.324 138.042 131.702 139.666 143.669Z" fill="#1D2D4A"/>
<path d="M128.716 147.175L123.038 148.995C121.945 146.665 120.704 144.312 119.427 141.558L119.382 141.463C119.022 140.661 118.682 139.849 118.364 139.03C118.55 136.327 118.698 133.923 118.73 130.811C121.99 133.822 126.119 140.513 128.716 147.175Z" fill="#E6E6E6"/>
<path d="M125.357 51.104C117.706 47.2763 120.033 29.584 134 33.5422C146.615 37.1175 135.142 51.2332 135.142 51.2332L125.357 51.104Z" fill="#68411A"/>
<path d="M104.887 157.638C102.112 159.118 99.4412 159.807 96.8922 159.879C94.3105 159.953 91.8526 159.401 89.5473 158.405C81.7692 155.038 75.6911 146.616 72.2391 140.226C70.025 136.117 68.4341 134.483 67.48 133.937C67.45 133.919 67.4168 133.901 67.3835 133.883C64.1858 132.212 56.2542 137.298 56.3128 134.272C56.3709 131.249 68.9128 126.151 71.2012 127.086C73.4864 128.02 73.2832 128.715 74.2957 130C75.6168 131.904 86.1261 144.047 93.0423 144.874C94.1189 145.001 95.1056 144.856 95.9595 144.357C103.655 139.86 99.7523 114.957 105.689 105.523C111.48 106.206 117.791 106.471 123.789 107.205C120.931 124.155 122.903 148.027 104.887 157.638Z" fill="#FDC5AE"/>
<path d="M123.771 120.492C122.23 130.267 119.836 141.083 114.72 148.933L97.8462 141.138C99.9674 135.85 100.584 126.26 101.834 117.995C102.641 112.658 103.712 107.872 105.623 105.162C112.273 105.655 119.006 106.784 125.65 107.311C125.082 111.134 124.53 115.688 123.771 120.492Z" fill="#1D2D4A"/>
<path d="M134.251 108.506C134.087 110.398 132.552 111.875 130.656 111.962C123.423 112.289 113.002 113.828 105.583 109.924C105.151 109.697 104.729 109.451 104.318 109.187C102.68 108.124 101.984 106.068 102.603 104.215C108.248 87.3336 110.704 87.2725 112.013 78.6495C112.186 77.5062 112.339 76.2072 112.479 74.6953C113.713 61.2399 121.334 58.1958 121.334 58.1958C125.528 57.7587 129.471 58.2963 133.116 59.9926C144.994 66.8804 135.407 95.3385 134.251 108.506Z" fill="#F55858"/>
<path d="M139.433 43.2811C139.433 43.2811 138.836 46.385 137.498 49.48C136.1 52.7136 133.884 55.9264 130.686 55.5605C124.425 54.8445 124.468 46.5017 124.468 46.5017C124.468 46.5017 124.284 46.0317 124.087 45.353C123.669 43.8941 123.206 41.4948 124.465 40.835C126.303 39.8647 127.235 43.0281 127.235 43.0281C127.97 43.1392 130.107 39.2412 130.864 38.9479C131.507 38.6914 134.093 44.3408 139.433 43.2811Z" fill="#FDC5AE"/>
<path d="M132.058 51.5617L126.012 49.5703L122.693 58.399C124.765 62.9979 127.348 64.7639 131.167 59.6807L132.058 51.5617Z" fill="#FDC5AE"/>
<path d="M117.41 76.8086C107.995 92.2465 112.669 102.786 105.582 109.924C105.15 109.697 104.728 109.451 104.318 109.187C102.68 108.124 101.983 106.068 102.603 104.215C108.247 87.3336 110.347 87.7187 111.902 79.34L117.41 76.8086Z" fill="#D83535"/>
<path d="M83.4884 82.0321C82.834 82.3982 82.1732 82.7529 81.5064 83.0959C80.5304 83.5949 79.5436 84.0522 79.2206 84.0422C77.8946 84.0014 77.1389 84.043 77.1389 84.043L77.0662 84.0679C75.5378 84.5933 74.071 85.0722 72.9242 85.6182C71.986 86.0652 71.2625 86.5569 70.8954 87.1561C70.6119 87.6191 70.7998 88.0918 70.8741 88.2423L70.8768 88.248C70.8787 88.2521 70.8806 88.2561 70.8827 88.2596L70.8944 88.2824L70.8971 88.2872L70.9 88.2921C70.9 88.2921 70.8446 88.3313 70.7673 88.4037C70.6198 88.5418 70.3922 88.801 70.3151 89.1421C70.1984 89.6611 70.5343 89.993 70.623 90.0697C70.636 90.0811 70.6435 90.087 70.6435 90.087L70.643 90.0876C70.6386 90.091 70.6343 90.0947 70.6303 90.0986L70.6257 90.1032C70.6236 90.1052 70.6216 90.1072 70.6198 90.1094L70.6135 90.1162C70.5864 90.1478 70.5616 90.1814 70.5395 90.2168C70.3992 90.4373 70.2181 90.8797 70.3187 91.2649C70.4257 91.6736 70.8692 91.9795 71.0246 92.0757H71.0252L71.0403 92.0849C71.0646 92.0998 71.079 92.1076 71.079 92.1076C71.079 92.1076 71.0541 92.1444 71.023 92.2082C71.0144 92.2263 71.0049 92.246 70.996 92.2684L70.9957 92.2695C70.8957 92.5068 70.7903 92.9655 71.2068 93.3669C71.3079 93.4644 71.4417 93.5261 71.6033 93.5598V93.5601C72.2085 93.6869 73.2001 93.4201 74.2956 93.1555C76.8643 92.5352 80.0317 91.3368 80.3196 91.0941C80.8623 90.6362 81.8713 89.1097 82.5283 88.597C82.9573 88.2624 84.0386 87.7777 84.8573 87.435L84.8635 87.4545L115.736 74.378L121.585 58.9102L83.4884 82.0321Z" fill="#FDC5AE"/>
<path d="M71.0785 92.1063C71.0785 92.1063 71.0645 92.0985 71.0402 92.0839C72.2367 91.6109 73.6492 91.1066 75.3633 90.8844C75.3775 90.8826 75.3919 90.8865 75.4033 90.8952C75.4146 90.904 75.422 90.9169 75.4238 90.9312C75.4257 90.9454 75.4218 90.9598 75.413 90.9711C75.4042 90.9825 75.3913 90.9899 75.3771 90.9917C73.6478 91.2155 72.2256 91.7298 71.0229 92.2069C71.0537 92.1431 71.0785 92.1063 71.0785 92.1063ZM70.7669 88.4021C70.8445 88.3297 70.8999 88.2905 70.8999 88.2905L70.8969 88.2856L70.8942 88.2808C70.8915 88.2754 70.8872 88.2678 70.8826 88.2581L70.8766 88.2465C71.8853 87.88 73.0362 87.5362 74.3692 87.3637C74.3763 87.3628 74.3834 87.3633 74.3903 87.3652C74.3971 87.367 74.4036 87.3702 74.4092 87.3745C74.4148 87.3789 74.4195 87.3843 74.423 87.3905C74.4266 87.3966 74.4289 87.4034 74.4298 87.4105C74.4307 87.4175 74.4302 87.4247 74.4283 87.4315C74.4265 87.4384 74.4233 87.4448 74.4189 87.4504C74.4146 87.4561 74.4092 87.4608 74.403 87.4643C74.3968 87.4678 74.39 87.4701 74.383 87.471C73.2886 87.6129 72.317 87.871 71.4461 88.1624C71.2126 88.2405 70.9864 88.3208 70.7669 88.4021ZM70.5391 90.2152C70.551 90.1965 70.5629 90.179 70.5739 90.1638C70.5877 90.1444 70.601 90.1279 70.6131 90.1146L70.6193 90.1079L70.6253 90.1017L70.6299 90.0971C70.6339 90.0931 70.6381 90.0894 70.6426 90.086L70.6434 90.0854L70.6226 90.0681C70.6639 90.0527 70.7053 90.0373 70.7475 90.0222C71.7734 89.6457 72.9473 89.2895 74.3127 89.1127C74.3269 89.1108 74.3413 89.1147 74.3527 89.1235C74.3641 89.1322 74.3715 89.1451 74.3734 89.1593C74.3753 89.1736 74.3714 89.188 74.3627 89.1993C74.3539 89.2107 74.341 89.2181 74.3268 89.22C73.0632 89.3835 71.9634 89.7019 70.9934 90.0479L70.9929 90.0481H70.9926C70.9315 90.0698 70.8712 90.0917 70.811 90.1136L70.7953 90.1192C70.7088 90.1514 70.6234 90.183 70.5391 90.2152Z" fill="#E6E6E6"/>
<path d="M122.45 58.0943L116.587 77.9391L116.566 78.0112L116.152 78.1548L104.32 82.2584L98.6904 70.8891C104.394 67.1273 109.851 63.5931 114.255 61.1982C115.663 60.43 116.965 59.7797 118.134 59.2762C119.915 58.5056 121.383 58.0767 122.45 58.0943Z" fill="#F55858"/>
<path d="M139.211 202.161C137.475 204.06 123.987 199.371 123.978 196.508C123.97 193.642 126.247 185.054 126.543 182.731C127.434 175.717 127.843 170.31 127.247 163.699L139.24 164.126C138.184 171.24 136.037 178.944 134.007 185.083C133.378 186.99 133.153 187.593 132.721 189.153C132.211 191.012 132.583 191.818 133.167 193.754C133.747 195.693 140.947 200.261 139.211 202.161ZM93.0429 144.874C91.8766 149.384 90.7136 153.895 89.5473 158.405C81.7692 155.038 75.6911 146.616 72.2391 140.226C71.5066 138.408 70.1823 135.402 67.48 133.937C67.45 133.919 67.4168 133.901 67.3835 133.883C64.1858 132.212 56.2542 137.298 56.3128 134.272C56.3709 131.249 68.9128 126.151 71.2012 127.085C73.4865 128.02 73.2832 128.715 74.2957 130C75.6173 131.904 86.1266 144.047 93.0429 144.874Z" fill="#314784"/>
<path d="M124.958 191.209C122.199 193.331 120.689 196.291 120.177 199.921C120.053 200.803 120.623 201.639 121.484 201.868L146.182 208.447C147.492 208.796 148.709 207.603 148.362 206.292C147.056 201.371 140.068 196.781 135.133 193.261C131.422 190.09 125.398 195.384 124.958 191.209Z" fill="#2F93E8"/>
<path d="M124.547 191.542C124.682 191.429 124.817 191.317 124.958 191.209C124.969 191.316 124.986 191.413 125.005 191.507C124.852 191.515 124.7 191.527 124.547 191.542ZM141.851 205.597C140.553 200.706 133.645 196.143 128.715 192.632C130.761 192.225 133.245 191.648 135.132 193.261C140.067 196.781 147.056 201.371 148.361 206.292C148.708 207.603 147.491 208.796 146.181 208.447L141.474 207.193C141.836 206.778 142.011 206.201 141.851 205.597Z" fill="#1267D2"/>
<path d="M142.791 208.214C142.814 208.423 143.051 208.632 143.363 208.72C143.693 208.813 144.031 208.749 144.16 208.567L144.375 207.732L143.007 207.379L142.791 208.214ZM139.333 207.318C139.355 207.529 139.592 207.739 139.904 207.828C140.234 207.921 140.572 207.856 140.701 207.671L140.918 206.827L139.55 206.475L139.333 207.318ZM122.202 202.881C122.221 203.103 122.456 203.32 122.768 203.409C123.098 203.502 123.438 203.43 123.57 203.234L123.799 202.347L122.431 201.994L122.202 202.881Z" fill="#232833"/>
<path d="M120.409 198.978C120.285 199.86 120.855 200.696 121.716 200.926L146.414 207.504C147.243 207.725 148.034 207.327 148.416 206.673C148.464 207.822 147.363 208.762 146.181 208.447L121.483 201.869C120.623 201.639 120.052 200.803 120.177 199.922C120.282 199.174 120.432 198.457 120.625 197.768C120.539 198.169 120.467 198.572 120.409 198.978Z" fill="#232833"/>
<path d="M74.9334 130.641C74.9885 127.16 73.6112 124.136 71.0881 121.477C70.4751 120.831 69.4661 120.757 68.751 121.288L48.2337 136.529C47.1453 137.338 47.322 139.033 48.564 139.577C53.2288 141.617 61.1701 139.002 66.9966 137.328C71.7868 136.397 71.3911 128.387 74.9334 130.641Z" fill="#2F93E8"/>
<path d="M74.9279 130.111C74.9325 130.287 74.936 130.462 74.933 130.64C74.8478 130.587 74.7602 130.537 74.6706 130.491C74.7595 130.367 74.8449 130.24 74.9279 130.111ZM53.159 134.912C57.7945 136.939 65.6651 134.37 71.481 132.696C70.5272 134.55 69.4326 136.854 66.996 137.328C61.1695 139.001 53.2282 141.616 48.5634 139.576C47.3214 139.032 47.145 137.338 48.2331 136.529L52.143 133.624C52.2433 134.165 52.5862 134.661 53.159 134.912Z" fill="#1267D2"/>
<path d="M50.5255 134.021C50.3474 133.908 50.0366 133.964 49.7736 134.153C49.4955 134.354 49.3349 134.658 49.3979 134.872L49.9171 135.56L51.0447 134.708L50.5255 134.021ZM53.3786 131.871C53.1994 131.756 52.8875 131.811 52.6245 132C52.3464 132.201 52.1869 132.506 52.2512 132.722L52.7761 133.417L53.9037 132.565L53.3786 131.871ZM67.511 121.22C67.3253 121.097 67.0091 121.146 66.7459 121.335C66.4675 121.535 66.3126 121.846 66.3837 122.072L66.9359 122.803L68.0635 121.951L67.511 121.22Z" fill="#232833"/>
<path d="M71.6819 122.246C71.0689 121.6 70.0597 121.526 69.3448 122.057L48.8275 137.298C48.1386 137.81 47.958 138.677 48.2323 139.382C47.3026 138.706 47.252 137.259 48.2337 136.529L68.751 121.288C69.4661 120.757 70.4753 120.831 71.0881 121.477C71.594 122.009 72.0642 122.574 72.4957 123.168C72.2353 122.851 71.9639 122.543 71.6819 122.246Z" fill="#232833"/>
<path d="M110.217 187.9C109.981 189.475 109.487 191 108.755 192.414C108.397 193.113 107.981 193.781 107.511 194.411C107.417 194.545 107.313 194.678 107.215 194.807C106.634 195.535 105.985 196.206 105.275 196.809C102.904 198.835 99.9019 200.101 96.6769 200.296C96.4147 200.312 96.1488 200.322 95.8842 200.324C95.1146 200.333 94.3456 200.279 93.5849 200.162C92.4986 199.998 91.4341 199.712 90.4113 199.311C90.2385 199.243 90.0668 199.172 89.8961 199.098C86.9886 197.823 84.5773 195.632 83.0288 192.86C82.6668 192.216 82.3543 191.546 82.0939 190.854C82.0338 190.701 81.9784 190.545 81.9277 190.388C81.623 189.486 81.4062 188.557 81.2804 187.614C81.1023 186.257 81.1167 184.882 81.3231 183.53C81.5755 181.861 82.0988 180.303 82.845 178.894C83.7437 177.184 84.9716 175.691 86.4252 174.482C88.8023 172.504 91.7927 171.286 94.9949 171.121C95.877 171.075 96.7614 171.11 97.6372 171.224C97.7421 171.235 97.851 171.252 97.9553 171.267L98.1278 171.293C98.9078 171.422 99.6762 171.612 100.426 171.864C103.569 172.914 106.175 174.978 107.932 177.619L107.931 177.623C109.049 179.292 109.807 181.176 110.155 183.155L110.154 183.159C110.436 184.725 110.457 186.327 110.217 187.9Z" fill="white"/>
<path d="M109.311 189.384C108.953 190.083 108.537 190.751 108.068 191.381C107.973 191.515 107.87 191.648 107.771 191.777C107.191 192.505 106.541 193.176 105.831 193.779C103.461 195.805 100.458 197.071 97.2332 197.266C96.971 197.282 96.7051 197.292 96.4405 197.294C95.6709 197.303 94.9019 197.249 94.1412 197.132C93.0548 196.967 91.9903 196.682 90.9675 196.281C90.7924 196.212 90.6224 196.14 90.4524 196.068C87.5074 194.779 85.1108 192.561 83.5851 189.83C83.2231 189.186 82.9106 188.515 82.6502 187.824C82.5901 187.67 82.5347 187.515 82.484 187.358C82.1793 186.456 81.9625 185.527 81.8367 184.584C81.7055 183.585 81.6791 182.576 81.7577 181.572C81.5685 182.214 81.4231 182.868 81.3226 183.529C81.1162 184.882 81.1018 186.257 81.2799 187.614C81.4056 188.557 81.6223 189.486 81.9272 190.388C81.9777 190.544 82.0329 190.701 82.0934 190.854C82.354 191.545 82.6665 192.216 83.0283 192.86C84.5768 195.632 86.9881 197.822 89.8956 199.098C90.0656 199.17 90.2356 199.242 90.4108 199.311C91.4336 199.712 92.4981 199.997 93.5844 200.162C94.3598 200.279 95.1261 200.335 95.8837 200.324C96.1481 200.322 96.4125 200.312 96.6764 200.295C99.9014 200.101 102.904 198.835 105.274 196.809C105.984 196.206 106.634 195.535 107.214 194.807C107.313 194.678 107.416 194.545 107.511 194.411C107.98 193.781 108.396 193.113 108.754 192.414C109.486 191 109.98 189.475 110.216 187.9C110.273 187.529 110.31 187.159 110.338 186.791C110.073 187.698 109.734 188.569 109.311 189.384Z" fill="#B3B3B3"/>
<path d="M97.3215 199.099L96.6677 200.294C96.4055 200.31 96.1395 200.321 95.8749 200.323C95.1054 200.331 94.3364 200.277 93.5757 200.16C92.4893 199.996 91.4248 199.711 90.402 199.309C90.3185 198.879 90.2307 198.448 90.1428 198.018C91.5186 197.141 92.8951 196.259 94.276 195.378C94.6608 195.867 96.6996 198.365 97.3215 199.099ZM100.361 178.443C99.7432 177.709 97.7061 175.209 97.3174 174.72L93.184 177.357L93.9384 181.094L98.5356 181.79L100.361 178.443ZM110.137 183.15L110.136 183.155C109.86 183.535 109.588 183.921 109.313 184.301C107.729 183.89 106.149 183.48 104.564 183.068C104.659 182.447 105.104 179.254 105.22 178.302C106.118 178.071 107.015 177.845 107.912 177.619C109.03 179.288 109.788 181.172 110.137 183.15ZM88.4447 180.565C87.8173 180.572 84.5969 180.674 83.6399 180.715C83.3699 180.108 83.0961 179.496 82.8261 178.89C83.7178 177.198 84.9344 175.699 86.4062 174.478C87.2222 174.879 88.0433 175.277 88.8636 175.679L88.4447 180.565ZM86.574 185.353C86.2273 186.247 85.0145 189.235 84.7721 189.811L89.0717 192.168L91.9861 189.71L90.3863 185.345C89.1155 185.348 87.8446 185.35 86.574 185.353ZM104.714 188.737C103.855 188.31 100.99 186.83 100.439 186.536L97.6988 190.602L99.8797 193.729L104.373 192.534L104.714 188.737ZM108.755 192.414C108.396 193.113 107.98 193.781 107.511 194.411C107.416 194.545 107.313 194.678 107.215 194.807C106.634 195.535 105.984 196.206 105.274 196.809C105.04 196.458 104.8 196.111 104.566 195.761L107.296 191.999C107.781 192.137 108.265 192.276 108.755 192.414ZM100.425 171.864C100.211 172.235 100.006 172.612 99.7964 172.984L95.206 172.239C95.1371 171.866 95.0636 171.493 94.9946 171.121C95.8767 171.075 96.7611 171.11 97.6369 171.224C97.7418 171.235 97.8507 171.252 97.955 171.267L98.1275 171.293C98.9194 171.423 99.6878 171.618 100.425 171.864ZM84.0672 192.001C83.722 192.289 83.3756 192.575 83.0282 192.86C82.6662 192.216 82.3537 191.545 82.0933 190.854C82.0332 190.7 81.9778 190.545 81.9271 190.388C81.6224 189.486 81.4056 188.557 81.2798 187.614C81.6876 187.615 82.095 187.621 82.5031 187.623L84.0672 192.001Z" fill="#232833"/>
<path d="M88.0101 177.172L88.0514 176.715L93.4195 177.239L93.3781 177.696L88.0101 177.172ZM84.6519 180.304L85.0854 180.155L86.8682 185.544L86.4346 185.694L84.6519 180.304ZM90.4575 185.635L90.1007 185.347L93.9654 180.756L94.3071 181.036L90.4575 185.635ZM104.582 188.924L104.193 188.682L107.581 183.509L107.97 183.751L104.582 188.924ZM91.9567 197.052L91.5491 197.262L88.9569 192.033L89.3647 191.823L91.9567 197.052ZM100.83 186.845L100.407 187.022L98.2397 181.603L98.6629 181.426L100.83 186.845ZM97.9629 190.232L97.9121 190.688L91.7256 189.851L91.7764 189.395L97.9629 190.232ZM99.8973 193.087L100.248 193.383L96.1147 198.061L95.7639 197.765L99.8973 193.087ZM100.171 178.708L100.204 178.257L105.625 179.275L105.542 179.726L100.171 178.708Z" fill="#232833"/>
<path d="M107.491 194.408C107.397 194.542 107.293 194.675 107.195 194.803L104.08 192.616L104.08 192.612L104.359 192.209L104.401 192.238L107.491 194.408ZM98.1073 171.29L97.5386 174.989L97.5105 175.175L97.0245 175.106L97.0581 174.884L97.6167 171.221C97.7216 171.232 97.8305 171.248 97.9349 171.264L98.1073 171.29ZM85.1138 189.854L84.9479 189.908L82.0734 190.851C82.0133 190.697 81.9579 190.542 81.9072 190.385L84.9425 189.392L84.9471 189.393L84.9568 189.39L85.1138 189.854Z" fill="#050202"/>
<path d="M303.648 95.5801C305.847 96.8504 308.005 98.135 310.071 99.5267H212.641V95.5801H303.648Z" fill="#1D2D4A"/>
<path d="M217.578 95.8651L217.546 96.3822L217.387 98.925L217.347 99.5272L216.53 112.542L215.251 132.864L215.223 133.356L214.695 141.71L213.753 156.712L213.725 157.208L212.605 174.983L212.29 180.019L212.258 180.515L212.156 182.141L211.291 195.917L210.997 200.564L210.966 201.056L210.396 210.154L210.392 210.196L210.279 211.999H205.104L205.193 210.536L205.196 210.508L205.218 210.196V210.154L206.053 196.841H206.057L206.854 184.141L207.428 175.018L209.517 141.76L211.405 111.742L212.421 95.543L212.988 95.5784L217.578 95.8651Z" fill="#1D2D4A"/>
<path d="M217.042 96.0938L271.912 127.773L270.772 129.747L215.903 98.0673L217.042 96.0938Z" fill="#1D2D4A"/>
<path d="M271.908 127.788L286.491 210.62L284.247 211.015L269.663 128.183L271.908 127.788ZM230.643 106.666H231.138V211.998H230.643V106.666ZM249.484 117H249.979V211.998H249.484V117ZM264.981 125.206H265.477V211.998H264.981V125.206ZM307.278 211.998H306.778L306.467 210.196L306.46 210.153L305.907 206.952L305.822 206.459L302.993 190.083L302.39 186.591L302.306 186.099L300.283 174.38L299.264 168.469L298.93 166.536L298.842 166.04L296.529 152.628L295.151 144.656L295.067 144.16L292.205 127.582L292.198 127.55L292.148 127.26L292.471 127.203L292.634 127.175L292.697 127.536L295.566 144.16L295.651 144.656L297.011 152.539L299.341 166.04L299.43 166.536L299.71 168.168L300.783 174.377L302.805 186.099L302.89 186.591L303.531 190.289L306.322 206.459L306.407 206.952L306.959 210.153L306.966 210.196L307.278 211.998Z" fill="#1D2D4A"/>
<path d="M256.04 97.1086L256.358 96.7313L292.513 127.229L292.195 127.607L256.04 97.1086ZM285.441 97.1081L285.76 96.7305L320.763 126.257L320.445 126.635L285.441 97.1081ZM210.818 132.492L210.914 132.008L274.52 144.58L274.424 145.064L210.818 132.492Z" fill="#1D2D4A"/>
<path d="M328.291 144.161C328.282 144.326 328.271 144.491 328.259 144.659H274.479V144.161H328.291ZM324.917 166.041C324.879 166.206 324.841 166.371 324.801 166.539H278.098V166.041H324.917ZM319.182 186.101C319.127 186.263 319.075 186.428 319.017 186.593H281.469V186.101H319.182ZM311.599 206.462C311.532 206.624 311.463 206.789 311.396 206.954H284.51V206.462H311.599ZM212.126 156.995L212.194 156.506L277.876 165.617L277.808 166.106L212.126 156.995ZM208.747 180.174L208.793 179.683L281.266 186.533L281.22 187.024L208.747 180.174ZM208.734 200.833L208.781 200.341L283.935 207.437L283.889 207.929L208.734 200.833ZM327.443 126.531L320.898 126.719L320.403 126.734L292.696 127.538L292.236 127.55H292.233L292.198 127.553H292.115L271.982 128.137L271.707 128.143L271.49 128.152L271.485 127.857V127.854L271.476 127.66L271.699 127.651L291.553 127.078L292.291 127.055H292.294L319.976 126.254L320.71 126.23H320.713L327.351 126.036C327.382 126.199 327.414 126.366 327.443 126.531ZM323.574 114.486H247.793V113.994H323.325C323.41 114.156 323.49 114.321 323.574 114.486Z" fill="#1D2D4A"/>
<path d="M325.661 156.249L326.239 159.825C326.15 160.292 326.058 160.758 325.964 161.223L325.151 156.177L323.519 146.059V146.055L323.294 144.658L323.216 144.16L320.403 126.733L320.4 126.701L320.884 126.623L320.898 126.718L323.713 144.16L323.791 144.658L323.979 145.821L325.661 156.249ZM334.654 212H334.151L333.853 210.154H334.356L334.654 212Z" fill="#1D2D4A"/>
<path d="M279.873 58.4168C278.655 48.3342 279.976 37.5697 274.918 28.331C272.775 24.4157 269.547 21.2329 265.403 19.502C260.968 17.6493 256.009 17.4495 251.278 17.8993C241.225 18.8553 231.838 22.7103 222.331 25.8398C217.596 27.3986 212.78 28.7954 207.839 29.5213C202.365 30.3257 196.745 30.17 191.256 29.5943C181.301 28.5499 168.507 23.9514 167.247 12.3353C167.05 10.5182 164.177 10.4979 164.376 12.3353C165.383 21.6227 173.091 27.984 181.575 30.6152C186.581 32.1676 191.917 32.685 197.134 32.8777C202.394 33.072 207.616 32.6463 212.761 31.523C222.642 29.3651 231.907 25.1374 241.672 22.5722C250.508 20.2507 262.446 18.3528 269.509 25.709C277.74 34.2823 275.701 47.6409 277.002 58.417C277.221 60.2279 280.095 60.2498 279.873 58.4168ZM57.3916 19.0353C58.6121 17.6563 56.5888 15.6184 55.3615 17.0052C42.5126 31.5238 52.1346 51.8016 54.232 68.2079C54.8882 73.3395 54.8644 78.6113 53.2968 83.5831C52.0314 87.5968 49.778 91.2477 47.015 94.4024C41.2288 101.008 33.6226 105.544 26.0706 109.838C17.2879 114.831 8.20889 119.869 1.68999 127.788C0.524543 129.203 2.54435 131.246 3.72007 129.818C15.2086 115.862 34.0207 111.364 46.7652 98.841C53.2233 92.4951 57.2405 84.5345 57.4972 75.3925C57.7808 65.2967 54.232 55.695 52.5695 45.8609C51.0446 36.8389 50.97 26.2915 57.3916 19.0353ZM328.131 104.241C323.409 97.3417 317.094 91.5615 309.445 88.0868C307.775 87.3284 306.314 89.8017 307.996 90.5655C321.219 96.5725 329.834 109.357 333.622 123.054C338.424 140.415 335.408 158.853 331.227 176.01C329.023 185.055 326.903 194.835 320.995 202.295C319.86 203.728 321.878 205.773 323.025 204.325C328.432 197.497 330.855 189.129 332.981 180.824C335.407 171.35 337.508 161.76 338.436 152.011C340.011 135.461 337.693 118.214 328.131 104.241Z" fill="#A8E5FF" fill-opacity="0.11"/>
</svg>
